<?xml version="1.0" standalone="no"?>
<!DOCTYPE svg PUBLIC "-//W3C//DTD SVG 1.1//EN" "http://www.w3.org/Graphics/SVG/1.1/DTD/svg11.dtd" >
<svg xmlns="http://www.w3.org/2000/svg" xmlns:xlink="http://www.w3.org/1999/xlink" version="1.1">
<metadata>
Created by FontForge 20170731 at Thu Jul 28 10:56:09 2022
 By Aleksey,,,
Copyright 2022 The Noto Project Authors (https://github.com/notofonts/latin-greek-cyrillic)
</metadata>
<defs>
<font id="NotoSansMonoCondensed-Black" horiz-adv-x="530" >
  <font-face 
    font-family="Noto Sans Mono Condensed Black"
    font-weight="900"
    font-stretch="condensed"
    units-per-em="1000"
    panose-1="2 11 5 9 4 5 4 2 2 4"
    ascent="800"
    descent="-200"
    x-height="553"
    cap-height="714"
    bbox="-609 -389 1590 1217"
    underline-thickness="50"
    underline-position="-175"
    unicode-range="U+000D-1F67F"
  />
<missing-glyph 
d="M60 0v714h411v-714h-411zM111 51h309v612h-309v-612z" />
    <glyph glyph-name=".notdef" 
d="M60 0v714h411v-714h-411zM111 51h309v612h-309v-612z" />
    <glyph glyph-name=".null" horiz-adv-x="0" 
 />
    <glyph glyph-name="nonmarkingreturn" horiz-adv-x="333" 
 />
    <glyph glyph-name="NULL" horiz-adv-x="0" 
 />
    <glyph glyph-name="CR" unicode="&#xd;" 
 />
    <glyph glyph-name="space" unicode=" " 
 />
    <glyph glyph-name="exclam" unicode="!" 
d="M199 245l-24 469h182l-23 -469h-135zM266 -11q-40 0 -65 22t-25 67q0 44 24 66.5t66 22.5q40 0 64.5 -22t24.5 -67t-25 -67t-64 -22z" />
    <glyph glyph-name="quotedbl" unicode="&#x22;" 
d="M314 456l-20 258h163l-20 -258h-123zM92 456l-19 258h162l-20 -258h-123z" />
    <glyph glyph-name="numbersign" unicode="#" 
d="M70 0l28 195h-89v104h105l16 116h-96v108h112l28 191h108l-29 -191h70l28 191h108l-29 -191h91v-108h-106l-16 -116h97v-104h-112l-29 -195h-108l29 195h-71l-27 -195h-108zM222 299h69l16 116h-70z" />
    <glyph glyph-name="dollar" unicode="$" 
d="M235 33q-45 2 -89.5 13t-81.5 28v136q37 -23 83 -40.5t88 -19.5v160q-57 23 -96 49.5t-59 63t-20 87.5q0 54 22.5 92t61.5 60.5t91 27.5v69h71v-68q41 -3 80 -14.5t77 -30.5l-34 -115q-29 17 -61 26t-62 13v-151q58 -21 95 -46t55.5 -58.5t18.5 -83.5q0 -75 -43.5 -127.5
t-125.5 -66.5v-95h-71v91zM306 158q25 8 35.5 24t10.5 38q0 15 -5 26t-15.5 19.5t-25.5 16.5v-124zM235 569q-18 -4 -28.5 -12t-15.5 -20t-5 -29q0 -14 5 -24.5t16 -19t28 -17.5v122z" />
    <glyph glyph-name="percent" unicode="%" 
d="M14 115l377 484h124l-377 -484h-124zM389 -10q-66 0 -102.5 44.5t-36.5 124.5q0 81 36 125.5t103 44.5q68 0 104.5 -45t36.5 -125q0 -79 -36.5 -124t-104.5 -45zM391 87q13 0 18.5 17.5t5.5 54.5q0 38 -5.5 55.5t-18.5 17.5q-14 0 -20 -17.5t-6 -55.5q0 -37 6 -54.5
t20 -17.5zM139 385q-66 0 -102.5 44.5t-36.5 124.5q0 81 36 125.5t103 44.5q68 0 104.5 -45t36.5 -125q0 -79 -36.5 -124t-104.5 -45zM140 482q14 0 19.5 17.5t5.5 54.5q0 38 -5.5 55.5t-19.5 17.5t-19.5 -17.5t-5.5 -55.5q0 -37 5.5 -54.5t19.5 -17.5z" />
    <glyph glyph-name="ampersand" unicode="&#x26;" 
d="M204 -10q-62 0 -103 24t-61 66.5t-20 97.5q0 58 20.5 99.5t56.5 76.5t84 74q18 15 40.5 35.5t39.5 47t17 58.5q0 24 -10.5 35.5t-29.5 11.5t-31 -12.5t-12 -38.5q0 -25 9.5 -49t22 -45t22.5 -38l261 -433h-141l-219 350q-17 28 -35.5 60.5t-30.5 70t-12 80.5
q0 79 44 120.5t122 41.5q80 0 119.5 -42.5t39.5 -111.5q0 -54 -21.5 -94.5t-56.5 -75t-77 -70.5q-28 -24 -48.5 -44.5t-31 -42t-10.5 -47.5q0 -38 21 -58t51 -20q29 0 54.5 17t45 45.5t33.5 63.5t23.5 71t12.5 66h119q-7 -56 -21 -112t-38.5 -106t-59 -88.5t-81.5 -61
t-108 -22.5z" />
    <glyph glyph-name="quotesingle" unicode="'" 
d="M203 456l-19 258h162l-20 -258h-123z" />
    <glyph glyph-name="parenleft" unicode="(" 
d="M290 -176q-63 86 -99 196t-36 245q0 137 37 250.5t98 198.5h139q-65 -96 -96 -208.5t-31 -239.5q0 -123 32.5 -231.5t94.5 -210.5h-139z" />
    <glyph glyph-name="parenright" unicode=")" 
d="M247 714q64 -86 99.5 -195.5t35.5 -245.5q0 -137 -37 -250.5t-98 -198.5h-139q65 97 96 209.5t31 238.5q0 124 -32.5 232t-94.5 210h139z" />
    <glyph glyph-name="asterisk" unicode="*" 
d="M337 326l-73 132l-71 -131l-110 74l99 115l-137 17l31 127l137 -48l-18 150h138l-18 -150l139 49l30 -127l-137 -18l99 -114z" />
    <glyph glyph-name="plus" unicode="+" 
d="M203 112v180h-154v122h154v182h124v-182h154v-122h-154v-180h-124z" />
    <glyph glyph-name="comma" unicode="," 
d="M164 -144q9 41 17.5 93.5t15 104t9.5 89.5h151l6 -11q-7 -36 -14.5 -73t-17 -73t-20 -69.5t-21.5 -60.5h-126z" />
    <glyph glyph-name="hyphen" unicode="-" 
d="M132 199v142h265v-142h-265z" />
    <glyph glyph-name="period" unicode="." 
d="M266 -10q-39 0 -64.5 22t-25.5 66q0 45 24.5 67.5t65.5 22.5q40 0 64 -22.5t24 -67.5q0 -44 -24 -66t-64 -22z" />
    <glyph glyph-name="slash" unicode="/" 
d="M58 -9l278 732h136l-278 -732h-136z" />
    <glyph glyph-name="zero" unicode="0" 
d="M264 -10q-80 0 -133.5 41.5t-80 123t-26.5 201.5q0 126 25.5 207.5t79 121.5t135.5 40q80 0 134 -42t80.5 -124t26.5 -203q0 -78 -11 -145t-38 -116.5t-74 -77t-118 -27.5zM180 134l-89 38l254 408l97 -27zM264 137q51 0 68.5 52.5t17.5 166.5q0 74 -7.5 123.5t-26 74
t-52.5 24.5q-32 0 -50.5 -24.5t-26.5 -74t-8 -123.5q0 -109 17.5 -164t67.5 -55z" />
    <glyph glyph-name="one" unicode="1" 
d="M201 374q0 20 0.5 48t1 57.5t1.5 51.5q-14 -11 -26.5 -20.5t-28.5 -19.5l-50 -31l-74 128l201 126h140v-714h-165v374zM70 0v122l132 12h164l124 -12v-122h-420z" />
    <glyph glyph-name="two" unicode="2" 
d="M40 0v120l139 170q49 58 77 96t39.5 66t11.5 55q0 34 -16.5 52t-49.5 18t-63 -18.5t-67 -60.5l-84 112q35 40 70.5 65.5t75 37t83.5 11.5q64 0 114.5 -24t79.5 -71t29 -116q0 -39 -12 -78t-42.5 -84t-83.5 -103l-88 -96v-5h234v-147h-447z" />
    <glyph glyph-name="three" unicode="3" 
d="M221 -10q-41 0 -84 8t-92 29v153q41 -24 83.5 -35.5t80.5 -11.5q50 0 74.5 20t24.5 60q0 29 -13.5 47t-43.5 26t-82 8h-37v140h38q47 0 76.5 9t43 28t13.5 46q0 33 -18 48t-51 15q-31 0 -62.5 -11.5t-62.5 -33.5l-64 121q43 32 95 50t115 18q67 0 114.5 -20.5t72.5 -59.5
t25 -96q0 -45 -15.5 -78.5t-43 -56.5t-64.5 -39v-3q44 -9 75.5 -30t48.5 -55t17 -82q0 -65 -31.5 -113t-90.5 -74.5t-142 -26.5z" />
    <glyph glyph-name="four" unicode="4" 
d="M268 0v139h-245v134l248 441h157v-438h79v-137h-79v-139h-160zM161 276h107v97q0 6 0.5 18.5t0.5 28.5t1 34t0 33h-4q-8 -21 -18 -42t-19 -38z" />
    <glyph glyph-name="five" unicode="5" 
d="M219 -10q-47 0 -89.5 9t-78.5 28v153q36 -18 77.5 -31.5t80.5 -13.5q46 0 71 24.5t25 71.5q0 31 -11.5 52t-33.5 32t-56 11q-21 0 -43.5 -4.5t-44.5 -12.5l-56 35l22 370h359v-148h-208l-8 -107q22 6 40 7.5t29 1.5q56 0 97.5 -28t64.5 -80t23 -123q0 -79 -29.5 -134
t-87 -84t-143.5 -29z" />
    <glyph glyph-name="six" unicode="6" 
d="M273 -10q-54 0 -97.5 20.5t-74.5 61t-47.5 98.5t-16.5 132q0 80 13.5 155.5t47.5 135.5t94.5 95.5t155.5 35.5q26 0 53.5 -2t53.5 -6v-142q-21 5 -44 7t-46 2q-41 0 -71.5 -11.5t-51.5 -34.5t-32.5 -58.5t-13.5 -85.5h4q12 27 29.5 45.5t41 28t52.5 9.5q79 0 124 -61
t45 -171q0 -77 -26.5 -134.5t-75.5 -88.5t-117 -31zM269 135q23 0 38.5 25.5t15.5 78.5q0 47 -12.5 71.5t-40.5 24.5q-19 0 -32 -12t-20.5 -32t-7.5 -45q0 -19 2.5 -36t7.5 -31t12 -23.5t16.5 -15t20.5 -5.5z" />
    <glyph glyph-name="seven" unicode="7" 
d="M95 0l219 565h-276v148h451v-114l-214 -599h-180z" />
    <glyph glyph-name="eight" unicode="8" 
d="M262 -10q-72 0 -122.5 23.5t-76 68t-25.5 105.5q0 41 12 74.5t37.5 61t63.5 50.5q-31 25 -52 52.5t-31.5 58.5t-10.5 66q0 57 25 95.5t72.5 58.5t111.5 20q66 0 112.5 -20t71.5 -59t25 -96t-26.5 -99.5t-80.5 -73.5q43 -29 70.5 -58t40.5 -61t13 -71q0 -60 -27 -104
t-78 -68t-125 -24zM265 123q31 0 48.5 17t17.5 49q0 22 -8.5 38t-23.5 31.5t-38 32.5q-21 -15 -35 -31t-21 -33t-7 -36q0 -32 16.5 -50t50.5 -18zM264 459q19 14 30 25.5t16 24t5 26.5q0 29 -15 42.5t-34 13.5q-22 0 -35.5 -15t-13.5 -39q0 -15 5.5 -28.5t16 -25.5t25.5 -24
z" />
    <glyph glyph-name="nine" unicode="9" 
d="M179 -10q-26 0 -53.5 2.5t-53.5 6.5v142q22 -5 45 -7.5t45 -2.5q41 0 72 11.5t52 34.5t32.5 59t13.5 85h-5q-12 -26 -30 -45t-41 -28.5t-51 -9.5q-79 0 -125 61.5t-46 170.5q0 78 27 135t76.5 88t117.5 31q54 0 97 -21t74 -61.5t47.5 -99.5t16.5 -136q0 -65 -9 -126
t-30 -113.5t-57 -92t-89 -62t-126 -22.5zM257 379q22 0 35 14.5t19 35t6 39.5q0 28 -4.5 49t-12 34.5t-18 20.5t-23.5 7q-27 0 -41.5 -25t-14.5 -79q0 -47 14 -71.5t40 -24.5z" />
    <glyph glyph-name="colon" unicode=":" 
d="M267 380q-40 0 -65.5 22t-25.5 66q0 45 24.5 67.5t66.5 22.5q41 0 64 -22.5t23 -67.5q0 -44 -24 -66t-63 -22zM267 -10q-40 0 -65.5 22t-25.5 66q0 45 24.5 67.5t66.5 22.5q40 0 63.5 -22.5t23.5 -67.5q0 -44 -24 -66t-63 -22z" />
    <glyph glyph-name="semicolon" unicode=";" 
d="M162 -144q10 42 17.5 93.5t14.5 103t10 90.5h151l6 -11q-6 -36 -14.5 -73t-17.5 -73t-19.5 -69.5t-21.5 -60.5h-126zM278 379q-41 0 -65.5 23t-24.5 66q0 46 24 68t66 22q41 0 64.5 -22t23.5 -68q0 -43 -24.5 -66t-63.5 -23z" />
    <glyph glyph-name="less" unicode="&#x3c;" 
d="M473 111l-429 208v79l429 211v-136l-256 -114l256 -113v-135z" />
    <glyph glyph-name="equal" unicode="=" 
d="M56 391v133h418v-133h-418zM56 166v133h418v-133h-418z" />
    <glyph glyph-name="greater" unicode="&#x3e;" 
d="M51 111v135l255 113l-255 114v136l428 -211v-79z" />
    <glyph glyph-name="question" unicode="?" 
d="M177 285q0 32 6.5 57t22.5 47t43 44q24 20 36.5 36t17.5 31.5t5 33.5q0 27 -15 41t-44 14t-60 -13t-69 -38l-53 121q47 32 95.5 48.5t100.5 16.5q64 0 108.5 -21.5t67.5 -61t23 -93.5q0 -41 -10.5 -73t-31 -59t-53.5 -55q-23 -21 -35.5 -35.5t-16 -27t-3.5 -29.5v-24
h-135v40zM245 -11q-40 0 -65 22t-25 66q0 45 24.5 67.5t65.5 22.5t64.5 -22t23.5 -68q0 -44 -24 -66t-64 -22z" />
    <glyph glyph-name="at" unicode="@" 
d="M277 -85q-92 0 -153.5 45t-92.5 128.5t-31 198.5q0 101 20.5 180t58 134.5t88.5 84t113 28.5q76 0 132.5 -40.5t87 -118t30.5 -186.5q0 -56 -8 -104t-23.5 -83.5t-40 -55t-56.5 -19.5q-27 0 -47 12t-32 38h-3q-13 -22 -33 -36t-45 -14q-53 0 -82.5 52t-29.5 141
q0 68 19.5 118.5t56.5 78.5t87 28q28 0 56.5 -8t52.5 -19l-9 -199q-1 -10 -1 -22.5v-18.5q0 -30 3 -46t12 -16q11 0 18 21.5t11 59t4 84.5q0 131 -41.5 196t-115.5 65q-54 0 -97.5 -39t-69 -113t-25.5 -178q0 -81 19 -146.5t60.5 -103t109.5 -37.5q32 0 69.5 11t77.5 34v-93
q-34 -21 -74 -31.5t-76 -10.5zM261 196q18 0 26.5 32.5t12.5 116.5l4 88q-4 1 -7.5 1.5t-8.5 0.5q-19 0 -33 -16.5t-21 -47t-7 -72.5q0 -51 9 -77t25 -26z" />
    <glyph glyph-name="A" unicode="A" 
d="M5 0l145 716h226l149 -716h-157l-76 434q-3 23 -8.5 52t-10 57.5t-7.5 49.5q-3 -21 -8 -49.5t-10 -57.5t-9 -52l-77 -434h-157zM140 153l7 136h243l5 -136h-255z" />
    <glyph glyph-name="B" unicode="B" 
d="M49 0v714h211q116 0 173.5 -43.5t57.5 -132.5q0 -64 -27 -105.5t-67 -53.5v-5q35 -10 58.5 -31.5t35.5 -53.5t12 -74q0 -68 -28.5 -116t-79.5 -73.5t-121 -25.5h-225zM264 137q46 0 66 22.5t20 61.5q0 27 -9 46t-29 29t-51 10h-59v-169h62zM256 430q39 0 61.5 20.5
t22.5 55.5q0 36 -22.5 53.5t-64.5 17.5h-51v-147h54z" />
    <glyph glyph-name="C" unicode="C" 
d="M309 -10q-91 0 -152.5 42t-92.5 121.5t-31 190.5q0 87 20 158t58 120.5t92.5 76t124.5 26.5q55 0 97.5 -12t83.5 -36l-45 -134q-30 21 -61 29t-58 8q-39 0 -67.5 -16t-46.5 -46t-27 -72.5t-9 -95.5q0 -73 16 -121t47.5 -71.5t77.5 -23.5q38 0 76 13t72 33v-150
q-38 -20 -84 -30t-91 -10z" />
    <glyph glyph-name="D" unicode="D" 
d="M29 0v714h207q89 0 150.5 -41.5t94 -117.5t32.5 -183q0 -117 -36.5 -200.5t-100 -127.5t-145.5 -44h-202zM219 141q68 0 99.5 59t31.5 159q0 73 -14 120t-41 70.5t-68 23.5h-41v-432h33z" />
    <glyph glyph-name="E" unicode="E" 
d="M49 0v714h435v-144h-275v-135h260v-143h-260v-149h275v-143h-435z" />
    <glyph glyph-name="F" unicode="F" 
d="M49 0v714h435v-143h-275v-163h259v-143h-259v-265h-160z" />
    <glyph glyph-name="G" unicode="G" 
d="M320 -10q-103 0 -170.5 40.5t-100.5 119t-33 191.5q0 124 36.5 209.5t106 130t165.5 44.5q56 0 98.5 -13t75.5 -32l-45 -131q-30 18 -57.5 25.5t-56.5 7.5q-55 0 -91.5 -26t-54 -78.5t-17.5 -130.5q0 -62 14 -110t41.5 -75.5t70.5 -27.5q12 0 26.5 2t25.5 6v136h-66v138
h212v-384q-45 -23 -90 -32.5t-90 -9.5z" />
    <glyph glyph-name="H" unicode="H" 
d="M29 0v714h161v-273h150v273h160v-714h-160v298h-150v-298h-161z" />
    <glyph glyph-name="I" unicode="I" 
d="M59 0v118l129 15v448l-129 15v118h411v-118l-125 -15v-448l125 -15v-118h-411z" />
    <glyph glyph-name="J" unicode="J" 
d="M185 -9q-32 0 -67.5 4t-70.5 14v139q38 -10 68 -13.5t46 -3.5q45 0 75 16t45.5 50.5t15.5 89.5v427h158v-460q0 -81 -29 -140t-88.5 -91t-152.5 -32z" />
    <glyph glyph-name="K" unicode="K" 
d="M29 0v714h158v-333q12 27 25.5 54t25.5 53l107 226h174l-162 -323l159 -391h-181l-98 265l-50 -44v-221h-158z" />
    <glyph glyph-name="L" unicode="L" 
d="M61 0v714h161v-570h262v-144h-423z" />
    <glyph glyph-name="M" unicode="M" 
d="M16 0v714h215l35 -420h3l32 420h212v-714h-136l1 159q0 13 2.5 48t5.5 81.5t6.5 96t7 93.5t6 73.5t2.5 35.5h-8l-54 -417h-158l-54 417h-8q0 -6 2 -36t5 -74t6 -93t6 -95.5t5 -81.5t2 -49l2 -158h-138z" />
    <glyph glyph-name="N" unicode="N" 
d="M29 0v714h223l112 -569h6q-2 31 -5 65t-5 68.5t-3.5 66t-1.5 56.5v313h145v-714h-217l-118 573h-6q2 -43 5 -78.5t5 -66t4 -58.5t2 -55v-315h-146z" />
    <glyph glyph-name="O" unicode="O" 
d="M264 -8q-64 0 -110.5 24t-77 70.5t-45.5 115t-15 157.5q0 116 26 197.5t80.5 125t141.5 43.5q65 0 112 -24t77.5 -71t45 -115.5t14.5 -156.5t-14.5 -156t-45 -115t-77.5 -71t-112 -24zM266 136q34 0 52 27t25 77t7 119q0 110 -17 165.5t-67 55.5q-33 0 -51.5 -25.5
t-26.5 -75t-8 -120.5q0 -70 8 -120t27 -76.5t51 -26.5z" />
    <glyph glyph-name="P" unicode="P" 
d="M49 0v714h222q119 0 175.5 -59t56.5 -169q0 -69 -23.5 -124.5t-75 -87t-137.5 -31.5h-60v-243h-158zM251 378q34 0 55.5 11.5t31.5 34.5t10 56q0 50 -22 75t-66 25h-53v-202h44z" />
    <glyph glyph-name="Q" unicode="Q" 
d="M345 -180l-77 208l126 72l119 -280h-168zM264 -8q-64 0 -110.5 24t-77 70.5t-45.5 115t-15 157.5q0 116 26 197.5t80.5 125t141.5 43.5q65 0 112 -24t77.5 -71t45 -115.5t14.5 -156.5t-14.5 -156t-45 -115t-77.5 -71t-112 -24zM266 136q34 0 52 27t25 77t7 119
q0 110 -17 165.5t-67 55.5q-33 0 -51.5 -25.5t-26.5 -75t-8 -120.5q0 -70 8 -120t27 -76.5t51 -26.5z" />
    <glyph glyph-name="R" unicode="R" 
d="M49 0v714h193q84 0 139 -23.5t82.5 -70t27.5 -116.5q0 -45 -10 -81.5t-32 -65.5t-57 -52l133 -305h-175l-95 260h-49v-260h-157zM239 399q31 0 52 10t32.5 30.5t11.5 51.5q0 42 -22 63t-72 21h-35v-176h33z" />
    <glyph glyph-name="S" unicode="S" 
d="M239 -10q-48 0 -93 10t-94 35v162q46 -32 91.5 -48.5t93.5 -16.5q34 0 53.5 8.5t27.5 22.5t8 31q0 24 -13 39.5t-39 31.5t-67 41q-48 30 -83.5 60t-54.5 68t-19 91q0 62 26 106.5t77 68.5t127 24q57 0 105 -13t94 -38l-48 -134q-42 24 -76.5 33.5t-62.5 9.5
q-27 0 -44.5 -7t-26 -20.5t-8.5 -31.5t10 -31.5t33 -28.5t61 -38q56 -34 94 -64t57.5 -67t19.5 -94q0 -50 -15.5 -89.5t-46 -66t-77.5 -40.5t-110 -14z" />
    <glyph glyph-name="T" unicode="T" 
d="M185 0v571h-169v143h497v-143h-168v-571h-160z" />
    <glyph glyph-name="U" unicode="U" 
d="M264 -10q-81 0 -133.5 31t-77 93.5t-24.5 157.5v442h161v-428q0 -54 6 -87.5t22 -48t45 -14.5q32 0 48.5 15.5t22 49t5.5 86.5v427h161v-439q0 -94 -24 -157.5t-76 -95.5t-136 -32z" />
    <glyph glyph-name="V" unicode="V" 
d="M163 0l-158 714h162l74 -410q4 -20 8 -50.5t8.5 -61t7.5 -54.5h3q3 24 7 54.5l8 61t8 50.5l69 410h165l-160 -714h-202z" />
    <glyph glyph-name="W" unicode="W" 
d="M42 0l-37 714h130q3 -51 5 -93t4 -76.5t3.5 -65.5t1.5 -64q1 -17 1.5 -40t0.5 -49.5t1 -57t1 -62.5t1 -65h5q2 23 5.5 54t7 63.5t6.5 62t5 48.5l18 184h128l19 -185q3 -23 6 -53t6 -61.5t5.5 -61.5t4.5 -52h6q0 35 0.5 67.5t1 62.5t1 57t0.5 50.5t1 41.5q1 28 1.5 53.5
t1.5 52t2.5 55t3.5 61.5t3 73h133l-38 -714h-190l-14 179q-2 27 -5 64l-6 74t-4 62h-5q-2 -25 -4 -62t-5 -74t-5 -64l-14 -179h-193z" />
    <glyph glyph-name="X" unicode="X" 
d="M8 0l164 363l-156 351h173l75 -214l72 214h173l-154 -352l167 -362h-176l-83 228l-86 -228h-169z" />
    <glyph glyph-name="Y" unicode="Y" 
d="M186 0v276l-178 438h173l85 -266l84 266h172l-180 -437v-277h-156z" />
    <glyph glyph-name="Z" unicode="Z" 
d="M49 0v115l262 458h-254v141h429v-115l-253 -456h255v-143h-439z" />
    <glyph glyph-name="bracketleft" unicode="[" 
d="M186 -167v899h243v-116h-102v-667h102v-116h-243z" />
    <glyph glyph-name="backslash" unicode="\" 
d="M472 -9h-136l-278 732h136z" />
    <glyph glyph-name="bracketright" unicode="]" 
d="M346 732v-899h-243v117h102v666h-102v116h243z" />
    <glyph glyph-name="asciicircum" unicode="^" 
d="M16 258l208 457h77l213 -457h-141l-110 262l-107 -262h-140z" />
    <glyph glyph-name="underscore" unicode="_" 
d="M0 -193v133h530v-133h-530z" />
    <glyph glyph-name="grave" unicode="`" 
d="M271 606q-14 12 -34.5 31.5t-43 42t-42 43.5t-30.5 34v9h172q10 -20 26.5 -49t33.5 -55.5t27 -42.5v-13h-109z" />
    <glyph glyph-name="a" unicode="a" 
d="M200 -10q-79 0 -119.5 48t-40.5 126q0 64 24.5 103.5t69 59t103.5 21.5l96 3v13q0 33 -21.5 47.5t-60.5 14.5q-30 0 -61 -8.5t-62 -24.5l-52 120q45 25 93.5 37.5t102.5 12.5q106 0 159.5 -47.5t53.5 -140.5v-375h-120l-20 71h-3q-19 -30 -42.5 -48t-48.5 -25.5t-51 -7.5
zM250 127q23 0 41.5 9.5t30 29t11.5 47.5v33l-49 -2q-29 0 -50 -7.5t-32 -21t-11 -35.5q0 -28 16.5 -40.5t42.5 -12.5z" />
    <glyph glyph-name="b" unicode="b" 
d="M321 -10q-34 0 -66.5 15t-59.5 51h-10l-21 -56h-126v760h157v-182q0 -22 -2 -43t-5 -52h6q22 42 57.5 61t74.5 19q47 0 81.5 -22.5t56.5 -62.5t32.5 -91t10.5 -108q0 -63 -13 -116.5t-37 -92t-58 -59.5t-78 -21zM267 129q39 0 57 37t18 112t-18 110t-56 35
q-39 0 -57.5 -35.5t-18.5 -110.5q0 -77 18.5 -112.5t56.5 -35.5z" />
    <glyph glyph-name="c" unicode="c" 
d="M309 -10q-78 0 -136 30.5t-91 94t-33 159.5q0 82 27 147.5t85 103.5t150 38q47 0 93 -10.5t83 -31.5l-48 -128q-29 15 -56.5 22.5t-56.5 7.5q-39 0 -64 -17t-37.5 -49t-12.5 -78q0 -54 15 -87t42 -48t62 -15q29 0 66 10.5t71 39.5v-150q-34 -21 -76.5 -30t-82.5 -9z" />
    <glyph glyph-name="d" unicode="d" 
d="M205 -10q-47 0 -81.5 22t-57 60.5t-33 90.5t-10.5 112q0 85 21 150t62.5 101.5t102.5 36.5q26 0 50 -8t44 -25.5t35 -46.5h8q-3 19 -5.5 38t-4 38t-1.5 38v163h157v-760h-128l-18 72h-8q-14 -28 -34.5 -46.5t-45 -27t-53.5 -8.5zM262 129q38 0 58.5 31t20.5 99v15
q0 53 -7 86t-23 48t-45 15q-43 0 -62.5 -38.5t-19.5 -109.5q0 -75 19.5 -110.5t58.5 -35.5z" />
    <glyph glyph-name="e" unicode="e" 
d="M295 -10q-87 0 -146 33t-89.5 96.5t-30.5 155.5q0 87 28 152t82.5 100.5t135.5 35.5q69 0 119.5 -29t78 -87t27.5 -145v-81h-311q1 -33 19 -54.5t46.5 -31.5t61.5 -10q49 0 88.5 11t69.5 30v-137q-34 -18 -79.5 -28.5t-99.5 -10.5zM349 331q-1 35 -10 57t-26 32.5
t-41 10.5q-40 0 -60.5 -26t-22.5 -74h160z" />
    <glyph glyph-name="f" unicode="f" 
d="M163 0v417h-129v88l129 47v30q0 60 21.5 101t67.5 62t116 21q33 0 69.5 -6t75.5 -21l-42 -129q-23 10 -42 13t-34 3q-36 0 -53.5 -14t-17.5 -46v-13h149v-136h-149v-417h-161z" />
    <glyph glyph-name="g" unicode="g" 
d="M223 -245q-48 0 -88 9t-83 30v141q48 -24 88.5 -33t73.5 -9q58 0 89.5 23.5t31.5 75.5v13v32t1 29h-5q-24 -44 -54 -60t-68 -16q-89 0 -137.5 76t-48.5 208q0 136 50 212.5t136 76.5q40 0 69.5 -18t55.5 -62h8l21 70h129v-533q0 -85 -28 -144.5t-87 -90t-154 -30.5z
M266 129q19 0 32.5 7t22.5 22t13.5 40t4.5 60v16q0 54 -6 86.5t-21.5 47.5t-42.5 15q-43 0 -61 -38.5t-18 -113.5q0 -68 16.5 -105t59.5 -37z" />
    <glyph glyph-name="h" unicode="h" 
d="M38 0v760h161v-132q0 -36 -3 -72.5t-9 -71.5h9q14 25 33 43t44.5 27t58.5 9q80 0 122.5 -53.5t42.5 -149.5v-360h-161v306q0 53 -10.5 83t-52.5 30q-28 0 -44 -16.5t-23 -50t-7 -85.5v-267h-161z" />
    <glyph glyph-name="i" unicode="i" 
d="M36 0v117l161 17v283l-126 13v123h285v-419l137 -17v-117h-457zM277 606q-46 0 -70 21.5t-24 63.5q0 41 23.5 62.5t70.5 21.5q48 0 70 -21.5t22 -62.5q0 -40 -21.5 -62.5t-70.5 -22.5z" />
    <glyph glyph-name="j" unicode="j" 
d="M185 -245q-33 0 -77 5.5t-82 18.5v134q23 -6 48.5 -10.5t48 -6.5t34.5 -2q33 0 50 10t23.5 34t6.5 65v414l-154 12v124h313v-586q0 -107 -47 -159.5t-164 -52.5zM309 606q-46 0 -70.5 21.5t-24.5 63.5q0 41 23.5 62.5t71.5 21.5t71 -21.5t23 -62.5q0 -40 -23 -62.5
t-71 -22.5z" />
    <glyph glyph-name="k" unicode="k" 
d="M36 0v760h158v-304q0 -23 -1.5 -49t-3.5 -52.5t-5 -49.5h3q14 23 27 45t29 46l100 157h179l-168 -255l171 -298h-183l-99 197l-49 -35v-162h-158z" />
    <glyph glyph-name="l" unicode="l" 
d="M36 0v116l156 18v495l-127 11v120h286v-626l142 -18v-116h-457z" />
    <glyph glyph-name="m" unicode="m" 
d="M16 0v553h111l18 -63h6q9 27 21.5 43t30 23t40.5 7q40 0 57 -22.5t24 -61.5h5q15 38 37 61t61 23q40 0 58.5 -24.5t23 -71t4.5 -111.5v-356h-130v378q0 22 -2.5 35t-7.5 18.5t-15 5.5q-13 0 -19 -7t-8.5 -21t-2.5 -32v-377h-126v376q0 23 -1.5 36t-7 19t-14.5 6
q-14 0 -20.5 -7.5t-9 -21t-2.5 -32.5v-376h-131z" />
    <glyph glyph-name="n" unicode="n" 
d="M38 0v553h128l19 -64h7q14 23 33 39.5t45 25.5t60 9q81 0 124 -50.5t43 -152.5v-360h-161v322q0 59 -15 82.5t-45 23.5q-42 0 -59.5 -35.5t-17.5 -112.5v-280h-161z" />
    <glyph glyph-name="o" unicode="o" 
d="M266 -10q-65 0 -111.5 23t-75.5 63.5t-42.5 93t-13.5 110.5q0 79 25.5 143.5t78.5 102t136 37.5q75 0 130 -34t84.5 -98t29.5 -155q0 -56 -12.5 -107.5t-40 -92t-74 -63.5t-114.5 -23zM265 129q29 0 46.5 17t25 50.5t7.5 81.5q0 47 -8 79.5t-25.5 49t-45.5 16.5
q-42 0 -60.5 -37.5t-18.5 -107.5q0 -48 8 -81.5t25.5 -50.5t45.5 -17z" />
    <glyph glyph-name="p" unicode="p" 
d="M38 -240v793h119l27 -73h8q15 28 34 46.5t45.5 27.5t58.5 9q47 0 80.5 -23t55 -63t31.5 -91t10 -106q0 -89 -23.5 -154.5t-65.5 -100.5t-95 -35q-27 0 -50 7t-42 21.5t-36 37.5h-9q2 -15 5.5 -49t3.5 -66v-181h-157zM273 129q38 0 53.5 37.5t15.5 111.5q0 73 -15.5 109
t-55.5 36q-34 0 -55 -29.5t-21 -100.5v-16q0 -82 20.5 -115t57.5 -33z" />
    <glyph glyph-name="q" unicode="q" 
d="M335 -38q0 20 1.5 38.5t4 36t5.5 35.5h-8q-20 -42 -57 -62t-80 -20q-46 0 -80 23.5t-55.5 63t-32 90.5t-10.5 107q0 63 12.5 116t36.5 91.5t58.5 60t78.5 21.5q34 0 69 -17t60 -62h8l20 69h126v-793h-157v202zM265 129q41 0 58.5 31t17.5 98v16q0 78 -16.5 113.5
t-58.5 35.5q-40 0 -58 -37.5t-18 -111.5t17 -109.5t58 -35.5z" />
    <glyph glyph-name="r" unicode="r" 
d="M26 0v117l120 17v283l-105 13v123h217l18 -91h8q14 43 49 72t90 29q16 0 41 -3.5t55 -15.5l-40 -162q-16 8 -38.5 12t-38.5 4q-34 0 -58 -15t-36.5 -43.5t-12.5 -71.5v-134l139 -17v-117h-408z" />
    <glyph glyph-name="s" unicode="s" 
d="M238 -10q-49 0 -92 8t-83 24v147q41 -21 90.5 -32.5t91.5 -11.5q38 0 54.5 9t16.5 25q0 14 -12 24t-37.5 21.5t-67.5 29.5q-43 19 -73 43t-45 54.5t-15 67.5q0 53 25 89.5t74 55.5t119 19q49 0 96.5 -10t97.5 -33l-50 -126q-39 20 -72.5 28t-62.5 8q-33 0 -48 -8.5
t-15 -22.5q0 -12 11 -21t34.5 -18.5t59.5 -26.5q50 -23 81 -44.5t45.5 -49t14.5 -69.5q0 -57 -25 -97.5t-77.5 -61.5t-135.5 -21z" />
    <glyph glyph-name="t" unicode="t" 
d="M335 -10q-63 0 -106.5 22t-66 68t-22.5 114v223h-126v77l139 58l41 129h107v-128h194v-136h-194v-195q0 -40 13 -59t32.5 -24.5t38.5 -5.5q22 0 50 4.5t63 16.5v-136q-37 -14 -80 -21t-83 -7z" />
    <glyph glyph-name="u" unicode="u" 
d="M197 -10q-79 0 -121.5 50.5t-42.5 152.5v360h161v-311q0 -56 15 -84.5t51 -28.5q30 0 45 16t20.5 49.5t5.5 84.5v274h161v-553h-128l-19 69h-10q-13 -26 -33 -43.5t-45.5 -26.5t-59.5 -9z" />
    <glyph glyph-name="v" unicode="v" 
d="M167 0l-161 553h168l70 -309q8 -32 11.5 -53t7.5 -47h4q3 26 6.5 47t10.5 52l68 310h171l-169 -553h-187z" />
    <glyph glyph-name="w" unicode="w" 
d="M59 0l-59 553h141l5 -256q0 -17 0.5 -39t0.5 -44.5v-39.5h6q1 14 2.5 29t4 32t5.5 34l39 212h122l36 -212q3 -19 5 -35t4 -30.5t4 -29.5h5q1 19 1 40t0.5 42.5t0.5 38.5l7 258h138l-59 -553h-169l-20 152q-4 37 -7.5 75.5t-5.5 69.5h-6q-1 -31 -5.5 -69.5t-10.5 -75.5
l-21 -152h-164z" />
    <glyph glyph-name="x" unicode="x" 
d="M6 0l153 282l-148 271h183l71 -150l70 150h183l-148 -271l153 -282h-184l-77 161l-74 -161h-182z" />
    <glyph glyph-name="y" unicode="y" 
d="M100 -245q-18 0 -35.5 2t-35.5 6v130q11 -3 22.5 -4.5t22.5 -1.5q23 0 46.5 7t44.5 28t33 63l6 17l-198 551h177l70 -262q8 -27 12 -48.5t7 -42.5h4q2 13 4.5 28t6 31t6.5 32l58 262h172l-181 -597q-21 -72 -54 -116.5t-79.5 -64.5t-108.5 -20z" />
    <glyph glyph-name="z" unicode="z" 
d="M48 0v100l231 318h-222v135h413v-113l-220 -304h232v-136h-434z" />
    <glyph glyph-name="braceleft" unicode="{" 
d="M430 -167q-85 0 -135 14.5t-71.5 51t-21.5 100.5v133q0 41 -25.5 63t-77.5 22v122q52 0 77.5 21t25.5 64v134q0 60 19 96t68.5 52.5t140.5 16.5v-121q-25 -1 -44 -5t-29.5 -15.5t-10.5 -37.5v-139q0 -57 -23 -86.5t-72 -37.5v-6q50 -9 72.5 -38t22.5 -83v-141
q0 -33 19 -45t65 -14v-121z" />
    <glyph glyph-name="bar" unicode="|" 
d="M200 -240v1000h130v-1000h-130z" />
    <glyph glyph-name="braceright" unicode="}" 
d="M99 723q86 0 135.5 -14.5t71 -50.5t21.5 -101v-133q0 -41 26 -63t77 -22v-122q-51 0 -77 -21t-26 -64v-134q0 -59 -19 -95.5t-68 -53t-141 -16.5v121q26 1 45 5t29 16t10 37v139q0 57 23 86.5t72 37.5v6q-50 9 -72.5 38.5t-22.5 82.5v141q0 33 -19 45.5t-65 13.5v121z
" />
    <glyph glyph-name="asciitilde" unicode="~" 
d="M51 261q0 41 6.5 76.5t21 62t38 41t58.5 14.5q20 0 37.5 -5.5t37 -20t45.5 -41.5q25 -28 38.5 -38.5t29.5 -10.5q23 0 34 26t11 90h77q0 -42 -6 -78t-20 -62t-37 -40t-59 -14q-19 0 -36 5t-36 19t-46 41q-27 29 -40.5 40t-28.5 11q-23 0 -36 -26.5t-13 -89.5h-76z" />
    <glyph glyph-name="uni00A0" unicode="&#xa0;" 
 />
    <glyph glyph-name="exclamdown" unicode="&#xa1;" 
d="M330 284l24 -469h-182l23 469h135zM263 540q40 0 65 -22t25 -67q0 -44 -24 -66.5t-66 -22.5q-40 0 -64 22t-24 67t24.5 67t63.5 22z" />
    <glyph glyph-name="cent" unicode="&#xa2;" 
d="M266 82q-68 7 -113 42.5t-67 95.5t-23 142q1 80 24 140t68 97t111 45v80h85v-76q32 -3 66.5 -12.5t60.5 -26.5l-41 -122q-24 16 -52.5 24t-52.5 8q-36 0 -63 -15.5t-40.5 -50t-13.5 -91.5q0 -55 12.5 -89t38.5 -49t64 -15q33 0 69 12t66 34v-130q-22 -17 -53 -28t-61 -15
v-92h-85v92z" />
    <glyph glyph-name="sterling" unicode="&#xa3;" 
d="M61 132q24 15 39 30t22.5 36t7.5 54v58h-68v115h68v89q0 104 55.5 157t153.5 53q42 0 80 -10t74 -30l-42 -126q-28 14 -50.5 21t-44.5 7q-28 0 -49 -18.5t-21 -65.5v-77h133v-115h-133v-57q0 -27 -8 -48.5t-24 -37.5t-38 -29h270v-138h-425v132z" />
    <glyph glyph-name="currency" unicode="&#xa4;" 
d="M364 189q-23 -13 -48.5 -19.5t-51.5 -6.5q-29 0 -54 6.5t-47 18.5l-62 -62l-72 72l64 63q-14 23 -21 47.5t-7 52.5q0 26 7 50.5t21 48.5l-65 64l73 73l63 -64q23 14 48.5 20.5t51.5 6.5q27 0 52 -7t48 -21l65 65l73 -70l-65 -66q13 -22 20 -47t7 -53t-7 -53t-20 -48
l63 -63l-71 -72zM264 264q30 0 52 13t34.5 35.5t12.5 51.5q0 28 -12.5 49.5t-34.5 33.5t-52 12q-28 0 -50 -12t-34.5 -34.5t-12.5 -51.5q0 -28 12.5 -49.5t34.5 -34.5t50 -13z" />
    <glyph glyph-name="yen" unicode="&#xa5;" 
d="M188 0v106h-127v96h127v63h-127v97h100l-145 352h165l84 -258l82 258h167l-148 -352h102v-97h-125v-63h125v-96h-125v-106h-155z" />
    <glyph glyph-name="brokenbar" unicode="&#xa6;" 
d="M200 361v398h130v-398h-130zM200 -230v398h130v-398h-130z" />
    <glyph glyph-name="section" unicode="&#xa7;" 
d="M232 -9q-46 0 -85.5 10t-71.5 31v112q23 -14 50.5 -26t55.5 -19t52 -7q35 0 55 13t20 39q0 15 -7.5 25.5t-25 21.5t-47.5 25q-46 23 -80 45.5t-52 51t-18 70.5q0 39 20.5 68.5t61.5 52.5q-32 24 -48.5 55t-16.5 66q0 65 54 103t140 38q45 0 85 -10t79 -30l-41 -102
q-31 19 -62.5 29.5t-60.5 10.5t-45 -10t-16 -30q0 -17 10 -29.5t28 -22.5t41 -21q50 -23 83 -45t49.5 -49.5t16.5 -66.5q0 -43 -19 -72.5t-55 -54.5q29 -22 43 -52t14 -64q0 -71 -55 -113.5t-152 -42.5zM303 310q15 10 22.5 24t7.5 33q0 18 -8.5 33.5t-29.5 29.5t-57 30
q-18 -8 -27.5 -22t-9.5 -34q0 -15 7.5 -28t24 -25.5t42.5 -26.5z" />
    <glyph glyph-name="dieresis" unicode="&#xa8;" 
d="M366 613q-31 0 -50.5 19t-19.5 54q0 37 19.5 56t50.5 19q33 0 52.5 -20t19.5 -55t-19.5 -54t-52.5 -19zM162 613q-30 0 -50 18.5t-20 54.5q0 37 20 56t50 19q32 0 52 -20t20 -55t-20 -54t-52 -19z" />
    <glyph glyph-name="copyright" unicode="&#xa9;" 
d="M266 111q-75 0 -131 32.5t-87.5 89t-31.5 127.5q0 78 34.5 133t91.5 85t123 30q69 0 125.5 -31t89.5 -86.5t33 -130.5q0 -77 -34 -133t-90 -86t-123 -30zM265 208q-66 0 -103 39.5t-37 113.5q0 70 36.5 109.5t100.5 39.5q27 0 52 -5.5t50 -17.5l-28 -64q-17 8 -33.5 11.5
t-33.5 3.5q-28 0 -46 -20t-18 -58q0 -42 17.5 -61t47.5 -19q21 0 41 5.5t40 15.5v-73q-20 -10 -41.5 -15t-44.5 -5zM265 174q52 0 91.5 23.5t63 65.5t23.5 97q0 59 -24.5 100t-64.5 63t-89 22q-52 0 -92.5 -23t-63.5 -64.5t-23 -96.5q0 -61 24 -102.5t65 -63t90 -21.5z" />
    <glyph glyph-name="ordfeminine" unicode="&#xaa;" 
d="M222 361q-48 0 -75 29.5t-27 80.5q0 45 20.5 69.5t54 35t73.5 11.5l43 2v7q0 23 -11.5 33.5t-38.5 10.5q-23 0 -45 -7.5t-47 -19.5l-31 73q32 18 66.5 27.5t70.5 9.5q70 0 105 -35.5t35 -100.5v-220h-72l-19 57q-15 -27 -39 -45t-63 -18zM257 443q25 0 39.5 20t14.5 50
v14l-38 -3q-27 -2 -38.5 -13.5t-11.5 -31.5q0 -17 9 -26.5t25 -9.5z" />
    <glyph glyph-name="guillemotleft" unicode="&#xab;" 
d="M406 35l-158 226v14l158 227l110 -59l-106 -175l106 -174zM173 35l-159 226v14l159 227l109 -59l-106 -175l106 -174z" />
    <glyph glyph-name="logicalnot" unicode="&#xac;" 
d="M353 117v175h-303v122h427v-297h-124z" />
    <glyph glyph-name="uni00AD" unicode="&#xad;" 
d="M132 199v142h265v-142h-265z" />
    <glyph glyph-name="registered" unicode="&#xae;" 
d="M263 109q-72 0 -127 33t-86.5 89.5t-31.5 127.5q0 78 34.5 133t91 84.5t122.5 29.5q68 0 123.5 -30.5t89 -87t33.5 -131.5q0 -76 -34 -131.5t-91 -86t-124 -30.5zM264 173q53 0 92.5 23.5t62.5 65.5t23 97q0 57 -24.5 98.5t-65 63t-89.5 21.5q-50 0 -90 -23t-62.5 -64.5
t-22.5 -97.5q0 -58 24 -99t64.5 -63t87.5 -22zM167 227v268h88q55 0 81 -21t26 -63q0 -27 -10 -46.5t-34 -30.5l61 -107h-74l-47 94h-22v-94h-69zM250 374q20 0 31.5 8t11.5 27q0 16 -10 22.5t-33 6.5h-14v-64h14z" />
    <glyph glyph-name="overscore" unicode="&#xaf;" 
d="M110 635v105h296v-105h-296z" />
    <glyph glyph-name="degree" unicode="&#xb0;" 
d="M264 415q-43 0 -78.5 19t-56 54t-20.5 82t21 81t56.5 53.5t77.5 19.5q44 0 79 -19.5t56 -54t21 -81.5t-21 -81.5t-56.5 -53.5t-78.5 -19zM264 505q28 0 46.5 17.5t18.5 46.5q0 31 -19 48t-46 17t-45 -17.5t-18 -46.5q0 -30 18 -47.5t45 -17.5z" />
    <glyph glyph-name="plusminus" unicode="&#xb1;" 
d="M203 164v179h-154v123h154v182h125v-182h153v-123h-153v-179h-125zM49 0v122h432v-122h-432z" />
    <glyph glyph-name="uni00B2" unicode="&#xb2;" 
d="M126 415v96l93 99q27 29 43 49t22.5 35.5t6.5 28.5q0 18 -10 27.5t-32 9.5q-20 0 -38 -9.5t-38 -32.5l-53 72q20 25 58.5 45t90.5 20q65 0 100.5 -33t35.5 -87q0 -35 -15.5 -65.5t-46.5 -64t-76 -80.5l-14 -14h166v-96h-293z" />
    <glyph glyph-name="uni00B3" unicode="&#xb3;" 
d="M254 407q-38 0 -70 8.5t-57 25.5v103q25 -20 56 -29.5t63 -9.5q35 0 48.5 10.5t13.5 30.5q0 21 -15.5 32.5t-50.5 11.5h-47v84h38q34 0 50.5 12t16.5 35q0 18 -11 29t-36 11q-22 0 -41.5 -8.5t-42.5 -28.5l-48 72q31 28 67.5 42.5t78.5 14.5q60 0 98 -28.5t38 -79.5
q0 -35 -17.5 -62t-54.5 -42v-4q38 -11 61 -36.5t23 -68.5q0 -59 -45 -92t-116 -33z" />
    <glyph glyph-name="acute" unicode="&#xb4;" 
d="M162 619q17 26 32.5 51t29.5 49.5t25 46.5h172v-9q-15 -18 -41.5 -45.5t-55.5 -55.5t-54 -50h-108v13z" />
    <glyph glyph-name="uni00B5" unicode="&#xb5;" 
d="M33 -240v467h157v-467h-157zM197 -10q-79 0 -121.5 50.5t-42.5 152.5v360h161v-311q0 -56 15 -84.5t51 -28.5q30 0 45 16t20.5 49.5t5.5 84.5v274h161v-553h-128l-19 69h-10q-13 -26 -33 -43.5t-45.5 -26.5t-59.5 -9z" />
    <glyph glyph-name="paragraph" unicode="&#xb6;" 
d="M256 273q-10 -4 -21.5 -6.5t-25.5 -2.5q-58 0 -96.5 26.5t-57.5 81t-19 137.5q0 85 20.5 140.5t62 83t103.5 27.5h258v-887h-81v807h-62v-807h-81v400z" />
    <glyph glyph-name="periodcentered" unicode="&#xb7;" 
d="M266 252q-39 0 -64.5 22t-25.5 66q0 45 24.5 67.5t65.5 22.5q40 0 64 -22.5t24 -67.5q0 -44 -24 -66t-64 -22z" />
    <glyph glyph-name="cedilla" unicode="&#xb8;" 
d="M237 -240q-18 0 -39.5 2.5t-38.5 6.5v85q15 -4 28.5 -6t23.5 -2q22 0 33 8t11 23q0 19 -18 29.5t-51 13.5l34 81h79l-15 -37q42 -8 64.5 -31t22.5 -64q0 -49 -34 -79t-100 -30z" />
    <glyph glyph-name="uni00B9" unicode="&#xb9;" 
d="M238 606q0 25 1 60t2 62q-10 -8 -21.5 -16t-19.5 -13l-40 -27l-52 81l149 90h87v-428h-106v191zM139 415v80l131 11h47l119 -10v-81h-297z" />
    <glyph glyph-name="ordmasculine" unicode="&#xba;" 
d="M266 361q-73 0 -115.5 49t-42.5 132q0 85 43 132.5t115 47.5q46 0 81 -21t55 -61.5t20 -97.5q0 -85 -41.5 -133t-114.5 -48zM266 448q27 0 38 23t11 70q0 32 -5 53t-16 31t-28 10q-26 0 -39 -23t-13 -70q0 -48 13 -71t39 -23z" />
    <glyph glyph-name="guillemotright" unicode="&#xbb;" 
d="M124 504l158 -227v-14l-158 -227l-110 59l106 175l-106 175zM357 504l159 -227v-14l-159 -227l-109 59l106 175l-106 175z" />
    <glyph glyph-name="onequarter" unicode="&#xbc;" 
d="M10 110l395 458h124l-394 -458h-125zM29 386v66l99 9h28l84 -8v-67h-211zM383 0v54h-119v68l110 208h94v-204h45v-72h-45v-54h-85zM330 126h53v63v26.5t1 25.5q-4 -14 -11 -27.5t-10 -21.5zM97 528q0 17 0.5 41.5t1.5 44.5q-5 -4 -10.5 -10t-8.5 -8l-33 -21l-36 70
l108 69h60v-328h-82v142z" />
    <glyph glyph-name="onehalf" unicode="&#xbd;" 
d="M10 110l395 458h124l-394 -458h-125zM29 386v66l99 9h28l84 -8v-67h-211zM314 0l-1 75l64 81q17 21 26 34t12.5 22.5t3.5 19.5q0 14 -5 21.5t-18 7.5q-11 0 -22 -8t-25 -24l-43 58q17 22 45.5 36.5t66.5 14.5q46 0 68 -26t22 -67q0 -27 -12.5 -49t-32 -46t-40.5 -59
l-8 -12h109v-79h-210zM97 528q0 17 0.5 41.5t1.5 44.5q-5 -4 -10 -10t-9 -8l-32 -21l-37 70l108 69h60v-328h-82v142z" />
    <glyph glyph-name="threequarters" unicode="&#xbe;" 
d="M10 110l395 458h124l-394 -458h-125zM383 0v54h-119v68l110 208h94v-204h45v-72h-45v-54h-85zM330 126h53v63v26.5t1 25.5q-4 -14 -10.5 -28t-10.5 -21zM137 381q-29 0 -53.5 6.5t-42.5 19.5v84q18 -17 41.5 -25t45.5 -8q18 0 27 7.5t9 24.5q0 13 -6.5 21t-29.5 8h-30v70
h20q24 0 32.5 8t8.5 22q0 13 -5.5 21.5t-20.5 8.5t-29 -6.5t-29 -22.5l-37 60q21 20 48 31.5t58 11.5q43 0 68.5 -21.5t25.5 -59.5q0 -28 -10.5 -49t-35.5 -33v-3q55 -18 55 -80q0 -46 -31 -71t-79 -25z" />
    <glyph glyph-name="questiondown" unicode="&#xbf;" 
d="M350 244q0 -32 -6.5 -57t-22.5 -47t-44 -44q-23 -20 -35.5 -35.5t-17.5 -31t-5 -34.5q0 -26 15 -40.5t43 -14.5q30 0 61 13t68 38l54 -121q-47 -31 -95.5 -48t-100.5 -17q-64 0 -108.5 21.5t-67.5 61t-23 93.5q0 41 10.5 73t31.5 59.5t53 54.5q24 21 36 35.5t15.5 27
t3.5 29.5v24h135v-40zM282 540q40 0 65 -22t25 -66q0 -45 -24.5 -67.5t-65.5 -22.5q-40 0 -64 22t-24 68q0 44 24 66t64 22z" />
    <glyph glyph-name="Agrave" unicode="&#xc0;" 
d="M5 0l145 716h226l149 -716h-157l-76 434q-3 23 -8.5 52t-10 57.5t-7.5 49.5q-3 -21 -8 -49.5t-10 -57.5t-9 -52l-77 -434h-157zM140 153l7 136h243l5 -136h-255zM276 767q-14 12 -34.5 31.5t-43 42t-42 43.5t-30.5 34v9h172q10 -20 26.5 -49t33.5 -55.5t27 -42.5v-13
h-109z" />
    <glyph glyph-name="Aacute" unicode="&#xc1;" 
d="M5 0l145 716h226l149 -716h-157l-76 434q-3 23 -8.5 52t-10 57.5t-7.5 49.5q-3 -21 -8 -49.5t-10 -57.5t-9 -52l-77 -434h-157zM140 153l7 136h243l5 -136h-255zM195 780q17 26 32.5 51t29.5 49.5t25 46.5h172v-9q-15 -18 -41.5 -45.5t-55.5 -55.5t-54 -50h-108v13z" />
    <glyph glyph-name="Acircumflex" unicode="&#xc2;" 
d="M5 0l145 716h226l149 -716h-157l-76 434q-3 23 -8.5 52t-10 57.5t-7.5 49.5q-3 -21 -8 -49.5t-10 -57.5t-9 -52l-77 -434h-157zM140 153l7 136h243l5 -136h-255zM92 780q15 19 34.5 46t37.5 54.5t27 46.5h148q12 -22 28 -47t34.5 -50t36.5 -50v-13h-96q-18 14 -36.5 33
t-40.5 44q-23 -25 -41.5 -44.5t-34.5 -32.5h-97v13z" />
    <glyph glyph-name="Atilde" unicode="&#xc3;" 
d="M5 0l145 716h226l149 -716h-157l-76 434q-3 23 -8.5 52t-10 57.5t-7.5 49.5q-3 -21 -8 -49.5t-10 -57.5t-9 -52l-77 -434h-157zM140 153l7 136h243l5 -136h-255zM88 770q0 27 4.5 55t15.5 51.5t28.5 37.5t45.5 14q22 0 41.5 -7t36.5 -16.5t34 -17t33 -7.5q17 0 24 12
t11 37h80q-2 -80 -29 -119t-68 -39q-22 0 -41.5 7.5t-37.5 17t-34.5 16.5t-31.5 7q-13 0 -21 -10.5t-10 -38.5h-81z" />
    <glyph glyph-name="Adieresis" unicode="&#xc4;" 
d="M5 0l145 716h226l149 -716h-157l-76 434q-3 23 -8.5 52t-10 57.5t-7.5 49.5q-3 -21 -8 -49.5t-10 -57.5t-9 -52l-77 -434h-157zM140 153l7 136h243l5 -136h-255zM366 763q-31 0 -50.5 19t-19.5 54q0 37 19.5 56t50.5 19q33 0 52.5 -20t19.5 -55t-19.5 -54t-52.5 -19z
M162 763q-30 0 -50 18.5t-20 54.5q0 37 20 56t50 19q32 0 52 -20t20 -55t-20 -54t-52 -19z" />
    <glyph glyph-name="Aring" unicode="&#xc5;" 
d="M5 0l145 716h226l149 -716h-157l-76 434q-3 23 -8.5 52t-10 57.5t-7.5 49.5q-3 -21 -8 -49.5t-10 -57.5t-9 -52l-77 -434h-157zM140 153l7 136h243l5 -136h-255zM266 759q-60 0 -96 35t-36 92q0 56 36 91t96 35q56 0 92 -35.5t36 -90.5t-35 -91t-93 -36zM264 840
q21 0 34 12.5t13 33.5q0 20 -13 33t-34 13q-20 0 -33 -12.5t-13 -33.5t12.5 -33.5t33.5 -12.5z" />
    <glyph glyph-name="AE" unicode="&#xc6;" 
d="M5 0l139 714h372v-143h-105v-131h86v-142h-86v-155h105v-143h-244v577h-21l-98 -577h-148zM153 150l24 142h122l3 -142h-149z" />
    <glyph glyph-name="Ccedilla" unicode="&#xc7;" 
d="M309 -10q-91 0 -152.5 42t-92.5 121.5t-31 190.5q0 87 20 158t58 120.5t92.5 76t124.5 26.5q55 0 97.5 -12t83.5 -36l-45 -134q-30 21 -61 29t-58 8q-39 0 -67.5 -16t-46.5 -46t-27 -72.5t-9 -95.5q0 -73 16 -121t47.5 -71.5t77.5 -23.5q38 0 76 13t72 33v-150
q-38 -20 -84 -30t-91 -10zM297 -240q-18 0 -39.5 2.5t-38.5 6.5v85q15 -4 28.5 -6t23.5 -2q22 0 33 8t11 23q0 19 -18 29.5t-51 13.5l34 81h79l-15 -37q42 -8 64.5 -31t22.5 -64q0 -49 -34 -79t-100 -30z" />
    <glyph glyph-name="Egrave" unicode="&#xc8;" 
d="M49 0v714h435v-144h-275v-135h260v-143h-260v-149h275v-143h-435zM279 767q-14 12 -34.5 31.5t-43 42t-42 43.5t-30.5 34v9h172q10 -20 26.5 -49t33.5 -55.5t27 -42.5v-13h-109z" />
    <glyph glyph-name="Eacute" unicode="&#xc9;" 
d="M49 0v714h435v-144h-275v-135h260v-143h-260v-149h275v-143h-435zM199 780q17 26 32.5 51t29.5 49.5t25 46.5h172v-9q-15 -18 -41.5 -45.5t-55.5 -55.5t-54 -50h-108v13z" />
    <glyph glyph-name="Ecircumflex" unicode="&#xca;" 
d="M49 0v714h435v-144h-275v-135h260v-143h-260v-149h275v-143h-435zM95 780q15 19 34.5 46t37.5 54.5t27 46.5h148q12 -22 28 -47t34.5 -50t36.5 -50v-13h-96q-18 14 -36.5 33t-40.5 44q-23 -25 -41.5 -44.5t-34.5 -32.5h-97v13z" />
    <glyph glyph-name="Edieresis" unicode="&#xcb;" 
d="M49 0v714h435v-144h-275v-135h260v-143h-260v-149h275v-143h-435zM369 763q-31 0 -50.5 19t-19.5 54q0 37 19.5 56t50.5 19q33 0 52.5 -20t19.5 -55t-19.5 -54t-52.5 -19zM165 763q-30 0 -50 18.5t-20 54.5q0 37 20 56t50 19q32 0 52 -20t20 -55t-20 -54t-52 -19z" />
    <glyph glyph-name="Igrave" unicode="&#xcc;" 
d="M59 0v118l129 15v448l-129 15v118h411v-118l-125 -15v-448l125 -15v-118h-411zM276 767q-14 12 -34.5 31.5t-43 42t-42 43.5t-30.5 34v9h172q10 -20 26.5 -49t33.5 -55.5t27 -42.5v-13h-109z" />
    <glyph glyph-name="Iacute" unicode="&#xcd;" 
d="M59 0v118l129 15v448l-129 15v118h411v-118l-125 -15v-448l125 -15v-118h-411zM195 780q17 26 32.5 51t29.5 49.5t25 46.5h172v-9q-15 -18 -41.5 -45.5t-55.5 -55.5t-54 -50h-108v13z" />
    <glyph glyph-name="Icircumflex" unicode="&#xce;" 
d="M59 0v118l129 15v448l-129 15v118h411v-118l-125 -15v-448l125 -15v-118h-411zM92 780q15 19 34.5 46t37.5 54.5t27 46.5h148q12 -22 28 -47t34.5 -50t36.5 -50v-13h-96q-18 14 -36.5 33t-40.5 44q-23 -25 -41.5 -44.5t-34.5 -32.5h-97v13z" />
    <glyph glyph-name="Idieresis" unicode="&#xcf;" 
d="M59 0v118l129 15v448l-129 15v118h411v-118l-125 -15v-448l125 -15v-118h-411zM366 763q-31 0 -50.5 19t-19.5 54q0 37 19.5 56t50.5 19q33 0 52.5 -20t19.5 -55t-19.5 -54t-52.5 -19zM162 763q-30 0 -50 18.5t-20 54.5q0 37 20 56t50 19q32 0 52 -20t20 -55t-20 -54
t-52 -19z" />
    <glyph glyph-name="Eth" unicode="&#xd0;" 
d="M0 296v123h267v-123h-267zM36 0v714h207q89 0 150.5 -41.5t94 -117.5t32.5 -183q0 -117 -36.5 -200.5t-100 -127.5t-145.5 -44h-202zM226 141q68 0 99.5 59t31.5 159q0 73 -14 120t-41 70.5t-68 23.5h-41v-432h33z" />
    <glyph glyph-name="Ntilde" unicode="&#xd1;" 
d="M29 0v714h223l112 -569h6q-2 31 -5 65t-5 68.5t-3.5 66t-1.5 56.5v313h145v-714h-217l-118 573h-6q2 -43 5 -78.5t5 -66t4 -58.5t2 -55v-315h-146zM93 770q0 27 4.5 55t15.5 51.5t28.5 37.5t45.5 14q22 0 41.5 -7t36.5 -16.5t34 -17t33 -7.5q17 0 24 12t11 37h80
q-2 -80 -29 -119t-68 -39q-22 0 -41.5 7.5t-37.5 17t-34.5 16.5t-31.5 7q-13 0 -21 -10.5t-10 -38.5h-81z" />
    <glyph glyph-name="Ograve" unicode="&#xd2;" 
d="M264 -8q-64 0 -110.5 24t-77 70.5t-45.5 115t-15 157.5q0 116 26 197.5t80.5 125t141.5 43.5q65 0 112 -24t77.5 -71t45 -115.5t14.5 -156.5t-14.5 -156t-45 -115t-77.5 -71t-112 -24zM266 136q34 0 52 27t25 77t7 119q0 110 -17 165.5t-67 55.5q-33 0 -51.5 -25.5
t-26.5 -75t-8 -120.5q0 -70 8 -120t27 -76.5t51 -26.5zM276 767q-14 12 -34.5 31.5t-43 42t-42 43.5t-30.5 34v9h172q10 -20 26.5 -49t33.5 -55.5t27 -42.5v-13h-109z" />
    <glyph glyph-name="Oacute" unicode="&#xd3;" 
d="M264 -8q-64 0 -110.5 24t-77 70.5t-45.5 115t-15 157.5q0 116 26 197.5t80.5 125t141.5 43.5q65 0 112 -24t77.5 -71t45 -115.5t14.5 -156.5t-14.5 -156t-45 -115t-77.5 -71t-112 -24zM266 136q34 0 52 27t25 77t7 119q0 110 -17 165.5t-67 55.5q-33 0 -51.5 -25.5
t-26.5 -75t-8 -120.5q0 -70 8 -120t27 -76.5t51 -26.5zM195 780q17 26 32.5 51t29.5 49.5t25 46.5h172v-9q-15 -18 -41.5 -45.5t-55.5 -55.5t-54 -50h-108v13z" />
    <glyph glyph-name="Ocircumflex" unicode="&#xd4;" 
d="M264 -8q-64 0 -110.5 24t-77 70.5t-45.5 115t-15 157.5q0 116 26 197.5t80.5 125t141.5 43.5q65 0 112 -24t77.5 -71t45 -115.5t14.5 -156.5t-14.5 -156t-45 -115t-77.5 -71t-112 -24zM266 136q34 0 52 27t25 77t7 119q0 110 -17 165.5t-67 55.5q-33 0 -51.5 -25.5
t-26.5 -75t-8 -120.5q0 -70 8 -120t27 -76.5t51 -26.5zM92 780q15 19 34.5 46t37.5 54.5t27 46.5h148q12 -22 28 -47t34.5 -50t36.5 -50v-13h-96q-18 14 -36.5 33t-40.5 44q-23 -25 -41.5 -44.5t-34.5 -32.5h-97v13z" />
    <glyph glyph-name="Otilde" unicode="&#xd5;" 
d="M264 -8q-64 0 -110.5 24t-77 70.5t-45.5 115t-15 157.5q0 116 26 197.5t80.5 125t141.5 43.5q65 0 112 -24t77.5 -71t45 -115.5t14.5 -156.5t-14.5 -156t-45 -115t-77.5 -71t-112 -24zM266 136q34 0 52 27t25 77t7 119q0 110 -17 165.5t-67 55.5q-33 0 -51.5 -25.5
t-26.5 -75t-8 -120.5q0 -70 8 -120t27 -76.5t51 -26.5zM88 770q0 27 4.5 55t15.5 51.5t28.5 37.5t45.5 14q22 0 41.5 -7t36.5 -16.5t34 -17t33 -7.5q17 0 24 12t11 37h80q-2 -80 -29 -119t-68 -39q-22 0 -41.5 7.5t-37.5 17t-34.5 16.5t-31.5 7q-13 0 -21 -10.5t-10 -38.5
h-81z" />
    <glyph glyph-name="Odieresis" unicode="&#xd6;" 
d="M264 -8q-64 0 -110.5 24t-77 70.5t-45.5 115t-15 157.5q0 116 26 197.5t80.5 125t141.5 43.5q65 0 112 -24t77.5 -71t45 -115.5t14.5 -156.5t-14.5 -156t-45 -115t-77.5 -71t-112 -24zM266 136q34 0 52 27t25 77t7 119q0 110 -17 165.5t-67 55.5q-33 0 -51.5 -25.5
t-26.5 -75t-8 -120.5q0 -70 8 -120t27 -76.5t51 -26.5zM366 763q-31 0 -50.5 19t-19.5 54q0 37 19.5 56t50.5 19q33 0 52.5 -20t19.5 -55t-19.5 -54t-52.5 -19zM162 763q-30 0 -50 18.5t-20 54.5q0 37 20 56t50 19q32 0 52 -20t20 -55t-20 -54t-52 -19z" />
    <glyph glyph-name="multiply" unicode="&#xd7;" 
d="M134 141l-82 87l124 125l-124 125l83 87l127 -125l128 125l87 -84l-129 -128l127 -127l-85 -85l-128 127z" />
    <glyph glyph-name="Oslash" unicode="&#xd8;" 
d="M100 -46l-81 43l417 763l79 -42zM264 -8q-64 0 -110.5 24t-77 70.5t-45.5 115t-15 157.5q0 116 26 197.5t80.5 125t141.5 43.5q65 0 112 -24t77.5 -71t45 -115.5t14.5 -156.5t-14.5 -156t-45 -115t-77.5 -71t-112 -24zM266 136q34 0 52 27t25 77t7 119q0 110 -17 165.5
t-67 55.5q-33 0 -51.5 -25.5t-26.5 -75t-8 -120.5q0 -70 8 -120t27 -76.5t51 -26.5z" />
    <glyph glyph-name="Ugrave" unicode="&#xd9;" 
d="M264 -10q-81 0 -133.5 31t-77 93.5t-24.5 157.5v442h161v-428q0 -54 6 -87.5t22 -48t45 -14.5q32 0 48.5 15.5t22 49t5.5 86.5v427h161v-439q0 -94 -24 -157.5t-76 -95.5t-136 -32zM276 767q-14 12 -34.5 31.5t-43 42t-42 43.5t-30.5 34v9h172q10 -20 26.5 -49
t33.5 -55.5t27 -42.5v-13h-109z" />
    <glyph glyph-name="Uacute" unicode="&#xda;" 
d="M264 -10q-81 0 -133.5 31t-77 93.5t-24.5 157.5v442h161v-428q0 -54 6 -87.5t22 -48t45 -14.5q32 0 48.5 15.5t22 49t5.5 86.5v427h161v-439q0 -94 -24 -157.5t-76 -95.5t-136 -32zM195 780q17 26 32.5 51t29.5 49.5t25 46.5h172v-9q-15 -18 -41.5 -45.5t-55.5 -55.5
t-54 -50h-108v13z" />
    <glyph glyph-name="Ucircumflex" unicode="&#xdb;" 
d="M264 -10q-81 0 -133.5 31t-77 93.5t-24.5 157.5v442h161v-428q0 -54 6 -87.5t22 -48t45 -14.5q32 0 48.5 15.5t22 49t5.5 86.5v427h161v-439q0 -94 -24 -157.5t-76 -95.5t-136 -32zM92 780q15 19 34.5 46t37.5 54.5t27 46.5h148q12 -22 28 -47t34.5 -50t36.5 -50v-13h-96
q-18 14 -36.5 33t-40.5 44q-23 -25 -41.5 -44.5t-34.5 -32.5h-97v13z" />
    <glyph glyph-name="Udieresis" unicode="&#xdc;" 
d="M264 -10q-81 0 -133.5 31t-77 93.5t-24.5 157.5v442h161v-428q0 -54 6 -87.5t22 -48t45 -14.5q32 0 48.5 15.5t22 49t5.5 86.5v427h161v-439q0 -94 -24 -157.5t-76 -95.5t-136 -32zM366 763q-31 0 -50.5 19t-19.5 54q0 37 19.5 56t50.5 19q33 0 52.5 -20t19.5 -55
t-19.5 -54t-52.5 -19zM162 763q-30 0 -50 18.5t-20 54.5q0 37 20 56t50 19q32 0 52 -20t20 -55t-20 -54t-52 -19z" />
    <glyph glyph-name="Yacute" unicode="&#xdd;" 
d="M186 0v276l-178 438h173l85 -266l84 266h172l-180 -437v-277h-156zM195 780q17 26 32.5 51t29.5 49.5t25 46.5h172v-9q-15 -18 -41.5 -45.5t-55.5 -55.5t-54 -50h-108v13z" />
    <glyph glyph-name="Thorn" unicode="&#xde;" 
d="M49 0v714h158v-120h64q119 0 175.5 -59t56.5 -169q0 -69 -23.5 -124.5t-75 -87t-137.5 -31.5h-60v-123h-158zM251 258q34 0 55.5 11.5t31.5 34.5t10 56q0 50 -22 75t-66 25h-53v-202h44z" />
    <glyph glyph-name="germandbls" unicode="&#xdf;" 
d="M338 -10q-30 0 -59 6.5t-57 21.5v140q24 -19 47.5 -29t46.5 -10t35.5 11.5t12.5 38.5q0 7 -3 14.5t-13 20.5t-33 34q-20 21 -38 40t-28 43t-10 59q0 31 8 52.5t19 38t22 31.5t19 32t8 40q0 28 -14.5 45t-47.5 17q-26 0 -41.5 -13t-21.5 -39t-6 -66v-518h-150v542
q0 69 27.5 119t78.5 77t120 27q60 0 106.5 -20.5t73.5 -61t27 -100.5q0 -33 -7.5 -57.5t-18.5 -42.5t-22 -32.5t-18.5 -27t-7.5 -26.5q0 -9 5 -18t17 -21t30 -31q18 -16 35 -36.5t27.5 -50t10.5 -73.5q0 -58 -21 -97.5t-60.5 -59.5t-98.5 -20z" />
    <glyph glyph-name="agrave" unicode="&#xe0;" 
d="M200 -10q-79 0 -119.5 48t-40.5 126q0 64 24.5 103.5t69 59t103.5 21.5l96 3v13q0 33 -21.5 47.5t-60.5 14.5q-30 0 -61 -8.5t-62 -24.5l-52 120q45 25 93.5 37.5t102.5 12.5q106 0 159.5 -47.5t53.5 -140.5v-375h-120l-20 71h-3q-19 -30 -42.5 -48t-48.5 -25.5t-51 -7.5
zM250 127q23 0 41.5 9.5t30 29t11.5 47.5v33l-49 -2q-29 0 -50 -7.5t-32 -21t-11 -35.5q0 -28 16.5 -40.5t42.5 -12.5zM289 606q-14 12 -34.5 31.5t-43 42t-42 43.5t-30.5 34v9h172q10 -20 26.5 -49t33.5 -55.5t27 -42.5v-13h-109z" />
    <glyph glyph-name="aacute" unicode="&#xe1;" 
d="M200 -10q-79 0 -119.5 48t-40.5 126q0 64 24.5 103.5t69 59t103.5 21.5l96 3v13q0 33 -21.5 47.5t-60.5 14.5q-30 0 -61 -8.5t-62 -24.5l-52 120q45 25 93.5 37.5t102.5 12.5q106 0 159.5 -47.5t53.5 -140.5v-375h-120l-20 71h-3q-19 -30 -42.5 -48t-48.5 -25.5t-51 -7.5
zM250 127q23 0 41.5 9.5t30 29t11.5 47.5v33l-49 -2q-29 0 -50 -7.5t-32 -21t-11 -35.5q0 -28 16.5 -40.5t42.5 -12.5zM208 619q17 26 32.5 51t29.5 49.5t25 46.5h172v-9q-15 -18 -41.5 -45.5t-55.5 -55.5t-54 -50h-108v13z" />
    <glyph glyph-name="acircumflex" unicode="&#xe2;" 
d="M200 -10q-79 0 -119.5 48t-40.5 126q0 64 24.5 103.5t69 59t103.5 21.5l96 3v13q0 33 -21.5 47.5t-60.5 14.5q-30 0 -61 -8.5t-62 -24.5l-52 120q45 25 93.5 37.5t102.5 12.5q106 0 159.5 -47.5t53.5 -140.5v-375h-120l-20 71h-3q-19 -30 -42.5 -48t-48.5 -25.5t-51 -7.5
zM250 127q23 0 41.5 9.5t30 29t11.5 47.5v33l-49 -2q-29 0 -50 -7.5t-32 -21t-11 -35.5q0 -28 16.5 -40.5t42.5 -12.5zM105 619q15 19 34.5 46t37.5 54.5t27 46.5h148q12 -22 28 -47t34.5 -50t36.5 -50v-13h-96q-18 14 -36.5 33t-40.5 44q-23 -25 -41.5 -44.5t-34.5 -32.5
h-97v13z" />
    <glyph glyph-name="atilde" unicode="&#xe3;" 
d="M200 -10q-79 0 -119.5 48t-40.5 126q0 64 24.5 103.5t69 59t103.5 21.5l96 3v13q0 33 -21.5 47.5t-60.5 14.5q-30 0 -61 -8.5t-62 -24.5l-52 120q45 25 93.5 37.5t102.5 12.5q106 0 159.5 -47.5t53.5 -140.5v-375h-120l-20 71h-3q-19 -30 -42.5 -48t-48.5 -25.5t-51 -7.5
zM250 127q23 0 41.5 9.5t30 29t11.5 47.5v33l-49 -2q-29 0 -50 -7.5t-32 -21t-11 -35.5q0 -28 16.5 -40.5t42.5 -12.5zM101 609q0 27 4.5 55t15.5 51.5t28.5 37.5t45.5 14q22 0 41.5 -7t36.5 -16.5t34 -17t33 -7.5q17 0 24 12t11 37h80q-2 -80 -29 -119t-68 -39
q-22 0 -41.5 7.5t-37.5 17t-34.5 16.5t-31.5 7q-13 0 -21 -10.5t-10 -38.5h-81z" />
    <glyph glyph-name="adieresis" unicode="&#xe4;" 
d="M200 -10q-79 0 -119.5 48t-40.5 126q0 64 24.5 103.5t69 59t103.5 21.5l96 3v13q0 33 -21.5 47.5t-60.5 14.5q-30 0 -61 -8.5t-62 -24.5l-52 120q45 25 93.5 37.5t102.5 12.5q106 0 159.5 -47.5t53.5 -140.5v-375h-120l-20 71h-3q-19 -30 -42.5 -48t-48.5 -25.5t-51 -7.5
zM250 127q23 0 41.5 9.5t30 29t11.5 47.5v33l-49 -2q-29 0 -50 -7.5t-32 -21t-11 -35.5q0 -28 16.5 -40.5t42.5 -12.5zM378 602q-31 0 -50.5 19t-19.5 54q0 37 19.5 56t50.5 19q33 0 52.5 -20t19.5 -55t-19.5 -54t-52.5 -19zM174 602q-30 0 -50 18.5t-20 54.5q0 37 20 56
t50 19q32 0 52 -20t20 -55t-20 -54t-52 -19z" />
    <glyph glyph-name="aring" unicode="&#xe5;" 
d="M200 -10q-79 0 -119.5 48t-40.5 126q0 64 24.5 103.5t69 59t103.5 21.5l96 3v13q0 33 -21.5 47.5t-60.5 14.5q-30 0 -61 -8.5t-62 -24.5l-52 120q45 25 93.5 37.5t102.5 12.5q106 0 159.5 -47.5t53.5 -140.5v-375h-120l-20 71h-3q-19 -30 -42.5 -48t-48.5 -25.5t-51 -7.5
zM250 127q23 0 41.5 9.5t30 29t11.5 47.5v33l-49 -2q-29 0 -50 -7.5t-32 -21t-11 -35.5q0 -28 16.5 -40.5t42.5 -12.5zM279 598q-60 0 -96 35t-36 92q0 56 36 91t96 35q56 0 92 -35.5t36 -90.5t-35 -91t-93 -36zM277 679q21 0 34 12.5t13 33.5q0 20 -13 33t-34 13
q-20 0 -33 -12.5t-13 -33.5t12.5 -33.5t33.5 -12.5z" />
    <glyph glyph-name="ae" unicode="&#xe6;" 
d="M144 -10q-67 0 -103 47.5t-36 126.5q0 57 17.5 94t51.5 56.5t81 22.5l50 3v30q0 37 -17 50t-42 13q-18 0 -36.5 -5t-36.5 -15l-49 108q34 21 69 31.5t70 10.5q34 0 63 -12.5t50 -36.5q25 25 49 37t52 12q58 0 90.5 -35.5t45 -97.5t12.5 -141v-58h-185q1 -35 11.5 -59
t30 -36.5t45.5 -12.5q21 0 38.5 8.5t37.5 26.5v-129q-19 -19 -45.5 -29t-58.5 -10q-44 0 -76 19.5t-58 60.5q-25 -41 -52 -60.5t-69 -19.5zM170 122q14 0 21.5 9.5t10.5 28t3 44.5v36h-21q-21 0 -34 -17t-13 -48q0 -25 8.5 -39t24.5 -14zM404 335q0 36 -3.5 56t-10.5 28.5
t-18 8.5q-16 0 -23.5 -21t-8.5 -72h64z" />
    <glyph glyph-name="ccedilla" unicode="&#xe7;" 
d="M309 -10q-78 0 -136 30.5t-91 94t-33 159.5q0 82 27 147.5t85 103.5t150 38q47 0 93 -10.5t83 -31.5l-48 -128q-29 15 -56.5 22.5t-56.5 7.5q-39 0 -64 -17t-37.5 -49t-12.5 -78q0 -54 15 -87t42 -48t62 -15q29 0 66 10.5t71 39.5v-150q-34 -21 -76.5 -30t-82.5 -9z
M289 -240q-18 0 -39.5 2.5t-38.5 6.5v85q15 -4 28.5 -6t23.5 -2q22 0 33 8t11 23q0 19 -18 29.5t-51 13.5l34 81h79l-15 -37q42 -8 64.5 -31t22.5 -64q0 -49 -34 -79t-100 -30z" />
    <glyph glyph-name="egrave" unicode="&#xe8;" 
d="M295 -10q-87 0 -146 33t-89.5 96.5t-30.5 155.5q0 87 28 152t82.5 100.5t135.5 35.5q69 0 119.5 -29t78 -87t27.5 -145v-81h-311q1 -33 19 -54.5t46.5 -31.5t61.5 -10q49 0 88.5 11t69.5 30v-137q-34 -18 -79.5 -28.5t-99.5 -10.5zM349 331q-1 35 -10 57t-26 32.5
t-41 10.5q-40 0 -60.5 -26t-22.5 -74h160zM285 606q-14 12 -34.5 31.5t-43 42t-42 43.5t-30.5 34v9h172q10 -20 26.5 -49t33.5 -55.5t27 -42.5v-13h-109z" />
    <glyph glyph-name="eacute" unicode="&#xe9;" 
d="M295 -10q-87 0 -146 33t-89.5 96.5t-30.5 155.5q0 87 28 152t82.5 100.5t135.5 35.5q69 0 119.5 -29t78 -87t27.5 -145v-81h-311q1 -33 19 -54.5t46.5 -31.5t61.5 -10q49 0 88.5 11t69.5 30v-137q-34 -18 -79.5 -28.5t-99.5 -10.5zM349 331q-1 35 -10 57t-26 32.5
t-41 10.5q-40 0 -60.5 -26t-22.5 -74h160zM204 619q17 26 32.5 51t29.5 49.5t25 46.5h172v-9q-15 -18 -41.5 -45.5t-55.5 -55.5t-54 -50h-108v13z" />
    <glyph glyph-name="ecircumflex" unicode="&#xea;" 
d="M295 -10q-87 0 -146 33t-89.5 96.5t-30.5 155.5q0 87 28 152t82.5 100.5t135.5 35.5q69 0 119.5 -29t78 -87t27.5 -145v-81h-311q1 -33 19 -54.5t46.5 -31.5t61.5 -10q49 0 88.5 11t69.5 30v-137q-34 -18 -79.5 -28.5t-99.5 -10.5zM349 331q-1 35 -10 57t-26 32.5
t-41 10.5q-40 0 -60.5 -26t-22.5 -74h160zM101 619q15 19 34.5 46t37.5 54.5t27 46.5h148q12 -22 28 -47t34.5 -50t36.5 -50v-13h-96q-18 14 -36.5 33t-40.5 44q-23 -25 -41.5 -44.5t-34.5 -32.5h-97v13z" />
    <glyph glyph-name="edieresis" unicode="&#xeb;" 
d="M295 -10q-87 0 -146 33t-89.5 96.5t-30.5 155.5q0 87 28 152t82.5 100.5t135.5 35.5q69 0 119.5 -29t78 -87t27.5 -145v-81h-311q1 -33 19 -54.5t46.5 -31.5t61.5 -10q49 0 88.5 11t69.5 30v-137q-34 -18 -79.5 -28.5t-99.5 -10.5zM349 331q-1 35 -10 57t-26 32.5
t-41 10.5q-40 0 -60.5 -26t-22.5 -74h160zM375 602q-31 0 -50.5 19t-19.5 54q0 37 19.5 56t50.5 19q33 0 52.5 -20t19.5 -55t-19.5 -54t-52.5 -19zM171 602q-30 0 -50 18.5t-20 54.5q0 37 20 56t50 19q32 0 52 -20t20 -55t-20 -54t-52 -19z" />
    <glyph glyph-name="igrave" unicode="&#xec;" 
d="M36 0v117l161 17v283l-126 13v123h285v-419l137 -17v-117h-457zM276 606q-14 12 -34.5 31.5t-43 42t-42 43.5t-30.5 34v9h172q10 -20 26.5 -49t33.5 -55.5t27 -42.5v-13h-109z" />
    <glyph glyph-name="iacute" unicode="&#xed;" 
d="M36 0v117l161 17v283l-126 13v123h285v-419l137 -17v-117h-457zM195 619q17 26 32.5 51t29.5 49.5t25 46.5h172v-9q-15 -18 -41.5 -45.5t-55.5 -55.5t-54 -50h-108v13z" />
    <glyph glyph-name="icircumflex" unicode="&#xee;" 
d="M36 0v117l161 17v283l-126 13v123h285v-419l137 -17v-117h-457zM92 619q15 19 34.5 46t37.5 54.5t27 46.5h148q12 -22 28 -47t34.5 -50t36.5 -50v-13h-96q-18 14 -36.5 33t-40.5 44q-23 -25 -41.5 -44.5t-34.5 -32.5h-97v13z" />
    <glyph glyph-name="idieresis" unicode="&#xef;" 
d="M36 0v117l161 17v283l-126 13v123h285v-419l137 -17v-117h-457zM366 602q-31 0 -50.5 19t-19.5 54q0 37 19.5 56t50.5 19q33 0 52.5 -20t19.5 -55t-19.5 -54t-52.5 -19zM162 602q-30 0 -50 18.5t-20 54.5q0 37 20 56t50 19q32 0 52 -20t20 -55t-20 -54t-52 -19z" />
    <glyph glyph-name="eth" unicode="&#xf0;" 
d="M264 -10q-74 0 -128 31t-83.5 88t-29.5 134q0 79 29 134.5t77 84.5t107 29q28 0 47.5 -6.5t32.5 -18.5l3 2q-10 28 -30.5 59t-47 61t-55 55t-55.5 41l60 83q76 -32 135 -83t99.5 -115.5t61 -137.5t20.5 -151q0 -138 -64 -214t-179 -76zM265 113q31 0 49.5 15t27 44
t8.5 68q0 41 -8.5 69.5t-28 43t-49.5 14.5t-48 -14t-27 -41.5t-9 -69.5q0 -41 9 -69.5t27.5 -44t48.5 -15.5zM181 517l-55 73l238 177l55 -73z" />
    <glyph glyph-name="ntilde" unicode="&#xf1;" 
d="M38 0v553h128l19 -64h7q14 23 33 39.5t45 25.5t60 9q81 0 124 -50.5t43 -152.5v-360h-161v322q0 59 -15 82.5t-45 23.5q-42 0 -59.5 -35.5t-17.5 -112.5v-280h-161zM99 609q0 27 4.5 55t15.5 51.5t28.5 37.5t45.5 14q22 0 41.5 -7t36.5 -16.5t34 -17t33 -7.5q17 0 24 12
t11 37h80q-2 -80 -29 -119t-68 -39q-22 0 -41.5 7.5t-37.5 17t-34.5 16.5t-31.5 7q-13 0 -21 -10.5t-10 -38.5h-81z" />
    <glyph glyph-name="ograve" unicode="&#xf2;" 
d="M266 -10q-65 0 -111.5 23t-75.5 63.5t-42.5 93t-13.5 110.5q0 79 25.5 143.5t78.5 102t136 37.5q75 0 130 -34t84.5 -98t29.5 -155q0 -56 -12.5 -107.5t-40 -92t-74 -63.5t-114.5 -23zM265 129q29 0 46.5 17t25 50.5t7.5 81.5q0 47 -8 79.5t-25.5 49t-45.5 16.5
q-42 0 -60.5 -37.5t-18.5 -107.5q0 -48 8 -81.5t25.5 -50.5t45.5 -17zM276 606q-14 12 -34.5 31.5t-43 42t-42 43.5t-30.5 34v9h172q10 -20 26.5 -49t33.5 -55.5t27 -42.5v-13h-109z" />
    <glyph glyph-name="oacute" unicode="&#xf3;" 
d="M266 -10q-65 0 -111.5 23t-75.5 63.5t-42.5 93t-13.5 110.5q0 79 25.5 143.5t78.5 102t136 37.5q75 0 130 -34t84.5 -98t29.5 -155q0 -56 -12.5 -107.5t-40 -92t-74 -63.5t-114.5 -23zM265 129q29 0 46.5 17t25 50.5t7.5 81.5q0 47 -8 79.5t-25.5 49t-45.5 16.5
q-42 0 -60.5 -37.5t-18.5 -107.5q0 -48 8 -81.5t25.5 -50.5t45.5 -17zM195 619q17 26 32.5 51t29.5 49.5t25 46.5h172v-9q-15 -18 -41.5 -45.5t-55.5 -55.5t-54 -50h-108v13z" />
    <glyph glyph-name="ocircumflex" unicode="&#xf4;" 
d="M266 -10q-65 0 -111.5 23t-75.5 63.5t-42.5 93t-13.5 110.5q0 79 25.5 143.5t78.5 102t136 37.5q75 0 130 -34t84.5 -98t29.5 -155q0 -56 -12.5 -107.5t-40 -92t-74 -63.5t-114.5 -23zM265 129q29 0 46.5 17t25 50.5t7.5 81.5q0 47 -8 79.5t-25.5 49t-45.5 16.5
q-42 0 -60.5 -37.5t-18.5 -107.5q0 -48 8 -81.5t25.5 -50.5t45.5 -17zM92 619q15 19 34.5 46t37.5 54.5t27 46.5h148q12 -22 28 -47t34.5 -50t36.5 -50v-13h-96q-18 14 -36.5 33t-40.5 44q-23 -25 -41.5 -44.5t-34.5 -32.5h-97v13z" />
    <glyph glyph-name="otilde" unicode="&#xf5;" 
d="M266 -10q-65 0 -111.5 23t-75.5 63.5t-42.5 93t-13.5 110.5q0 79 25.5 143.5t78.5 102t136 37.5q75 0 130 -34t84.5 -98t29.5 -155q0 -56 -12.5 -107.5t-40 -92t-74 -63.5t-114.5 -23zM265 129q29 0 46.5 17t25 50.5t7.5 81.5q0 47 -8 79.5t-25.5 49t-45.5 16.5
q-42 0 -60.5 -37.5t-18.5 -107.5q0 -48 8 -81.5t25.5 -50.5t45.5 -17zM88 609q0 27 4.5 55t15.5 51.5t28.5 37.5t45.5 14q22 0 41.5 -7t36.5 -16.5t34 -17t33 -7.5q17 0 24 12t11 37h80q-2 -80 -29 -119t-68 -39q-22 0 -41.5 7.5t-37.5 17t-34.5 16.5t-31.5 7
q-13 0 -21 -10.5t-10 -38.5h-81z" />
    <glyph glyph-name="odieresis" unicode="&#xf6;" 
d="M266 -10q-65 0 -111.5 23t-75.5 63.5t-42.5 93t-13.5 110.5q0 79 25.5 143.5t78.5 102t136 37.5q75 0 130 -34t84.5 -98t29.5 -155q0 -56 -12.5 -107.5t-40 -92t-74 -63.5t-114.5 -23zM265 129q29 0 46.5 17t25 50.5t7.5 81.5q0 47 -8 79.5t-25.5 49t-45.5 16.5
q-42 0 -60.5 -37.5t-18.5 -107.5q0 -48 8 -81.5t25.5 -50.5t45.5 -17zM366 602q-31 0 -50.5 19t-19.5 54q0 37 19.5 56t50.5 19q33 0 52.5 -20t19.5 -55t-19.5 -54t-52.5 -19zM162 602q-30 0 -50 18.5t-20 54.5q0 37 20 56t50 19q32 0 52 -20t20 -55t-20 -54t-52 -19z" />
    <glyph glyph-name="divide" unicode="&#xf7;" 
d="M46 292v122h438v-122h-438zM266 77q-34 0 -55 21t-21 61t20 61t56 21q35 0 54 -21t19 -61t-19.5 -61t-53.5 -21zM266 464q-34 0 -55 21t-21 61q0 41 20 61.5t56 20.5q35 0 54 -20.5t19 -61.5q0 -40 -19.5 -61t-53.5 -21z" />
    <glyph glyph-name="oslash" unicode="&#xf8;" 
d="M134 -54l-73 38l332 611l73 -39zM266 -10q-65 0 -111.5 23t-75.5 63.5t-42.5 93t-13.5 110.5q0 79 25.5 143.5t78.5 102t136 37.5q75 0 130 -34t84.5 -98t29.5 -155q0 -56 -12.5 -107.5t-40 -92t-74 -63.5t-114.5 -23zM265 129q29 0 46.5 17t25 50.5t7.5 81.5
q0 47 -8 79.5t-25.5 49t-45.5 16.5q-42 0 -60.5 -37.5t-18.5 -107.5q0 -48 8 -81.5t25.5 -50.5t45.5 -17z" />
    <glyph glyph-name="ugrave" unicode="&#xf9;" 
d="M197 -10q-79 0 -121.5 50.5t-42.5 152.5v360h161v-311q0 -56 15 -84.5t51 -28.5q30 0 45 16t20.5 49.5t5.5 84.5v274h161v-553h-128l-19 69h-10q-13 -26 -33 -43.5t-45.5 -26.5t-59.5 -9zM276 606q-14 12 -34.5 31.5t-43 42t-42 43.5t-30.5 34v9h172q10 -20 26.5 -49
t33.5 -55.5t27 -42.5v-13h-109z" />
    <glyph glyph-name="uacute" unicode="&#xfa;" 
d="M197 -10q-79 0 -121.5 50.5t-42.5 152.5v360h161v-311q0 -56 15 -84.5t51 -28.5q30 0 45 16t20.5 49.5t5.5 84.5v274h161v-553h-128l-19 69h-10q-13 -26 -33 -43.5t-45.5 -26.5t-59.5 -9zM195 619q17 26 32.5 51t29.5 49.5t25 46.5h172v-9q-15 -18 -41.5 -45.5
t-55.5 -55.5t-54 -50h-108v13z" />
    <glyph glyph-name="ucircumflex" unicode="&#xfb;" 
d="M197 -10q-79 0 -121.5 50.5t-42.5 152.5v360h161v-311q0 -56 15 -84.5t51 -28.5q30 0 45 16t20.5 49.5t5.5 84.5v274h161v-553h-128l-19 69h-10q-13 -26 -33 -43.5t-45.5 -26.5t-59.5 -9zM92 619q15 19 34.5 46t37.5 54.5t27 46.5h148q12 -22 28 -47t34.5 -50t36.5 -50
v-13h-96q-18 14 -36.5 33t-40.5 44q-23 -25 -41.5 -44.5t-34.5 -32.5h-97v13z" />
    <glyph glyph-name="udieresis" unicode="&#xfc;" 
d="M197 -10q-79 0 -121.5 50.5t-42.5 152.5v360h161v-311q0 -56 15 -84.5t51 -28.5q30 0 45 16t20.5 49.5t5.5 84.5v274h161v-553h-128l-19 69h-10q-13 -26 -33 -43.5t-45.5 -26.5t-59.5 -9zM366 602q-31 0 -50.5 19t-19.5 54q0 37 19.5 56t50.5 19q33 0 52.5 -20t19.5 -55
t-19.5 -54t-52.5 -19zM162 602q-30 0 -50 18.5t-20 54.5q0 37 20 56t50 19q32 0 52 -20t20 -55t-20 -54t-52 -19z" />
    <glyph glyph-name="yacute" unicode="&#xfd;" 
d="M100 -245q-18 0 -35.5 2t-35.5 6v130q11 -3 22.5 -4.5t22.5 -1.5q23 0 46.5 7t44.5 28t33 63l6 17l-198 551h177l70 -262q8 -27 12 -48.5t7 -42.5h4q2 13 4.5 28t6 31t6.5 32l58 262h172l-181 -597q-21 -72 -54 -116.5t-79.5 -64.5t-108.5 -20zM195 619q17 26 32.5 51
t29.5 49.5t25 46.5h172v-9q-15 -18 -41.5 -45.5t-55.5 -55.5t-54 -50h-108v13z" />
    <glyph glyph-name="thorn" unicode="&#xfe;" 
d="M38 -240v968h158v-131q0 -29 -3 -57t-8 -60h7q15 28 34 46.5t45.5 27.5t58.5 9q47 0 80.5 -23t55 -63t31.5 -91t10 -106q0 -89 -23.5 -154.5t-65.5 -100.5t-95 -35q-27 0 -50 7t-42 21.5t-36 37.5h-9q2 -15 5.5 -49t3.5 -61v-186h-157zM273 129q38 0 53.5 37.5
t15.5 111.5q0 73 -15.5 109t-55.5 36q-34 0 -55 -29.5t-21 -100.5v-16q0 -82 20.5 -115t57.5 -33z" />
    <glyph glyph-name="ydieresis" unicode="&#xff;" 
d="M100 -245q-18 0 -35.5 2t-35.5 6v130q11 -3 22.5 -4.5t22.5 -1.5q23 0 46.5 7t44.5 28t33 63l6 17l-198 551h177l70 -262q8 -27 12 -48.5t7 -42.5h4q2 13 4.5 28t6 31t6.5 32l58 262h172l-181 -597q-21 -72 -54 -116.5t-79.5 -64.5t-108.5 -20zM366 602q-31 0 -50.5 19
t-19.5 54q0 37 19.5 56t50.5 19q33 0 52.5 -20t19.5 -55t-19.5 -54t-52.5 -19zM162 602q-30 0 -50 18.5t-20 54.5q0 37 20 56t50 19q32 0 52 -20t20 -55t-20 -54t-52 -19z" />
    <glyph glyph-name="Amacron" unicode="&#x100;" 
d="M5 0l145 716h226l149 -716h-157l-76 434q-3 23 -8.5 52t-10 57.5t-7.5 49.5q-3 -21 -8 -49.5t-10 -57.5t-9 -52l-77 -434h-157zM140 153l7 136h243l5 -136h-255zM117 777v105h296v-105h-296z" />
    <glyph glyph-name="amacron" unicode="&#x101;" 
d="M200 -10q-79 0 -119.5 48t-40.5 126q0 64 24.5 103.5t69 59t103.5 21.5l96 3v13q0 33 -21.5 47.5t-60.5 14.5q-30 0 -61 -8.5t-62 -24.5l-52 120q45 25 93.5 37.5t102.5 12.5q106 0 159.5 -47.5t53.5 -140.5v-375h-120l-20 71h-3q-19 -30 -42.5 -48t-48.5 -25.5t-51 -7.5
zM250 127q23 0 41.5 9.5t30 29t11.5 47.5v33l-49 -2q-29 0 -50 -7.5t-32 -21t-11 -35.5q0 -28 16.5 -40.5t42.5 -12.5zM130 616v105h296v-105h-296z" />
    <glyph glyph-name="Abreve" unicode="&#x102;" 
d="M5 0l145 716h226l149 -716h-157l-76 434q-3 23 -8.5 52t-10 57.5t-7.5 49.5q-3 -21 -8 -49.5t-10 -57.5t-9 -52l-77 -434h-157zM140 153l7 136h243l5 -136h-255zM264 768q-70 0 -114.5 44t-45.5 128h91q3 -25 11 -40t23 -22t35 -7q30 0 48 15.5t22 53.5h91
q-1 -81 -45 -126.5t-116 -45.5z" />
    <glyph glyph-name="abreve" unicode="&#x103;" 
d="M200 -10q-79 0 -119.5 48t-40.5 126q0 64 24.5 103.5t69 59t103.5 21.5l96 3v13q0 33 -21.5 47.5t-60.5 14.5q-30 0 -61 -8.5t-62 -24.5l-52 120q45 25 93.5 37.5t102.5 12.5q106 0 159.5 -47.5t53.5 -140.5v-375h-120l-20 71h-3q-19 -30 -42.5 -48t-48.5 -25.5t-51 -7.5
zM250 127q23 0 41.5 9.5t30 29t11.5 47.5v33l-49 -2q-29 0 -50 -7.5t-32 -21t-11 -35.5q0 -28 16.5 -40.5t42.5 -12.5zM277 607q-70 0 -114.5 44t-45.5 128h91q3 -25 11 -40t23 -22t35 -7q30 0 48 15.5t22 53.5h91q-1 -81 -45 -126.5t-116 -45.5z" />
    <glyph glyph-name="Aogonek" unicode="&#x104;" 
d="M5 0l145 716h226l149 -716h-157l-76 434q-3 23 -8.5 52t-10 57.5t-7.5 49.5q-3 -21 -8 -49.5t-10 -57.5t-9 -52l-77 -434h-157zM140 153l7 136h243l5 -136h-255zM481 -240q-60 0 -92 29t-32 79q0 23 9 48.5t29.5 51t53.5 49.5l75 -17q-31 -34 -42 -56t-11 -45
q0 -17 10.5 -28.5t30.5 -11.5q13 0 23 2.5t17 6.5v-94q-12 -5 -30 -9.5t-41 -4.5z" />
    <glyph glyph-name="aogonek" unicode="&#x105;" 
d="M200 -10q-79 0 -119.5 48t-40.5 126q0 64 24.5 103.5t69 59t103.5 21.5l96 3v13q0 33 -21.5 47.5t-60.5 14.5q-30 0 -61 -8.5t-62 -24.5l-52 120q45 25 93.5 37.5t102.5 12.5q106 0 159.5 -47.5t53.5 -140.5v-375h-120l-20 71h-3q-19 -30 -42.5 -48t-48.5 -25.5t-51 -7.5
zM250 127q23 0 41.5 9.5t30 29t11.5 47.5v33l-49 -2q-29 0 -50 -7.5t-32 -21t-11 -35.5q0 -28 16.5 -40.5t42.5 -12.5zM418 -240q-60 0 -92 29t-32 79q0 23 9 48.5t29.5 51t53.5 49.5l75 -17q-31 -34 -42 -56t-11 -45q0 -17 10.5 -28.5t30.5 -11.5q13 0 23 2.5t17 6.5v-94
q-12 -5 -30 -9.5t-41 -4.5z" />
    <glyph glyph-name="Cacute" unicode="&#x106;" 
d="M309 -10q-91 0 -152.5 42t-92.5 121.5t-31 190.5q0 87 20 158t58 120.5t92.5 76t124.5 26.5q55 0 97.5 -12t83.5 -36l-45 -134q-30 21 -61 29t-58 8q-39 0 -67.5 -16t-46.5 -46t-27 -72.5t-9 -95.5q0 -73 16 -121t47.5 -71.5t77.5 -23.5q38 0 76 13t72 33v-150
q-38 -20 -84 -30t-91 -10zM246 780q17 26 32.5 51t29.5 49.5t25 46.5h172v-9q-15 -18 -41.5 -45.5t-55.5 -55.5t-54 -50h-108v13z" />
    <glyph glyph-name="cacute" unicode="&#x107;" 
d="M309 -10q-78 0 -136 30.5t-91 94t-33 159.5q0 82 27 147.5t85 103.5t150 38q47 0 93 -10.5t83 -31.5l-48 -128q-29 15 -56.5 22.5t-56.5 7.5q-39 0 -64 -17t-37.5 -49t-12.5 -78q0 -54 15 -87t42 -48t62 -15q29 0 66 10.5t71 39.5v-150q-34 -21 -76.5 -30t-82.5 -9z
M227 619q17 26 32.5 51t29.5 49.5t25 46.5h172v-9q-15 -18 -41.5 -45.5t-55.5 -55.5t-54 -50h-108v13z" />
    <glyph glyph-name="Ccircumflex" unicode="&#x108;" 
d="M309 -10q-91 0 -152.5 42t-92.5 121.5t-31 190.5q0 87 20 158t58 120.5t92.5 76t124.5 26.5q55 0 97.5 -12t83.5 -36l-45 -134q-30 21 -61 29t-58 8q-39 0 -67.5 -16t-46.5 -46t-27 -72.5t-9 -95.5q0 -73 16 -121t47.5 -71.5t77.5 -23.5q38 0 76 13t72 33v-150
q-38 -20 -84 -30t-91 -10zM143 780q15 19 34.5 46t37.5 54.5t27 46.5h148q12 -22 28 -47t34.5 -50t36.5 -50v-13h-96q-18 14 -36.5 33t-40.5 44q-23 -25 -41.5 -44.5t-34.5 -32.5h-97v13z" />
    <glyph glyph-name="ccircumflex" unicode="&#x109;" 
d="M309 -10q-78 0 -136 30.5t-91 94t-33 159.5q0 82 27 147.5t85 103.5t150 38q47 0 93 -10.5t83 -31.5l-48 -128q-29 15 -56.5 22.5t-56.5 7.5q-39 0 -64 -17t-37.5 -49t-12.5 -78q0 -54 15 -87t42 -48t62 -15q29 0 66 10.5t71 39.5v-150q-34 -21 -76.5 -30t-82.5 -9z
M124 619q15 19 34.5 46t37.5 54.5t27 46.5h148q12 -22 28 -47t34.5 -50t36.5 -50v-13h-96q-18 14 -36.5 33t-40.5 44q-23 -25 -41.5 -44.5t-34.5 -32.5h-97v13z" />
    <glyph glyph-name="Cdotaccent" unicode="&#x10a;" 
d="M309 -10q-91 0 -152.5 42t-92.5 121.5t-31 190.5q0 87 20 158t58 120.5t92.5 76t124.5 26.5q55 0 97.5 -12t83.5 -36l-45 -134q-30 21 -61 29t-58 8q-39 0 -67.5 -16t-46.5 -46t-27 -72.5t-9 -95.5q0 -73 16 -121t47.5 -71.5t77.5 -23.5q38 0 76 13t72 33v-150
q-38 -20 -84 -30t-91 -10zM317 767q-46 0 -70 21.5t-24 63.5q0 40 23.5 62t70.5 22q48 0 70 -22t22 -62t-21.5 -62.5t-70.5 -22.5z" />
    <glyph glyph-name="cdotaccent" unicode="&#x10b;" 
d="M309 -10q-78 0 -136 30.5t-91 94t-33 159.5q0 82 27 147.5t85 103.5t150 38q47 0 93 -10.5t83 -31.5l-48 -128q-29 15 -56.5 22.5t-56.5 7.5q-39 0 -64 -17t-37.5 -49t-12.5 -78q0 -54 15 -87t42 -48t62 -15q29 0 66 10.5t71 39.5v-150q-34 -21 -76.5 -30t-82.5 -9z
M298 606q-46 0 -70 21.5t-24 63.5q0 40 23.5 62t70.5 22q48 0 70 -22t22 -62t-21.5 -62.5t-70.5 -22.5z" />
    <glyph glyph-name="Ccaron" unicode="&#x10c;" 
d="M309 -10q-91 0 -152.5 42t-92.5 121.5t-31 190.5q0 87 20 158t58 120.5t92.5 76t124.5 26.5q55 0 97.5 -12t83.5 -36l-45 -134q-30 21 -61 29t-58 8q-39 0 -67.5 -16t-46.5 -46t-27 -72.5t-9 -95.5q0 -73 16 -121t47.5 -71.5t77.5 -23.5q38 0 76 13t72 33v-150
q-38 -20 -84 -30t-91 -10zM242 767q-9 20 -27 47.5t-38 54.5t-34 45v13h97q18 -14 36.5 -33t39.5 -44q22 26 40.5 44.5t36.5 32.5h96v-13q-14 -19 -33 -45.5t-36.5 -53.5t-29.5 -48h-148z" />
    <glyph glyph-name="ccaron" unicode="&#x10d;" 
d="M309 -10q-78 0 -136 30.5t-91 94t-33 159.5q0 82 27 147.5t85 103.5t150 38q47 0 93 -10.5t83 -31.5l-48 -128q-29 15 -56.5 22.5t-56.5 7.5q-39 0 -64 -17t-37.5 -49t-12.5 -78q0 -54 15 -87t42 -48t62 -15q29 0 66 10.5t71 39.5v-150q-34 -21 -76.5 -30t-82.5 -9z
M223 606q-9 20 -27 47.5t-38 54.5t-34 45v13h97q18 -14 36.5 -33t39.5 -44q22 26 40.5 44.5t36.5 32.5h96v-13q-14 -19 -33 -45.5t-36.5 -53.5t-29.5 -48h-148z" />
    <glyph glyph-name="Dcaron" unicode="&#x10e;" 
d="M29 0v714h207q89 0 150.5 -41.5t94 -117.5t32.5 -183q0 -117 -36.5 -200.5t-100 -127.5t-145.5 -44h-202zM219 141q68 0 99.5 59t31.5 159q0 73 -14 120t-41 70.5t-68 23.5h-41v-432h33zM181 767q-9 20 -27 47.5t-38 54.5t-34 45v13h97q18 -14 36.5 -33t39.5 -44
q22 26 40.5 44.5t36.5 32.5h96v-13q-14 -19 -33 -45.5t-36.5 -53.5t-29.5 -48h-148z" />
    <glyph glyph-name="dcaron" unicode="&#x10f;" 
d="M182 -10q-43 0 -75 21.5t-52.5 60.5t-31 90.5t-10.5 112.5q0 85 20 150t58.5 101.5t95.5 36.5q22 0 42 -7.5t37.5 -24.5t31.5 -48h8q-3 19 -5.5 38t-4 38t-1.5 38v163h157v-760h-128l-18 72h-8q-20 -42 -48.5 -62t-67.5 -20zM232 129q33 0 51 32t18 106v15q0 53 -7.5 84
t-22 44t-35.5 13q-26 0 -41 -16.5t-21 -49.5t-6 -83q0 -75 14 -110t50 -35zM471 608q3 13 6.5 32.5t7 41.5t6 42.5t2.5 35.5h147v-9q-9 -24 -19.5 -50t-23.5 -51.5t-27 -49.5h-99v8z" />
    <glyph glyph-name="Dcroat" unicode="&#x110;" 
d="M0 296v123h267v-123h-267zM36 0v714h207q89 0 150.5 -41.5t94 -117.5t32.5 -183q0 -117 -36.5 -200.5t-100 -127.5t-145.5 -44h-202zM226 141q68 0 99.5 59t31.5 159q0 73 -14 120t-41 70.5t-68 23.5h-41v-432h33z" />
    <glyph glyph-name="dcroat" unicode="&#x111;" 
d="M205 -10q-47 0 -81.5 21t-57 58.5t-33 87.5t-10.5 108q0 82 21 145t62.5 98t102.5 35q26 0 50 -8t44 -25.5t35 -46.5h8q-3 19 -5.5 38.5t-4 43t-1.5 52.5v163h157v-760h-128l-18 72h-8q-14 -28 -34.5 -46.5t-45 -27t-53.5 -8.5zM262 129q38 0 58.5 28.5t20.5 91.5v15
q0 49 -7 80t-23 45t-45 14q-43 0 -62.5 -35.5t-19.5 -102.5q0 -70 19.5 -103t58.5 -33zM221 579v105h309v-105h-309z" />
    <glyph glyph-name="Emacron" unicode="&#x112;" 
d="M49 0v714h435v-144h-275v-135h260v-143h-260v-149h275v-143h-435zM120 777v105h296v-105h-296z" />
    <glyph glyph-name="emacron" unicode="&#x113;" 
d="M295 -10q-87 0 -146 33t-89.5 96.5t-30.5 155.5q0 87 28 152t82.5 100.5t135.5 35.5q69 0 119.5 -29t78 -87t27.5 -145v-81h-311q1 -33 19 -54.5t46.5 -31.5t61.5 -10q49 0 88.5 11t69.5 30v-137q-34 -18 -79.5 -28.5t-99.5 -10.5zM349 331q-1 35 -10 57t-26 32.5
t-41 10.5q-40 0 -60.5 -26t-22.5 -74h160zM126 616v105h296v-105h-296z" />
    <glyph glyph-name="Ebreve" unicode="&#x114;" 
d="M49 0v714h435v-144h-275v-135h260v-143h-260v-149h275v-143h-435zM267 768q-70 0 -114.5 44t-45.5 128h91q3 -25 11 -40t23 -22t35 -7q30 0 48 15.5t22 53.5h91q-1 -81 -45 -126.5t-116 -45.5z" />
    <glyph glyph-name="ebreve" unicode="&#x115;" 
d="M295 -10q-87 0 -146 33t-89.5 96.5t-30.5 155.5q0 87 28 152t82.5 100.5t135.5 35.5q69 0 119.5 -29t78 -87t27.5 -145v-81h-311q1 -33 19 -54.5t46.5 -31.5t61.5 -10q49 0 88.5 11t69.5 30v-137q-34 -18 -79.5 -28.5t-99.5 -10.5zM349 331q-1 35 -10 57t-26 32.5
t-41 10.5q-40 0 -60.5 -26t-22.5 -74h160zM273 607q-70 0 -114.5 44t-45.5 128h91q3 -25 11 -40t23 -22t35 -7q30 0 48 15.5t22 53.5h91q-1 -81 -45 -126.5t-116 -45.5z" />
    <glyph glyph-name="Edotaccent" unicode="&#x116;" 
d="M49 0v714h435v-144h-275v-135h260v-143h-260v-149h275v-143h-435zM269 767q-46 0 -70 21.5t-24 63.5q0 40 23.5 62t70.5 22q48 0 70 -22t22 -62t-21.5 -62.5t-70.5 -22.5z" />
    <glyph glyph-name="edotaccent" unicode="&#x117;" 
d="M295 -10q-87 0 -146 33t-89.5 96.5t-30.5 155.5q0 87 28 152t82.5 100.5t135.5 35.5q69 0 119.5 -29t78 -87t27.5 -145v-81h-311q1 -33 19 -54.5t46.5 -31.5t61.5 -10q49 0 88.5 11t69.5 30v-137q-34 -18 -79.5 -28.5t-99.5 -10.5zM349 331q-1 35 -10 57t-26 32.5
t-41 10.5q-40 0 -60.5 -26t-22.5 -74h160zM275 606q-46 0 -70 21.5t-24 63.5q0 40 23.5 62t70.5 22q48 0 70 -22t22 -62t-21.5 -62.5t-70.5 -22.5z" />
    <glyph glyph-name="Eogonek" unicode="&#x118;" 
d="M49 0v714h435v-144h-275v-135h260v-143h-260v-149h275v-143h-435zM393 -240q-60 0 -92 29t-32 79q0 23 9 48.5t29.5 51t53.5 49.5l75 -17q-31 -34 -42 -56t-11 -45q0 -17 10.5 -28.5t30.5 -11.5q13 0 23 2.5t17 6.5v-94q-12 -5 -30 -9.5t-41 -4.5z" />
    <glyph glyph-name="eogonek" unicode="&#x119;" 
d="M391 -240q-59 0 -91 31.5t-32 83.5q0 43 20.5 73.5t52 54t66.5 44.5l67 -17q-34 -28 -54.5 -50t-29 -40t-8.5 -37q0 -21 10.5 -32.5t31.5 -11.5q12 0 22 2.5t17 6.5v-94q-12 -5 -30 -9.5t-42 -4.5zM295 -10q-87 0 -146 33t-89.5 96.5t-30.5 155.5q0 87 28 152t82.5 100.5
t135.5 35.5q69 0 119.5 -29t78 -87t27.5 -145v-81h-311q1 -33 19 -54.5t46.5 -31.5t61.5 -10q49 0 88.5 11t69.5 30v-137q-34 -18 -79.5 -28.5t-99.5 -10.5zM349 331q-1 35 -10 57t-26 32.5t-41 10.5q-40 0 -60.5 -26t-22.5 -74h160z" />
    <glyph glyph-name="Ecaron" unicode="&#x11a;" 
d="M49 0v714h435v-144h-275v-135h260v-143h-260v-149h275v-143h-435zM194 767q-9 20 -27 47.5t-38 54.5t-34 45v13h97q18 -14 36.5 -33t39.5 -44q22 26 40.5 44.5t36.5 32.5h96v-13q-14 -19 -33 -45.5t-36.5 -53.5t-29.5 -48h-148z" />
    <glyph glyph-name="ecaron" unicode="&#x11b;" 
d="M295 -10q-87 0 -146 33t-89.5 96.5t-30.5 155.5q0 87 28 152t82.5 100.5t135.5 35.5q69 0 119.5 -29t78 -87t27.5 -145v-81h-311q1 -33 19 -54.5t46.5 -31.5t61.5 -10q49 0 88.5 11t69.5 30v-137q-34 -18 -79.5 -28.5t-99.5 -10.5zM349 331q-1 35 -10 57t-26 32.5
t-41 10.5q-40 0 -60.5 -26t-22.5 -74h160zM200 606q-9 20 -27 47.5t-38 54.5t-34 45v13h97q18 -14 36.5 -33t39.5 -44q22 26 40.5 44.5t36.5 32.5h96v-13q-14 -19 -33 -45.5t-36.5 -53.5t-29.5 -48h-148z" />
    <glyph glyph-name="Gcircumflex" unicode="&#x11c;" 
d="M320 -10q-103 0 -170.5 40.5t-100.5 119t-33 191.5q0 124 36.5 209.5t106 130t165.5 44.5q56 0 98.5 -13t75.5 -32l-45 -131q-30 18 -57.5 25.5t-56.5 7.5q-55 0 -91.5 -26t-54 -78.5t-17.5 -130.5q0 -62 14 -110t41.5 -75.5t70.5 -27.5q12 0 26.5 2t25.5 6v136h-66v138
h212v-384q-45 -23 -90 -32.5t-90 -9.5zM127 780q15 19 34.5 46t37.5 54.5t27 46.5h148q12 -22 28 -47t34.5 -50t36.5 -50v-13h-96q-18 14 -36.5 33t-40.5 44q-23 -25 -41.5 -44.5t-34.5 -32.5h-97v13z" />
    <glyph glyph-name="gcircumflex" unicode="&#x11d;" 
d="M223 -245q-48 0 -88 9t-83 30v141q48 -24 88.5 -33t73.5 -9q58 0 89.5 23.5t31.5 75.5v13v32t1 29h-5q-24 -44 -54 -60t-68 -16q-89 0 -137.5 76t-48.5 208q0 136 50 212.5t136 76.5q40 0 69.5 -18t55.5 -62h8l21 70h129v-533q0 -85 -28 -144.5t-87 -90t-154 -30.5z
M266 129q19 0 32.5 7t22.5 22t13.5 40t4.5 60v16q0 54 -6 86.5t-21.5 47.5t-42.5 15q-43 0 -61 -38.5t-18 -113.5q0 -68 16.5 -105t59.5 -37zM92 619q15 19 34.5 46t37.5 54.5t27 46.5h148q12 -22 28 -47t34.5 -50t36.5 -50v-13h-96q-18 14 -36.5 33t-40.5 44
q-23 -25 -41.5 -44.5t-34.5 -32.5h-97v13z" />
    <glyph glyph-name="Gbreve" unicode="&#x11e;" 
d="M320 -10q-103 0 -170.5 40.5t-100.5 119t-33 191.5q0 124 36.5 209.5t106 130t165.5 44.5q56 0 98.5 -13t75.5 -32l-45 -131q-30 18 -57.5 25.5t-56.5 7.5q-55 0 -91.5 -26t-54 -78.5t-17.5 -130.5q0 -62 14 -110t41.5 -75.5t70.5 -27.5q12 0 26.5 2t25.5 6v136h-66v138
h212v-384q-45 -23 -90 -32.5t-90 -9.5zM299 768q-70 0 -114.5 44t-45.5 128h91q3 -25 11 -40t23 -22t35 -7q30 0 48 15.5t22 53.5h91q-1 -81 -45 -126.5t-116 -45.5z" />
    <glyph glyph-name="gbreve" unicode="&#x11f;" 
d="M223 -245q-48 0 -88 9t-83 30v141q48 -24 88.5 -33t73.5 -9q58 0 89.5 23.5t31.5 75.5v13v32t1 29h-5q-24 -44 -54 -60t-68 -16q-89 0 -137.5 76t-48.5 208q0 136 50 212.5t136 76.5q40 0 69.5 -18t55.5 -62h8l21 70h129v-533q0 -85 -28 -144.5t-87 -90t-154 -30.5z
M266 129q19 0 32.5 7t22.5 22t13.5 40t4.5 60v16q0 54 -6 86.5t-21.5 47.5t-42.5 15q-43 0 -61 -38.5t-18 -113.5q0 -68 16.5 -105t59.5 -37zM264 607q-70 0 -114.5 44t-45.5 128h91q3 -25 11 -40t23 -22t35 -7q30 0 48 15.5t22 53.5h91q-1 -81 -45 -126.5t-116 -45.5z" />
    <glyph glyph-name="Gdotaccent" unicode="&#x120;" 
d="M320 -10q-103 0 -170.5 40.5t-100.5 119t-33 191.5q0 124 36.5 209.5t106 130t165.5 44.5q56 0 98.5 -13t75.5 -32l-45 -131q-30 18 -57.5 25.5t-56.5 7.5q-55 0 -91.5 -26t-54 -78.5t-17.5 -130.5q0 -62 14 -110t41.5 -75.5t70.5 -27.5q12 0 26.5 2t25.5 6v136h-66v138
h212v-384q-45 -23 -90 -32.5t-90 -9.5zM301 767q-46 0 -70 21.5t-24 63.5q0 40 23.5 62t70.5 22q48 0 70 -22t22 -62t-21.5 -62.5t-70.5 -22.5z" />
    <glyph glyph-name="gdotaccent" unicode="&#x121;" 
d="M223 -245q-48 0 -88 9t-83 30v141q48 -24 88.5 -33t73.5 -9q58 0 89.5 23.5t31.5 75.5v13v32t1 29h-5q-24 -44 -54 -60t-68 -16q-89 0 -137.5 76t-48.5 208q0 136 50 212.5t136 76.5q40 0 69.5 -18t55.5 -62h8l21 70h129v-533q0 -85 -28 -144.5t-87 -90t-154 -30.5z
M266 129q19 0 32.5 7t22.5 22t13.5 40t4.5 60v16q0 54 -6 86.5t-21.5 47.5t-42.5 15q-43 0 -61 -38.5t-18 -113.5q0 -68 16.5 -105t59.5 -37zM266 606q-46 0 -70 21.5t-24 63.5q0 40 23.5 62t70.5 22q48 0 70 -22t22 -62t-21.5 -62.5t-70.5 -22.5z" />
    <glyph glyph-name="uni0122" unicode="&#x122;" 
d="M320 -10q-103 0 -170.5 40.5t-100.5 119t-33 191.5q0 124 36.5 209.5t106 130t165.5 44.5q56 0 98.5 -13t75.5 -32l-45 -131q-30 18 -57.5 25.5t-56.5 7.5q-55 0 -91.5 -26t-54 -78.5t-17.5 -130.5q0 -62 14 -110t41.5 -75.5t70.5 -27.5q12 0 26.5 2t25.5 6v136h-66v138
h212v-384q-45 -23 -90 -32.5t-90 -9.5zM209 -211q5 18 9.5 45.5t8.5 56t4 48.5h147v-9q-9 -26 -19.5 -51.5t-23 -51t-27.5 -48.5h-99v10z" />
    <glyph glyph-name="uni0123" unicode="&#x123;" 
d="M185 612q8 25 18 51t23 52.5t27 50.5h99v-8q-5 -26 -9.5 -54t-8 -54.5t-4.5 -46.5h-145v9zM223 -245q-48 0 -88 9t-83 30v141q48 -24 88.5 -33t73.5 -9q58 0 89.5 23.5t31.5 75.5v13v32t1 29h-5q-24 -44 -54 -60t-68 -16q-89 0 -137.5 76t-48.5 208q0 136 50 212.5
t136 76.5q40 0 69.5 -18t55.5 -62h8l21 70h129v-533q0 -85 -28 -144.5t-87 -90t-154 -30.5zM266 129q19 0 32.5 7t22.5 22t13.5 40t4.5 60v16q0 54 -6 86.5t-21.5 47.5t-42.5 15q-43 0 -61 -38.5t-18 -113.5q0 -68 16.5 -105t59.5 -37z" />
    <glyph glyph-name="Hcircumflex" unicode="&#x124;" 
d="M29 0v714h161v-273h150v273h160v-714h-160v298h-150v-298h-161zM92 780q15 19 34.5 46t37.5 54.5t27 46.5h148q12 -22 28 -47t34.5 -50t36.5 -50v-13h-96q-18 14 -36.5 33t-40.5 44q-23 -25 -41.5 -44.5t-34.5 -32.5h-97v13z" />
    <glyph glyph-name="hcircumflex" unicode="&#x125;" 
d="M38 0v760h161v-132q0 -36 -3 -72.5t-9 -71.5h9q14 25 33 43t44.5 27t58.5 9q80 0 122.5 -53.5t42.5 -149.5v-360h-161v306q0 53 -10.5 83t-52.5 30q-28 0 -44 -16.5t-23 -50t-7 -85.5v-267h-161zM-55 826q15 19 34.5 46t37.5 54.5t27 46.5h148q12 -22 28 -47t34.5 -50
t36.5 -50v-13h-96q-18 14 -36.5 33t-40.5 44q-23 -25 -41.5 -44.5t-34.5 -32.5h-97v13z" />
    <glyph glyph-name="Hbar" unicode="&#x126;" 
d="M0 522v106h530v-106h-530zM39 0v714h161v-273h130v273h160v-714h-160v298h-130v-298h-161z" />
    <glyph glyph-name="hbar" unicode="&#x127;" 
d="M0 579v105h322v-105h-322zM38 0v760h161v-139q0 -39 -3 -80t-9 -76h9q14 25 33 43t44.5 27t58.5 9q80 0 122.5 -53.5t42.5 -149.5v-341h-161v287q0 53 -10.5 83t-52.5 30q-28 0 -44 -16t-23 -50t-7 -86v-248h-161z" />
    <glyph glyph-name="Itilde" unicode="&#x128;" 
d="M59 0v118l129 15v448l-129 15v118h411v-118l-125 -15v-448l125 -15v-118h-411zM88 770q0 27 4.5 55t15.5 51.5t28.5 37.5t45.5 14q22 0 41.5 -7t36.5 -16.5t34 -17t33 -7.5q17 0 24 12t11 37h80q-2 -80 -29 -119t-68 -39q-22 0 -41.5 7.5t-37.5 17t-34.5 16.5t-31.5 7
q-13 0 -21 -10.5t-10 -38.5h-81z" />
    <glyph glyph-name="itilde" unicode="&#x129;" 
d="M36 0v117l161 17v283l-126 13v123h285v-419l137 -17v-117h-457zM88 609q0 27 4.5 55t15.5 51.5t28.5 37.5t45.5 14q22 0 41.5 -7t36.5 -16.5t34 -17t33 -7.5q17 0 24 12t11 37h80q-2 -80 -29 -119t-68 -39q-22 0 -41.5 7.5t-37.5 17t-34.5 16.5t-31.5 7q-13 0 -21 -10.5
t-10 -38.5h-81z" />
    <glyph glyph-name="Imacron" unicode="&#x12a;" 
d="M59 0v118l129 15v448l-129 15v118h411v-118l-125 -15v-448l125 -15v-118h-411zM117 777v105h296v-105h-296z" />
    <glyph glyph-name="imacron" unicode="&#x12b;" 
d="M36 0v117l161 17v283l-126 13v123h285v-419l137 -17v-117h-457zM117 616v105h296v-105h-296z" />
    <glyph glyph-name="Ibreve" unicode="&#x12c;" 
d="M59 0v118l129 15v448l-129 15v118h411v-118l-125 -15v-448l125 -15v-118h-411zM264 768q-70 0 -114.5 44t-45.5 128h91q3 -25 11 -40t23 -22t35 -7q30 0 48 15.5t22 53.5h91q-1 -81 -45 -126.5t-116 -45.5z" />
    <glyph glyph-name="ibreve" unicode="&#x12d;" 
d="M36 0v117l161 17v283l-126 13v123h285v-419l137 -17v-117h-457zM264 607q-70 0 -114.5 44t-45.5 128h91q3 -25 11 -40t23 -22t35 -7q30 0 48 15.5t22 53.5h91q-1 -81 -45 -126.5t-116 -45.5z" />
    <glyph glyph-name="Iogonek" unicode="&#x12e;" 
d="M59 0v118l129 15v448l-129 15v118h411v-118l-125 -15v-448l125 -15v-118h-411zM357 -240q-60 0 -92 29t-32 79q0 23 9 48.5t29.5 51t53.5 49.5l75 -17q-31 -34 -42 -56t-11 -45q0 -17 10.5 -28.5t30.5 -11.5q13 0 23 2.5t17 6.5v-94q-12 -5 -30 -9.5t-41 -4.5z" />
    <glyph glyph-name="iogonek" unicode="&#x12f;" 
d="M36 0v117l161 17v283l-126 13v123h285v-419l137 -17v-117h-457zM277 606q-46 0 -70 21.5t-24 63.5q0 41 23.5 62.5t70.5 21.5q48 0 70 -21.5t22 -62.5q0 -40 -21.5 -62.5t-70.5 -22.5zM393 -240q-60 0 -92 29t-32 79q0 23 9 48.5t29.5 51t53.5 49.5l75 -17
q-31 -34 -42 -56t-11 -45q0 -17 10.5 -28.5t30.5 -11.5q13 0 23 2.5t17 6.5v-94q-12 -5 -30 -9.5t-41 -4.5z" />
    <glyph glyph-name="Idotaccent" unicode="&#x130;" 
d="M59 0v118l129 15v448l-129 15v118h411v-118l-125 -15v-448l125 -15v-118h-411zM266 767q-46 0 -70 21.5t-24 63.5q0 40 23.5 62t70.5 22q48 0 70 -22t22 -62t-21.5 -62.5t-70.5 -22.5z" />
    <glyph glyph-name="dotlessi" unicode="&#x131;" 
d="M36 0v117l161 17v283l-126 13v123h285v-419l137 -17v-117h-457z" />
    <glyph glyph-name="IJ" unicode="&#x132;" 
d="M214 -9q-20 0 -45 2t-52.5 6.5t-55.5 10.5v143q26 -6 48 -10t40.5 -5.5t32.5 -1.5q42 0 71 15t43.5 53.5t14.5 108.5v401h158v-437q0 -87 -27 -151.5t-82.5 -99.5t-145.5 -35zM61 232v482h157v-482h-157z" />
    <glyph glyph-name="ij" unicode="&#x133;" 
d="M261 -245q-34 0 -70.5 5.5t-72.5 18.5v134q20 -6 40 -10.5t37.5 -6.5t31.5 -2q33 0 50.5 10.5t24 34.5t6.5 64v550h160v-586q0 -105 -46.5 -158.5t-160.5 -53.5zM65 0v553h159v-553h-159zM146 606q-45 0 -70 21.5t-25 63.5q0 41 24 62.5t71 21.5t69.5 -21.5t22.5 -62.5
q0 -40 -22 -62.5t-70 -22.5zM384 606q-46 0 -70.5 21.5t-24.5 63.5q0 41 23.5 62.5t71.5 21.5t71 -21.5t23 -62.5q0 -40 -23 -62.5t-71 -22.5z" />
    <glyph glyph-name="Jcircumflex" unicode="&#x134;" 
d="M185 -9q-32 0 -67.5 4t-70.5 14v139q38 -10 68 -13.5t46 -3.5q45 0 75 16t45.5 50.5t15.5 89.5v427h158v-460q0 -81 -29 -140t-88.5 -91t-152.5 -32zM202 780q15 19 34.5 46t37.5 54.5t27 46.5h148q12 -22 28 -47t34.5 -50t36.5 -50v-13h-96q-18 14 -36.5 33t-40.5 44
q-23 -25 -41.5 -44.5t-34.5 -32.5h-97v13z" />
    <glyph glyph-name="jcircumflex" unicode="&#x135;" 
d="M185 -245q-33 0 -77 5.5t-82 18.5v134q23 -6 48.5 -10.5t48 -6.5t34.5 -2q33 0 50 10t23.5 34t6.5 65v414l-154 12v124h313v-586q0 -107 -47 -159.5t-164 -52.5zM142 619q15 19 34.5 46t37.5 54.5t27 46.5h148q12 -22 28 -47t34.5 -50t36.5 -50v-13h-96q-18 14 -36.5 33
t-40.5 44q-23 -25 -41.5 -44.5t-34.5 -32.5h-97v13z" />
    <glyph glyph-name="uni0136" unicode="&#x136;" 
d="M29 0v714h158v-333q12 27 25.5 54t25.5 53l107 226h174l-162 -323l159 -391h-181l-98 265l-50 -44v-221h-158zM170 -211q5 18 9.5 45.5t8.5 56t4 48.5h147v-9q-9 -26 -19.5 -51.5t-23 -51t-27.5 -48.5h-99v10z" />
    <glyph glyph-name="uni0137" unicode="&#x137;" 
d="M36 0v760h158v-304q0 -23 -1.5 -49t-3.5 -52.5t-5 -49.5h3q14 23 27 45t29 46l100 157h179l-168 -255l171 -298h-183l-99 197l-49 -35v-162h-158zM173 -211q5 18 9.5 45.5t8.5 56t4 48.5h147v-9q-9 -26 -19.5 -51.5t-23 -51t-27.5 -48.5h-99v10z" />
    <glyph glyph-name="kgreenlandic" unicode="&#x138;" 
d="M36 0v553h158v-97q0 -23 -1.5 -49t-3.5 -52.5t-5 -49.5h3q14 23 27 45t29 46l100 157h179l-168 -255l171 -298h-183l-99 197l-49 -35v-162h-158z" />
    <glyph glyph-name="Lacute" unicode="&#x139;" 
d="M61 0v714h161v-570h262v-144h-423zM70 780q17 26 32.5 51t29.5 49.5t25 46.5h172v-9q-15 -18 -41.5 -45.5t-55.5 -55.5t-54 -50h-108v13z" />
    <glyph glyph-name="lacute" unicode="&#x13a;" 
d="M36 0v116l156 18v495l-127 11v120h286v-626l142 -18v-116h-457zM195 826q17 26 32.5 51t29.5 49.5t25 46.5h172v-9q-15 -18 -41.5 -45.5t-55.5 -55.5t-54 -50h-108v13z" />
    <glyph glyph-name="uni013B" unicode="&#x13b;" 
d="M61 0v714h161v-570h262v-144h-423zM187 -211q5 18 9.5 45.5t8.5 56t4 48.5h147v-9q-9 -26 -19.5 -51.5t-23 -51t-27.5 -48.5h-99v10z" />
    <glyph glyph-name="uni013C" unicode="&#x13c;" 
d="M36 0v116l156 18v495l-127 11v120h286v-626l142 -18v-116h-457zM178 -211q5 18 9.5 45.5t8.5 56t4 48.5h147v-9q-9 -26 -19.5 -51.5t-23 -51t-27.5 -48.5h-99v10z" />
    <glyph glyph-name="Lcaron" unicode="&#x13d;" 
d="M325 562q3 13 6.5 32.5t6.5 41.5t5.5 42.5t3.5 35.5h146v-9q-8 -24 -18.5 -50t-23.5 -51.5t-27 -49.5h-99v8zM61 0v714h161v-570h262v-144h-423z" />
    <glyph glyph-name="lcaron" unicode="&#x13e;" 
d="M389 608q3 13 6.5 32.5t6.5 41.5t5.5 42.5t3.5 35.5h146v-9q-8 -24 -18.5 -50t-23.5 -51.5t-27 -49.5h-99v8zM36 0v116l156 18v495l-127 11v120h286v-626l142 -18v-116h-457z" />
    <glyph glyph-name="Ldot" unicode="&#x13f;" 
d="M61 0v714h161v-570h262v-144h-423zM403 310q-39 0 -64.5 22t-25.5 66q0 45 24.5 67.5t65.5 22.5q40 0 64 -22.5t24 -67.5q0 -44 -24 -66t-64 -22z" />
    <glyph glyph-name="ldot" unicode="&#x140;" 
d="M531 308q-39 0 -64.5 22t-25.5 66q0 45 24.5 67.5t65.5 22.5q40 0 64 -22.5t24 -67.5q0 -44 -24 -66t-64 -22zM36 0v116l156 18v495l-127 11v120h286v-626l142 -18v-116h-457z" />
    <glyph glyph-name="Lslash" unicode="&#x141;" 
d="M59 207l-68 103l344 243l70 -96zM91 0v714h161v-570h262v-144h-423z" />
    <glyph glyph-name="lslash" unicode="&#x142;" 
d="M144 214l-69 98l328 227l69 -95zM36 0v116l156 18v495l-127 11v120h286v-626l142 -18v-116h-457z" />
    <glyph glyph-name="Nacute" unicode="&#x143;" 
d="M29 0v714h223l112 -569h6q-2 31 -5 65t-5 68.5t-3.5 66t-1.5 56.5v313h145v-714h-217l-118 573h-6q2 -43 5 -78.5t5 -66t4 -58.5t2 -55v-315h-146zM200 780q17 26 32.5 51t29.5 49.5t25 46.5h172v-9q-15 -18 -41.5 -45.5t-55.5 -55.5t-54 -50h-108v13z" />
    <glyph glyph-name="nacute" unicode="&#x144;" 
d="M38 0v553h128l19 -64h7q14 23 33 39.5t45 25.5t60 9q81 0 124 -50.5t43 -152.5v-360h-161v322q0 59 -15 82.5t-45 23.5q-42 0 -59.5 -35.5t-17.5 -112.5v-280h-161zM206 619q17 26 32.5 51t29.5 49.5t25 46.5h172v-9q-15 -18 -41.5 -45.5t-55.5 -55.5t-54 -50h-108v13z
" />
    <glyph glyph-name="uni0145" unicode="&#x145;" 
d="M29 0v714h223l112 -569h6q-2 31 -5 65t-5 68.5t-3.5 66t-1.5 56.5v313h145v-714h-217l-118 573h-6q2 -43 5 -78.5t5 -66t4 -58.5t2 -55v-315h-146zM168 -211q5 18 9.5 45.5t8.5 56t4 48.5h147v-9q-9 -26 -19.5 -51.5t-23 -51t-27.5 -48.5h-99v10z" />
    <glyph glyph-name="uni0146" unicode="&#x146;" 
d="M38 0v553h128l19 -64h7q14 23 33 39.5t45 25.5t60 9q81 0 124 -50.5t43 -152.5v-360h-161v322q0 59 -15 82.5t-45 23.5q-42 0 -59.5 -35.5t-17.5 -112.5v-280h-161zM174 -211q5 18 9.5 45.5t8.5 56t4 48.5h147v-9q-9 -26 -19.5 -51.5t-23 -51t-27.5 -48.5h-99v10z" />
    <glyph glyph-name="Ncaron" unicode="&#x147;" 
d="M29 0v714h223l112 -569h6q-2 31 -5 65t-5 68.5t-3.5 66t-1.5 56.5v313h145v-714h-217l-118 573h-6q2 -43 5 -78.5t5 -66t4 -58.5t2 -55v-315h-146zM196 767q-9 20 -27 47.5t-38 54.5t-34 45v13h97q18 -14 36.5 -33t39.5 -44q22 26 40.5 44.5t36.5 32.5h96v-13
q-14 -19 -33 -45.5t-36.5 -53.5t-29.5 -48h-148z" />
    <glyph glyph-name="ncaron" unicode="&#x148;" 
d="M38 0v553h128l19 -64h7q14 23 33 39.5t45 25.5t60 9q81 0 124 -50.5t43 -152.5v-360h-161v322q0 59 -15 82.5t-45 23.5q-42 0 -59.5 -35.5t-17.5 -112.5v-280h-161zM202 606q-9 20 -27 47.5t-38 54.5t-34 45v13h97q18 -14 36.5 -33t39.5 -44q22 26 40.5 44.5t36.5 32.5
h96v-13q-14 -19 -33 -45.5t-36.5 -53.5t-29.5 -48h-148z" />
    <glyph glyph-name="napostrophe" unicode="&#x149;" 
d="M48 0v553h128l19 -69h10q13 26 31 43.5t43 26.5t58 9q77 0 118.5 -50.5t41.5 -152.5v-360h-161v306q0 60 -14 86.5t-44 26.5q-37 0 -53 -41.5t-16 -128.5v-249h-161zM-133 435q6 28 12.5 64.5t12 76.5t9.5 76t6 62h146l6 -11q-8 -50 -19 -97.5t-23.5 -90.5t-27.5 -80
h-122z" />
    <glyph glyph-name="Eng" unicode="&#x14a;" 
d="M298 -221q-23 0 -44.5 3t-39.5 8v115q13 -4 28.5 -7t34.5 -3q33 0 53.5 12t31 35.5t10.5 60.5v105l128 21v-132q0 -104 -50 -161t-152 -57zM29 0v714h223l112 -569h6q-2 31 -5 65t-5 68.5t-3.5 66t-1.5 56.5v313h145v-714h-217l-118 573h-6q2 -43 5 -78.5t5 -66t4 -58.5
t2 -55v-315h-146z" />
    <glyph glyph-name="eng" unicode="&#x14b;" 
d="M315 -240q-20 0 -42 3t-41 8v129q13 -4 24 -6.5t23 -2.5q23 0 40 17t17 57v295l161 29v-340q0 -51 -19 -94t-59 -69t-104 -26zM38 0v553h128l19 -64h7q14 23 33 39.5t45 25.5t60 9q81 0 124 -50.5t43 -152.5v-360h-161v322q0 59 -15 82.5t-45 23.5q-42 0 -59.5 -35.5
t-17.5 -112.5v-280h-161z" />
    <glyph glyph-name="Omacron" unicode="&#x14c;" 
d="M264 -8q-64 0 -110.5 24t-77 70.5t-45.5 115t-15 157.5q0 116 26 197.5t80.5 125t141.5 43.5q65 0 112 -24t77.5 -71t45 -115.5t14.5 -156.5t-14.5 -156t-45 -115t-77.5 -71t-112 -24zM266 136q34 0 52 27t25 77t7 119q0 110 -17 165.5t-67 55.5q-33 0 -51.5 -25.5
t-26.5 -75t-8 -120.5q0 -70 8 -120t27 -76.5t51 -26.5zM117 777v105h296v-105h-296z" />
    <glyph glyph-name="omacron" unicode="&#x14d;" 
d="M266 -10q-65 0 -111.5 23t-75.5 63.5t-42.5 93t-13.5 110.5q0 79 25.5 143.5t78.5 102t136 37.5q75 0 130 -34t84.5 -98t29.5 -155q0 -56 -12.5 -107.5t-40 -92t-74 -63.5t-114.5 -23zM265 129q29 0 46.5 17t25 50.5t7.5 81.5q0 47 -8 79.5t-25.5 49t-45.5 16.5
q-42 0 -60.5 -37.5t-18.5 -107.5q0 -48 8 -81.5t25.5 -50.5t45.5 -17zM117 616v105h296v-105h-296z" />
    <glyph glyph-name="Obreve" unicode="&#x14e;" 
d="M264 -8q-64 0 -110.5 24t-77 70.5t-45.5 115t-15 157.5q0 116 26 197.5t80.5 125t141.5 43.5q65 0 112 -24t77.5 -71t45 -115.5t14.5 -156.5t-14.5 -156t-45 -115t-77.5 -71t-112 -24zM266 136q34 0 52 27t25 77t7 119q0 110 -17 165.5t-67 55.5q-33 0 -51.5 -25.5
t-26.5 -75t-8 -120.5q0 -70 8 -120t27 -76.5t51 -26.5zM264 768q-70 0 -114.5 44t-45.5 128h91q3 -25 11 -40t23 -22t35 -7q30 0 48 15.5t22 53.5h91q-1 -81 -45 -126.5t-116 -45.5z" />
    <glyph glyph-name="obreve" unicode="&#x14f;" 
d="M266 -10q-65 0 -111.5 23t-75.5 63.5t-42.5 93t-13.5 110.5q0 79 25.5 143.5t78.5 102t136 37.5q75 0 130 -34t84.5 -98t29.5 -155q0 -56 -12.5 -107.5t-40 -92t-74 -63.5t-114.5 -23zM265 129q29 0 46.5 17t25 50.5t7.5 81.5q0 47 -8 79.5t-25.5 49t-45.5 16.5
q-42 0 -60.5 -37.5t-18.5 -107.5q0 -48 8 -81.5t25.5 -50.5t45.5 -17zM264 607q-70 0 -114.5 44t-45.5 128h91q3 -25 11 -40t23 -22t35 -7q30 0 48 15.5t22 53.5h91q-1 -81 -45 -126.5t-116 -45.5z" />
    <glyph glyph-name="Ohungarumlaut" unicode="&#x150;" 
d="M264 -8q-64 0 -110.5 24t-77 70.5t-45.5 115t-15 157.5q0 116 26 197.5t80.5 125t141.5 43.5q65 0 112 -24t77.5 -71t45 -115.5t14.5 -156.5t-14.5 -156t-45 -115t-77.5 -71t-112 -24zM266 136q34 0 52 27t25 77t7 119q0 110 -17 165.5t-67 55.5q-33 0 -51.5 -25.5
t-26.5 -75t-8 -120.5q0 -70 8 -120t27 -76.5t51 -26.5zM286 780q19 32 34.5 60t27 50.5t17.5 36.5h137v-9q-11 -20 -35.5 -48t-51.5 -55.5t-48 -47.5h-81v13zM108 780q19 33 34 61t26.5 50t18.5 36h136v-9q-12 -20 -35.5 -47.5t-51 -55t-52.5 -48.5h-76v13z" />
    <glyph glyph-name="ohungarumlaut" unicode="&#x151;" 
d="M266 -10q-65 0 -111.5 23t-75.5 63.5t-42.5 93t-13.5 110.5q0 79 25.5 143.5t78.5 102t136 37.5q75 0 130 -34t84.5 -98t29.5 -155q0 -56 -12.5 -107.5t-40 -92t-74 -63.5t-114.5 -23zM265 129q29 0 46.5 17t25 50.5t7.5 81.5q0 47 -8 79.5t-25.5 49t-45.5 16.5
q-42 0 -60.5 -37.5t-18.5 -107.5q0 -48 8 -81.5t25.5 -50.5t45.5 -17zM286 619q19 32 34.5 60t27 50.5t17.5 36.5h137v-9q-11 -20 -35.5 -48t-51.5 -55.5t-48 -47.5h-81v13zM108 619q19 33 34 61t26.5 50t18.5 36h136v-9q-12 -20 -35.5 -47.5t-51 -55t-52.5 -48.5h-76v13z
" />
    <glyph glyph-name="OE" unicode="&#x152;" 
d="M223 -11q-79 0 -124 45.5t-64 128.5t-19 197q0 83 10 150t32 115t59.5 74t93.5 26q16 0 35 -2.5t45 -8.5h225v-143h-114v-130h97v-142h-97v-156h114v-143h-219q-18 -6 -36.5 -8.5t-37.5 -2.5zM237 132q8 0 14.5 1.5t13.5 5.5v437q-6 5 -12.5 6.5t-12.5 1.5
q-21 0 -35.5 -14.5t-24 -43.5t-13.5 -72t-4 -99q0 -75 6.5 -124.5t22.5 -74t45 -24.5z" />
    <glyph glyph-name="oe" unicode="&#x153;" 
d="M168 -10q-57 0 -92.5 36.5t-51.5 102.5t-16 155q0 57 7 107t25 88.5t48 60.5t76 22q37 0 66.5 -16t48.5 -48q12 22 26 36t32.5 21t41.5 7q55 0 87 -36t45.5 -99.5t13.5 -145.5v-51h-180q0 -37 8.5 -62.5t26.5 -39t44 -13.5q21 0 43 8.5t45 27.5v-124q-23 -19 -50.5 -28
t-56.5 -9q-37 0 -67.5 14.5t-53.5 45.5q-23 -30 -51.5 -45t-64.5 -15zM173 119q17 0 25.5 18.5t11 55t2.5 89.5q0 51 -2.5 84.5t-11 50.5t-25.5 17q-23 0 -31 -38.5t-8 -113.5q0 -81 8 -122t31 -41zM409 335q0 38 -4 60t-12 31.5t-19 9.5q-8 0 -14.5 -5t-11 -16.5t-7.5 -31
t-3 -48.5h71z" />
    <glyph glyph-name="Racute" unicode="&#x154;" 
d="M49 0v714h193q84 0 139 -23.5t82.5 -70t27.5 -116.5q0 -45 -10 -81.5t-32 -65.5t-57 -52l133 -305h-175l-95 260h-49v-260h-157zM239 399q31 0 52 10t32.5 30.5t11.5 51.5q0 42 -22 63t-72 21h-35v-176h33zM195 780q17 26 32.5 51t29.5 49.5t25 46.5h172v-9
q-15 -18 -41.5 -45.5t-55.5 -55.5t-54 -50h-108v13z" />
    <glyph glyph-name="racute" unicode="&#x155;" 
d="M26 0v117l120 17v283l-105 13v123h217l18 -91h8q14 43 49 72t90 29q16 0 41 -3.5t55 -15.5l-40 -162q-16 8 -38.5 12t-38.5 4q-34 0 -58 -15t-36.5 -43.5t-12.5 -71.5v-134l139 -17v-117h-408zM214 619q17 26 32.5 51t29.5 49.5t25 46.5h172v-9q-15 -18 -41.5 -45.5
t-55.5 -55.5t-54 -50h-108v13z" />
    <glyph glyph-name="uni0156" unicode="&#x156;" 
d="M49 0v714h193q84 0 139 -23.5t82.5 -70t27.5 -116.5q0 -45 -10 -81.5t-32 -65.5t-57 -52l133 -305h-175l-95 260h-49v-260h-157zM239 399q31 0 52 10t32.5 30.5t11.5 51.5q0 42 -22 63t-72 21h-35v-176h33zM186 -211q5 18 9.5 45.5t8.5 56t4 48.5h147v-9
q-9 -26 -19.5 -51.5t-23 -51t-27.5 -48.5h-99v10z" />
    <glyph glyph-name="uni0157" unicode="&#x157;" 
d="M26 0v117l120 17v283l-105 13v123h217l18 -91h8q14 43 49 72t90 29q16 0 41 -3.5t55 -15.5l-40 -162q-16 8 -38.5 12t-38.5 4q-34 0 -58 -15t-36.5 -43.5t-12.5 -71.5v-134l139 -17v-117h-408zM133 -211q5 18 9.5 45.5t8.5 56t4 48.5h147v-9q-9 -26 -19.5 -51.5t-23 -51
t-27.5 -48.5h-99v10z" />
    <glyph glyph-name="Rcaron" unicode="&#x158;" 
d="M49 0v714h193q84 0 139 -23.5t82.5 -70t27.5 -116.5q0 -45 -10 -81.5t-32 -65.5t-57 -52l133 -305h-175l-95 260h-49v-260h-157zM239 399q31 0 52 10t32.5 30.5t11.5 51.5q0 42 -22 63t-72 21h-35v-176h33zM191 767q-9 20 -27 47.5t-38 54.5t-34 45v13h97
q18 -14 36.5 -33t39.5 -44q22 26 40.5 44.5t36.5 32.5h96v-13q-14 -19 -33 -45.5t-36.5 -53.5t-29.5 -48h-148z" />
    <glyph glyph-name="rcaron" unicode="&#x159;" 
d="M26 0v117l120 17v283l-105 13v123h217l18 -91h8q14 43 49 72t90 29q16 0 41 -3.5t55 -15.5l-40 -162q-16 8 -38.5 12t-38.5 4q-34 0 -58 -15t-36.5 -43.5t-12.5 -71.5v-134l139 -17v-117h-408zM210 606q-9 20 -27 47.5t-38 54.5t-34 45v13h97q18 -14 36.5 -33t39.5 -44
q22 26 40.5 44.5t36.5 32.5h96v-13q-14 -19 -33 -45.5t-36.5 -53.5t-29.5 -48h-148z" />
    <glyph glyph-name="Sacute" unicode="&#x15a;" 
d="M239 -10q-48 0 -93 10t-94 35v162q46 -32 91.5 -48.5t93.5 -16.5q34 0 53.5 8.5t27.5 22.5t8 31q0 24 -13 39.5t-39 31.5t-67 41q-48 30 -83.5 60t-54.5 68t-19 91q0 62 26 106.5t77 68.5t127 24q57 0 105 -13t94 -38l-48 -134q-42 24 -76.5 33.5t-62.5 9.5
q-27 0 -44.5 -7t-26 -20.5t-8.5 -31.5t10 -31.5t33 -28.5t61 -38q56 -34 94 -64t57.5 -67t19.5 -94q0 -50 -15.5 -89.5t-46 -66t-77.5 -40.5t-110 -14zM206 780q17 26 32.5 51t29.5 49.5t25 46.5h172v-9q-15 -18 -41.5 -45.5t-55.5 -55.5t-54 -50h-108v13z" />
    <glyph glyph-name="sacute" unicode="&#x15b;" 
d="M238 -10q-49 0 -92 8t-83 24v147q41 -21 90.5 -32.5t91.5 -11.5q38 0 54.5 9t16.5 25q0 14 -12 24t-37.5 21.5t-67.5 29.5q-43 19 -73 43t-45 54.5t-15 67.5q0 53 25 89.5t74 55.5t119 19q49 0 96.5 -10t97.5 -33l-50 -126q-39 20 -72.5 28t-62.5 8q-33 0 -48 -8.5
t-15 -22.5q0 -12 11 -21t34.5 -18.5t59.5 -26.5q50 -23 81 -44.5t45.5 -49t14.5 -69.5q0 -57 -25 -97.5t-77.5 -61.5t-135.5 -21zM206 619q17 26 32.5 51t29.5 49.5t25 46.5h172v-9q-15 -18 -41.5 -45.5t-55.5 -55.5t-54 -50h-108v13z" />
    <glyph glyph-name="Scircumflex" unicode="&#x15c;" 
d="M239 -10q-48 0 -93 10t-94 35v162q46 -32 91.5 -48.5t93.5 -16.5q34 0 53.5 8.5t27.5 22.5t8 31q0 24 -13 39.5t-39 31.5t-67 41q-48 30 -83.5 60t-54.5 68t-19 91q0 62 26 106.5t77 68.5t127 24q57 0 105 -13t94 -38l-48 -134q-42 24 -76.5 33.5t-62.5 9.5
q-27 0 -44.5 -7t-26 -20.5t-8.5 -31.5t10 -31.5t33 -28.5t61 -38q56 -34 94 -64t57.5 -67t19.5 -94q0 -50 -15.5 -89.5t-46 -66t-77.5 -40.5t-110 -14zM103 780q15 19 34.5 46t37.5 54.5t27 46.5h148q12 -22 28 -47t34.5 -50t36.5 -50v-13h-96q-18 14 -36.5 33t-40.5 44
q-23 -25 -41.5 -44.5t-34.5 -32.5h-97v13z" />
    <glyph glyph-name="scircumflex" unicode="&#x15d;" 
d="M238 -10q-49 0 -92 8t-83 24v147q41 -21 90.5 -32.5t91.5 -11.5q38 0 54.5 9t16.5 25q0 14 -12 24t-37.5 21.5t-67.5 29.5q-43 19 -73 43t-45 54.5t-15 67.5q0 53 25 89.5t74 55.5t119 19q49 0 96.5 -10t97.5 -33l-50 -126q-39 20 -72.5 28t-62.5 8q-33 0 -48 -8.5
t-15 -22.5q0 -12 11 -21t34.5 -18.5t59.5 -26.5q50 -23 81 -44.5t45.5 -49t14.5 -69.5q0 -57 -25 -97.5t-77.5 -61.5t-135.5 -21zM103 619q15 19 34.5 46t37.5 54.5t27 46.5h148q12 -22 28 -47t34.5 -50t36.5 -50v-13h-96q-18 14 -36.5 33t-40.5 44q-23 -25 -41.5 -44.5
t-34.5 -32.5h-97v13z" />
    <glyph glyph-name="Scedilla" unicode="&#x15e;" 
d="M239 -10q-48 0 -93 10t-94 35v162q46 -32 91.5 -48.5t93.5 -16.5q34 0 53.5 8.5t27.5 22.5t8 31q0 24 -13 39.5t-39 31.5t-67 41q-48 30 -83.5 60t-54.5 68t-19 91q0 62 26 106.5t77 68.5t127 24q57 0 105 -13t94 -38l-48 -134q-42 24 -76.5 33.5t-62.5 9.5
q-27 0 -44.5 -7t-26 -20.5t-8.5 -31.5t10 -31.5t33 -28.5t61 -38q56 -34 94 -64t57.5 -67t19.5 -94q0 -50 -15.5 -89.5t-46 -66t-77.5 -40.5t-110 -14zM246 -240q-18 0 -39.5 2.5t-38.5 6.5v85q15 -4 28.5 -6t23.5 -2q22 0 33 8t11 23q0 19 -18 29.5t-51 13.5l34 81h79
l-15 -37q42 -8 64.5 -31t22.5 -64q0 -49 -34 -79t-100 -30z" />
    <glyph glyph-name="scedilla" unicode="&#x15f;" 
d="M238 -10q-49 0 -92 8t-83 24v147q41 -21 90.5 -32.5t91.5 -11.5q38 0 54.5 9t16.5 25q0 14 -12 24t-37.5 21.5t-67.5 29.5q-43 19 -73 43t-45 54.5t-15 67.5q0 53 25 89.5t74 55.5t119 19q49 0 96.5 -10t97.5 -33l-50 -126q-39 20 -72.5 28t-62.5 8q-33 0 -48 -8.5
t-15 -22.5q0 -12 11 -21t34.5 -18.5t59.5 -26.5q50 -23 81 -44.5t45.5 -49t14.5 -69.5q0 -57 -25 -97.5t-77.5 -61.5t-135.5 -21zM257 -240q-18 0 -39.5 2.5t-38.5 6.5v85q15 -4 28.5 -6t23.5 -2q22 0 33 8t11 23q0 19 -18 29.5t-51 13.5l34 81h79l-15 -37q42 -8 64.5 -31
t22.5 -64q0 -49 -34 -79t-100 -30z" />
    <glyph glyph-name="Scaron" unicode="&#x160;" 
d="M239 -10q-48 0 -93 10t-94 35v162q46 -32 91.5 -48.5t93.5 -16.5q34 0 53.5 8.5t27.5 22.5t8 31q0 24 -13 39.5t-39 31.5t-67 41q-48 30 -83.5 60t-54.5 68t-19 91q0 62 26 106.5t77 68.5t127 24q57 0 105 -13t94 -38l-48 -134q-42 24 -76.5 33.5t-62.5 9.5
q-27 0 -44.5 -7t-26 -20.5t-8.5 -31.5t10 -31.5t33 -28.5t61 -38q56 -34 94 -64t57.5 -67t19.5 -94q0 -50 -15.5 -89.5t-46 -66t-77.5 -40.5t-110 -14zM202 767q-9 20 -27 47.5t-38 54.5t-34 45v13h97q18 -14 36.5 -33t39.5 -44q22 26 40.5 44.5t36.5 32.5h96v-13
q-14 -19 -33 -45.5t-36.5 -53.5t-29.5 -48h-148z" />
    <glyph glyph-name="scaron" unicode="&#x161;" 
d="M238 -10q-49 0 -92 8t-83 24v147q41 -21 90.5 -32.5t91.5 -11.5q38 0 54.5 9t16.5 25q0 14 -12 24t-37.5 21.5t-67.5 29.5q-43 19 -73 43t-45 54.5t-15 67.5q0 53 25 89.5t74 55.5t119 19q49 0 96.5 -10t97.5 -33l-50 -126q-39 20 -72.5 28t-62.5 8q-33 0 -48 -8.5
t-15 -22.5q0 -12 11 -21t34.5 -18.5t59.5 -26.5q50 -23 81 -44.5t45.5 -49t14.5 -69.5q0 -57 -25 -97.5t-77.5 -61.5t-135.5 -21zM202 606q-9 20 -27 47.5t-38 54.5t-34 45v13h97q18 -14 36.5 -33t39.5 -44q22 26 40.5 44.5t36.5 32.5h96v-13q-14 -19 -33 -45.5t-36.5 -53.5
t-29.5 -48h-148z" />
    <glyph glyph-name="uni0162" unicode="&#x162;" 
d="M185 0v571h-169v143h497v-143h-168v-571h-160zM246 -240q-18 0 -39.5 2.5t-38.5 6.5v85q15 -4 28.5 -6t23.5 -2q22 0 33 8t11 23q0 19 -18 29.5t-51 13.5l34 81h79l-15 -37q42 -8 64.5 -31t22.5 -64q0 -49 -34 -79t-100 -30z" />
    <glyph glyph-name="uni0163" unicode="&#x163;" 
d="M335 -10q-63 0 -106.5 22t-66 68t-22.5 114v223h-126v77l139 58l41 129h107v-128h194v-136h-194v-195q0 -40 13 -59t32.5 -24.5t38.5 -5.5q22 0 50 4.5t63 16.5v-136q-37 -14 -80 -21t-83 -7zM301 -240q-18 0 -39.5 2.5t-38.5 6.5v85q15 -4 28.5 -6t23.5 -2q22 0 33 8
t11 23q0 19 -18 29.5t-51 13.5l34 81h79l-15 -37q42 -8 64.5 -31t22.5 -64q0 -49 -34 -79t-100 -30z" />
    <glyph glyph-name="Tcaron" unicode="&#x164;" 
d="M185 0v571h-169v143h497v-143h-168v-571h-160zM191 767q-9 20 -27 47.5t-38 54.5t-34 45v13h97q18 -14 36.5 -33t39.5 -44q22 26 40.5 44.5t36.5 32.5h96v-13q-14 -19 -33 -45.5t-36.5 -53.5t-29.5 -48h-148z" />
    <glyph glyph-name="tcaron" unicode="&#x165;" 
d="M374 608q4 13 7 32.5t6.5 41.5t6 42.5t2.5 35.5h147v-9q-9 -24 -19.5 -50t-23 -51.5t-27.5 -49.5h-99v8zM335 -10q-63 0 -106.5 22t-66 68t-22.5 114v223h-126v77l139 58l41 129h107v-128h194v-136h-194v-195q0 -40 13 -59t32.5 -24.5t38.5 -5.5q22 0 50 4.5t63 16.5
v-136q-37 -14 -80 -21t-83 -7z" />
    <glyph glyph-name="Tbar" unicode="&#x166;" 
d="M93 287v124h344v-124h-344zM185 0v571h-169v143h497v-143h-168v-571h-160z" />
    <glyph glyph-name="tbar" unicode="&#x167;" 
d="M14 230v105h484v-105h-484zM335 -10q-63 0 -106.5 22t-66 68t-22.5 114v223h-126v77l139 58l41 129h107v-128h194v-136h-194v-195q0 -40 13 -59t32.5 -24.5t38.5 -5.5q22 0 50 4.5t63 16.5v-136q-37 -14 -80 -21t-83 -7z" />
    <glyph glyph-name="Utilde" unicode="&#x168;" 
d="M264 -10q-81 0 -133.5 31t-77 93.5t-24.5 157.5v442h161v-428q0 -54 6 -87.5t22 -48t45 -14.5q32 0 48.5 15.5t22 49t5.5 86.5v427h161v-439q0 -94 -24 -157.5t-76 -95.5t-136 -32zM88 770q0 27 4.5 55t15.5 51.5t28.5 37.5t45.5 14q22 0 41.5 -7t36.5 -16.5t34 -17
t33 -7.5q17 0 24 12t11 37h80q-2 -80 -29 -119t-68 -39q-22 0 -41.5 7.5t-37.5 17t-34.5 16.5t-31.5 7q-13 0 -21 -10.5t-10 -38.5h-81z" />
    <glyph glyph-name="utilde" unicode="&#x169;" 
d="M197 -10q-79 0 -121.5 50.5t-42.5 152.5v360h161v-311q0 -56 15 -84.5t51 -28.5q30 0 45 16t20.5 49.5t5.5 84.5v274h161v-553h-128l-19 69h-10q-13 -26 -33 -43.5t-45.5 -26.5t-59.5 -9zM88 609q0 27 4.5 55t15.5 51.5t28.5 37.5t45.5 14q22 0 41.5 -7t36.5 -16.5
t34 -17t33 -7.5q17 0 24 12t11 37h80q-2 -80 -29 -119t-68 -39q-22 0 -41.5 7.5t-37.5 17t-34.5 16.5t-31.5 7q-13 0 -21 -10.5t-10 -38.5h-81z" />
    <glyph glyph-name="Umacron" unicode="&#x16a;" 
d="M264 -10q-81 0 -133.5 31t-77 93.5t-24.5 157.5v442h161v-428q0 -54 6 -87.5t22 -48t45 -14.5q32 0 48.5 15.5t22 49t5.5 86.5v427h161v-439q0 -94 -24 -157.5t-76 -95.5t-136 -32zM117 777v105h296v-105h-296z" />
    <glyph glyph-name="umacron" unicode="&#x16b;" 
d="M197 -10q-79 0 -121.5 50.5t-42.5 152.5v360h161v-311q0 -56 15 -84.5t51 -28.5q30 0 45 16t20.5 49.5t5.5 84.5v274h161v-553h-128l-19 69h-10q-13 -26 -33 -43.5t-45.5 -26.5t-59.5 -9zM117 616v105h296v-105h-296z" />
    <glyph glyph-name="Ubreve" unicode="&#x16c;" 
d="M264 -10q-81 0 -133.5 31t-77 93.5t-24.5 157.5v442h161v-428q0 -54 6 -87.5t22 -48t45 -14.5q32 0 48.5 15.5t22 49t5.5 86.5v427h161v-439q0 -94 -24 -157.5t-76 -95.5t-136 -32zM264 768q-70 0 -114.5 44t-45.5 128h91q3 -25 11 -40t23 -22t35 -7q30 0 48 15.5
t22 53.5h91q-1 -81 -45 -126.5t-116 -45.5z" />
    <glyph glyph-name="ubreve" unicode="&#x16d;" 
d="M197 -10q-79 0 -121.5 50.5t-42.5 152.5v360h161v-311q0 -56 15 -84.5t51 -28.5q30 0 45 16t20.5 49.5t5.5 84.5v274h161v-553h-128l-19 69h-10q-13 -26 -33 -43.5t-45.5 -26.5t-59.5 -9zM264 607q-70 0 -114.5 44t-45.5 128h91q3 -25 11 -40t23 -22t35 -7q30 0 48 15.5
t22 53.5h91q-1 -81 -45 -126.5t-116 -45.5z" />
    <glyph glyph-name="Uring" unicode="&#x16e;" 
d="M264 -10q-81 0 -133.5 31t-77 93.5t-24.5 157.5v442h161v-428q0 -54 6 -87.5t22 -48t45 -14.5q32 0 48.5 15.5t22 49t5.5 86.5v427h161v-439q0 -94 -24 -157.5t-76 -95.5t-136 -32zM266 759q-60 0 -96 35t-36 92q0 56 36 91t96 35q56 0 92 -35.5t36 -90.5t-35 -91
t-93 -36zM264 840q21 0 34 12.5t13 33.5q0 20 -13 33t-34 13q-20 0 -33 -12.5t-13 -33.5t12.5 -33.5t33.5 -12.5z" />
    <glyph glyph-name="uring" unicode="&#x16f;" 
d="M197 -10q-79 0 -121.5 50.5t-42.5 152.5v360h161v-311q0 -56 15 -84.5t51 -28.5q30 0 45 16t20.5 49.5t5.5 84.5v274h161v-553h-128l-19 69h-10q-13 -26 -33 -43.5t-45.5 -26.5t-59.5 -9zM266 598q-60 0 -96 35t-36 92q0 56 36 91t96 35q56 0 92 -35.5t36 -90.5t-35 -91
t-93 -36zM264 679q21 0 34 12.5t13 33.5q0 20 -13 33t-34 13q-20 0 -33 -12.5t-13 -33.5t12.5 -33.5t33.5 -12.5z" />
    <glyph glyph-name="Uhungarumlaut" unicode="&#x170;" 
d="M264 -10q-81 0 -133.5 31t-77 93.5t-24.5 157.5v442h161v-428q0 -54 6 -87.5t22 -48t45 -14.5q32 0 48.5 15.5t22 49t5.5 86.5v427h161v-439q0 -94 -24 -157.5t-76 -95.5t-136 -32zM286 780q19 32 34.5 60t27 50.5t17.5 36.5h137v-9q-11 -20 -35.5 -48t-51.5 -55.5
t-48 -47.5h-81v13zM108 780q19 33 34 61t26.5 50t18.5 36h136v-9q-12 -20 -35.5 -47.5t-51 -55t-52.5 -48.5h-76v13z" />
    <glyph glyph-name="uhungarumlaut" unicode="&#x171;" 
d="M197 -10q-79 0 -121.5 50.5t-42.5 152.5v360h161v-311q0 -56 15 -84.5t51 -28.5q30 0 45 16t20.5 49.5t5.5 84.5v274h161v-553h-128l-19 69h-10q-13 -26 -33 -43.5t-45.5 -26.5t-59.5 -9zM286 619q19 32 34.5 60t27 50.5t17.5 36.5h137v-9q-11 -20 -35.5 -48t-51.5 -55.5
t-48 -47.5h-81v13zM108 619q19 33 34 61t26.5 50t18.5 36h136v-9q-12 -20 -35.5 -47.5t-51 -55t-52.5 -48.5h-76v13z" />
    <glyph glyph-name="Uogonek" unicode="&#x172;" 
d="M300 -240q-59 0 -90.5 28.5t-31.5 81.5q0 33 14 62.5t43.5 55.5t77.5 47l79 -17q-34 -21 -56.5 -40.5t-33 -38.5t-10.5 -38t10.5 -30.5t32.5 -11.5q11 0 21 2.5t17 6.5v-94q-12 -5 -30 -9.5t-43 -4.5zM264 -10q-81 0 -133.5 31t-77 93.5t-24.5 157.5v442h161v-428
q0 -54 6 -87.5t22 -48t45 -14.5q32 0 48.5 15.5t22 49t5.5 86.5v427h161v-439q0 -94 -24 -157.5t-76 -95.5t-136 -32z" />
    <glyph glyph-name="uogonek" unicode="&#x173;" 
d="M197 -10q-79 0 -121.5 50.5t-42.5 152.5v360h161v-311q0 -56 15 -84.5t51 -28.5q30 0 45 16t20.5 49.5t5.5 84.5v274h161v-553h-128l-19 69h-10q-13 -26 -33 -43.5t-45.5 -26.5t-59.5 -9zM418 -240q-60 0 -92 29t-32 79q0 23 9 48.5t29.5 51t53.5 49.5l75 -17
q-31 -34 -42 -56t-11 -45q0 -17 10.5 -28.5t30.5 -11.5q13 0 23 2.5t17 6.5v-94q-12 -5 -30 -9.5t-41 -4.5z" />
    <glyph glyph-name="Wcircumflex" unicode="&#x174;" 
d="M42 0l-37 714h130q3 -51 5 -93t4 -76.5t3.5 -65.5t1.5 -64q1 -17 1.5 -40t0.5 -49.5t1 -57t1 -62.5t1 -65h5q2 23 5.5 54t7 63.5t6.5 62t5 48.5l18 184h128l19 -185q3 -23 6 -53t6 -61.5t5.5 -61.5t4.5 -52h6q0 35 0.5 67.5t1 62.5t1 57t0.5 50.5t1 41.5q1 28 1.5 53.5
t1.5 52t2.5 55t3.5 61.5t3 73h133l-38 -714h-190l-14 179q-2 27 -5 64l-6 74t-4 62h-5q-2 -25 -4 -62t-5 -74t-5 -64l-14 -179h-193zM92 780q15 19 34.5 46t37.5 54.5t27 46.5h148q12 -22 28 -47t34.5 -50t36.5 -50v-13h-96q-18 14 -36.5 33t-40.5 44q-23 -25 -41.5 -44.5
t-34.5 -32.5h-97v13z" />
    <glyph glyph-name="wcircumflex" unicode="&#x175;" 
d="M59 0l-59 553h141l5 -256q0 -17 0.5 -39t0.5 -44.5v-39.5h6q1 14 2.5 29t4 32t5.5 34l39 212h122l36 -212q3 -19 5 -35t4 -30.5t4 -29.5h5q1 19 1 40t0.5 42.5t0.5 38.5l7 258h138l-59 -553h-169l-20 152q-4 37 -7.5 75.5t-5.5 69.5h-6q-1 -31 -5.5 -69.5t-10.5 -75.5
l-21 -152h-164zM93 619q15 19 34.5 46t37.5 54.5t27 46.5h148q12 -22 28 -47t34.5 -50t36.5 -50v-13h-96q-18 14 -36.5 33t-40.5 44q-23 -25 -41.5 -44.5t-34.5 -32.5h-97v13z" />
    <glyph glyph-name="Ycircumflex" unicode="&#x176;" 
d="M186 0v276l-178 438h173l85 -266l84 266h172l-180 -437v-277h-156zM92 780q15 19 34.5 46t37.5 54.5t27 46.5h148q12 -22 28 -47t34.5 -50t36.5 -50v-13h-96q-18 14 -36.5 33t-40.5 44q-23 -25 -41.5 -44.5t-34.5 -32.5h-97v13z" />
    <glyph glyph-name="ycircumflex" unicode="&#x177;" 
d="M100 -245q-18 0 -35.5 2t-35.5 6v130q11 -3 22.5 -4.5t22.5 -1.5q23 0 46.5 7t44.5 28t33 63l6 17l-198 551h177l70 -262q8 -27 12 -48.5t7 -42.5h4q2 13 4.5 28t6 31t6.5 32l58 262h172l-181 -597q-21 -72 -54 -116.5t-79.5 -64.5t-108.5 -20zM92 619q15 19 34.5 46
t37.5 54.5t27 46.5h148q12 -22 28 -47t34.5 -50t36.5 -50v-13h-96q-18 14 -36.5 33t-40.5 44q-23 -25 -41.5 -44.5t-34.5 -32.5h-97v13z" />
    <glyph glyph-name="Ydieresis" unicode="&#x178;" 
d="M186 0v276l-178 438h173l85 -266l84 266h172l-180 -437v-277h-156zM366 763q-31 0 -50.5 19t-19.5 54q0 37 19.5 56t50.5 19q33 0 52.5 -20t19.5 -55t-19.5 -54t-52.5 -19zM162 763q-30 0 -50 18.5t-20 54.5q0 37 20 56t50 19q32 0 52 -20t20 -55t-20 -54t-52 -19z" />
    <glyph glyph-name="Zacute" unicode="&#x179;" 
d="M49 0v115l262 458h-254v141h429v-115l-253 -456h255v-143h-439zM200 780q17 26 32.5 51t29.5 49.5t25 46.5h172v-9q-15 -18 -41.5 -45.5t-55.5 -55.5t-54 -50h-108v13z" />
    <glyph glyph-name="zacute" unicode="&#x17a;" 
d="M48 0v100l231 318h-222v135h413v-113l-220 -304h232v-136h-434zM194 619q17 26 32.5 51t29.5 49.5t25 46.5h172v-9q-15 -18 -41.5 -45.5t-55.5 -55.5t-54 -50h-108v13z" />
    <glyph glyph-name="Zdotaccent" unicode="&#x17b;" 
d="M49 0v115l262 458h-254v141h429v-115l-253 -456h255v-143h-439zM271 767q-46 0 -70 21.5t-24 63.5q0 40 23.5 62t70.5 22q48 0 70 -22t22 -62t-21.5 -62.5t-70.5 -22.5z" />
    <glyph glyph-name="zdotaccent" unicode="&#x17c;" 
d="M48 0v100l231 318h-222v135h413v-113l-220 -304h232v-136h-434zM265 606q-46 0 -70 21.5t-24 63.5q0 40 23.5 62t70.5 22q48 0 70 -22t22 -62t-21.5 -62.5t-70.5 -22.5z" />
    <glyph glyph-name="Zcaron" unicode="&#x17d;" 
d="M49 0v115l262 458h-254v141h429v-115l-253 -456h255v-143h-439zM196 767q-9 20 -27 47.5t-38 54.5t-34 45v13h97q18 -14 36.5 -33t39.5 -44q22 26 40.5 44.5t36.5 32.5h96v-13q-14 -19 -33 -45.5t-36.5 -53.5t-29.5 -48h-148z" />
    <glyph glyph-name="zcaron" unicode="&#x17e;" 
d="M48 0v100l231 318h-222v135h413v-113l-220 -304h232v-136h-434zM190 606q-9 20 -27 47.5t-38 54.5t-34 45v13h97q18 -14 36.5 -33t39.5 -44q22 26 40.5 44.5t36.5 32.5h96v-13q-14 -19 -33 -45.5t-36.5 -53.5t-29.5 -48h-148z" />
    <glyph glyph-name="longs" unicode="&#x17f;" 
d="M164 564q0 73 20 117t62 64t106 20q31 0 61 -4.5t62 -17.5l-31 -120q-16 6 -31.5 8.5t-31.5 2.5q-27 0 -42 -16.5t-15 -63.5v-554h-160v564z" />
    <glyph glyph-name="uni0180" unicode="&#x180;" 
d="M-6 588v114h330v-114h-330zM321 -10q-34 0 -66.5 15t-59.5 51h-10l-21 -56h-126v760h157v-182q0 -22 -2 -43t-5 -52h6q22 42 57.5 61t74.5 19q47 0 81.5 -22.5t56.5 -62.5t32.5 -91t10.5 -108q0 -63 -13 -116.5t-37 -92t-58 -59.5t-78 -21zM267 129q39 0 57 37t18 112
t-18 110t-56 35q-39 0 -57.5 -35.5t-18.5 -110.5q0 -77 18.5 -112.5t56.5 -35.5z" />
    <glyph glyph-name="uni0181" unicode="&#x181;" 
d="M158 0v714h154q106 0 149.5 -45.5t43.5 -132.5q0 -71 -24.5 -108t-61.5 -49v-5q30 -9 52.5 -28.5t34.5 -52t12 -82.5q0 -66 -22 -113t-63.5 -72.5t-100.5 -25.5h-174zM322 130q29 0 40.5 27t11.5 66q0 24 -5 43t-16.5 30t-33.5 11h-15v-177h18zM7 465q-2 8 -4.5 29
t-2.5 42q0 55 17 94.5t52 61.5t89 22h28v-130h-27q-23 0 -35.5 -15t-12.5 -46q0 -17 2 -33t4 -25h-110zM313 431q27 0 38.5 23.5t11.5 56.5q0 25 -4 41t-15 24t-32 8h-8v-153h9z" />
    <glyph glyph-name="uni0182" unicode="&#x182;" 
d="M49 0v714h404v-136h-242v-126h39q83 0 139.5 -25.5t85 -74.5t28.5 -119q0 -112 -65 -172.5t-185 -60.5h-204zM247 134q48 0 72 23t24 71q0 31 -11 51.5t-32.5 29.5t-53.5 9h-36v-184h37z" />
    <glyph glyph-name="uni0183" unicode="&#x183;" 
d="M116 622v138h332v-138h-332zM321 -10q-34 0 -66.5 15t-59.5 51h-10l-21 -56h-126v760h157v-182q0 -22 -2 -43t-5 -52h6q22 42 57.5 61t74.5 19q47 0 81.5 -22.5t56.5 -62.5t32.5 -91t10.5 -108q0 -63 -13 -116.5t-37 -92t-58 -59.5t-78 -21zM267 129q39 0 57 37t18 112
t-18 110t-56 35q-39 0 -57.5 -35.5t-18.5 -110.5q0 -77 18.5 -112.5t56.5 -35.5z" />
    <glyph glyph-name="uni0184" unicode="&#x184;" 
d="M271 -10q-73 0 -122.5 24.5t-74 75.5t-24.5 131v493h159v-262h59q84 0 135.5 -26.5t75.5 -77t24 -122.5q0 -70 -26 -123.5t-77.5 -83t-128.5 -29.5zM276 125q30 0 48.5 22t18.5 74q0 38 -11.5 59t-31.5 29.5t-47 8.5h-44v-93q0 -34 6.5 -56.5t21.5 -33t39 -10.5z" />
    <glyph glyph-name="uni0185" unicode="&#x185;" 
d="M265 -10q-77 0 -127 32.5t-75 94t-25 149.5v494h157v-170q0 -35 -2.5 -60.5t-5.5 -41.5h8q12 20 29.5 36.5t43 27t63.5 10.5q56 0 95 -31.5t60 -95t21 -160.5q0 -99 -32.5 -162t-87 -93t-122.5 -30zM269 129q36 0 54.5 32.5t18.5 113.5q0 77 -17 113t-56 36t-56.5 -31
t-17.5 -93v-33q0 -52 8.5 -82t25 -43t40.5 -13z" />
    <glyph glyph-name="uni0186" unicode="&#x186;" 
d="M221 -10q-45 0 -91 10t-84 30v150q34 -20 72 -33t76 -13q47 0 78 23.5t47 71.5t16 121q0 53 -9 95.5t-27 72.5t-46.5 46t-67.5 16q-27 0 -57.5 -8t-61.5 -29l-45 134q41 24 83.5 36t97.5 12q70 0 124.5 -26.5t92.5 -76t58 -120.5t20 -158q0 -111 -31.5 -190.5t-93 -121.5
t-151.5 -42z" />
    <glyph glyph-name="uni0187" unicode="&#x187;" 
d="M372 726q0 56 22 91t57 52t73 17q26 0 43 -3.5t26 -7.5v-132q-7 2 -17 4t-23 2q-20 0 -32 -12.5t-12 -46.5v-13h-137v49zM309 -10q-91 0 -152.5 42t-92.5 121.5t-31 190.5q0 87 20 158t58 120.5t92.5 76t124.5 26.5q55 0 97.5 -12t83.5 -36l-45 -134q-30 21 -61 29t-58 8
q-39 0 -67.5 -16t-46.5 -46t-27 -72.5t-9 -95.5q0 -73 16 -121t47.5 -71.5t77.5 -23.5q38 0 76 13t72 33v-150q-38 -20 -84 -30t-91 -10z" />
    <glyph glyph-name="uni0188" unicode="&#x188;" 
d="M351 586q0 94 42 136t107 42q27 0 47 -5.5t27 -10.5v-121q-8 3 -19.5 6.5t-26.5 3.5q-19 0 -30 -13t-11 -41v-62h-136v65zM309 -10q-78 0 -136 30.5t-91 94t-33 159.5q0 82 27 147.5t85 103.5t150 38q47 0 93 -10.5t83 -31.5l-48 -128q-29 15 -56.5 22.5t-56.5 7.5
q-39 0 -64 -17t-37.5 -49t-12.5 -78q0 -54 15 -87t42 -48t62 -15q29 0 66 10.5t71 39.5v-150q-34 -21 -76.5 -30t-82.5 -9z" />
    <glyph glyph-name="Dtail" unicode="&#x189;" 
d="M0 296v123h267v-123h-267zM36 0v714h207q89 0 150.5 -41.5t94 -117.5t32.5 -183q0 -117 -36.5 -200.5t-100 -127.5t-145.5 -44h-202zM226 141q68 0 99.5 59t31.5 159q0 73 -14 120t-41 70.5t-68 23.5h-41v-432h33z" />
    <glyph glyph-name="uni018A" unicode="&#x18a;" 
d="M149 0v714h159q77 0 122 -36.5t64.5 -112.5t19.5 -193q0 -128 -21 -210.5t-68 -122t-121 -39.5h-155zM306 141q14 0 25 10t18.5 34.5t12 67t4.5 106.5q0 84 -6 130.5t-19 65t-34 18.5h-9v-432h8zM7 465q-2 8 -4.5 29t-2.5 42q0 55 17 94.5t52 61.5t88 22h27v-130h-29
q-23 0 -35.5 -15t-12.5 -46q0 -17 2 -33t3 -25h-105z" />
    <glyph glyph-name="uni018B" unicode="&#x18b;" 
d="M86 567v147h300v-147h-300zM480 714v-714h-221q-119 0 -176 59t-57 169q0 70 24 125t76 86.5t137 31.5h59v243h158zM279 336q-34 0 -55.5 -11.5t-31.5 -34t-10 -56.5q0 -50 22.5 -75t65.5 -25h52v202h-43z" />
    <glyph glyph-name="uni018C" unicode="&#x18c;" 
d="M80 627v133h316v-133h-316zM205 -10q-47 0 -81.5 22t-57 60.5t-33 90.5t-10.5 112q0 85 21 150t62.5 101.5t102.5 36.5q26 0 50 -8t44 -25.5t35 -46.5h8q-3 19 -5.5 38t-4 38t-1.5 38v163h157v-760h-128l-18 72h-8q-14 -28 -34.5 -46.5t-45 -27t-53.5 -8.5zM262 129
q38 0 58.5 31t20.5 99v15q0 53 -7 86t-23 48t-45 15q-43 0 -62.5 -38.5t-19.5 -109.5q0 -75 19.5 -110.5t58.5 -35.5z" />
    <glyph glyph-name="uni018D" unicode="&#x18d;" 
d="M268 563q77 0 130 -26.5t81 -76.5t28 -122q0 -56 -18.5 -100.5t-55.5 -76t-91 -50.5q46 -34 71.5 -74t25.5 -89q0 -51 -24.5 -87.5t-71.5 -55.5t-114 -19q-55 0 -104.5 13.5t-95.5 39.5l55 120q40 -24 76 -36.5t65 -12.5q33 0 48.5 10.5t15.5 28.5q0 14 -8.5 27
t-29.5 30.5t-62 44.5q-56 35 -93 75t-54.5 89t-17.5 111q0 73 28.5 126.5t84 82t131.5 28.5zM267 437q-41 0 -63.5 -29t-22.5 -84q0 -48 20.5 -84t59.5 -62q24 8 44 29.5t32.5 52.5t12.5 70q0 34 -10 57.5t-28.5 36.5t-44.5 13z" />
    <glyph glyph-name="uni018E" unicode="&#x18e;" 
d="M480 0h-434v143h275v149h-260v143h260v135h-275v144h434v-714z" />
    <glyph glyph-name="uni018F" unicode="&#x18f;" 
d="M255 -10q-75 0 -126.5 37t-78 117t-26.5 209v55h307q-2 51 -14.5 90.5t-41 62t-80.5 22.5q-42 0 -78.5 -10.5t-64.5 -24.5v142q26 12 68.5 23.5t103.5 11.5q96 0 156.5 -41.5t89 -123t28.5 -202.5q0 -97 -16.5 -167t-48 -114.5t-76 -65.5t-102.5 -21zM255 132
q22 0 37.5 14.5t25 48.5t11.5 91h-145q2 -87 21 -120.5t50 -33.5z" />
    <glyph glyph-name="uni0190" unicode="&#x190;" 
d="M285 -10q-81 0 -137.5 25.5t-86 73t-29.5 111.5q0 74 40 116.5t116 54.5v4q-42 11 -70.5 31.5t-43 53.5t-14.5 80q0 56 28.5 97.5t80 64t119.5 22.5q75 0 128.5 -18.5t94.5 -48.5l-72 -124q-24 17 -53.5 29t-68.5 12t-60 -16.5t-21 -46.5q0 -23 10 -37t33 -21t63 -7h58
v-148h-65q-60 0 -92.5 -19.5t-32.5 -58.5q0 -42 28 -61t88 -19q31 0 62 5.5t59.5 15t50.5 22.5v-154q-38 -18 -89.5 -28.5t-123.5 -10.5z" />
    <glyph glyph-name="uni0191" unicode="&#x191;" 
d="M162 -246q-92 0 -138.5 45.5t-46.5 117.5q0 25 6 45.5t15 37.5l134 -40q-4 -8 -6 -15.5t-2 -15.5q0 -13 8.5 -22.5t23.5 -9.5q19 0 28.5 16t9.5 42v759h315v-143h-155v-130h140v-143h-140v-341q0 -66 -23.5 -111t-66.5 -68.5t-102 -23.5z" />
    <glyph glyph-name="fhook" unicode="&#x192;" 
d="M172 -245q-77 0 -126.5 38t-49.5 115q0 18 4 34.5t10 28.5l131 -32q-2 -6 -3.5 -12t-1.5 -14q0 -14 8 -22t20 -8q16 0 24 11.5t8 35.5v487h-116v88l116 47v30q0 60 20.5 101t63 62t108.5 21q32 0 67 -6t72 -21l-42 -129q-21 10 -38.5 13t-31.5 3q-30 0 -44 -14t-14 -46
v-13h130v-136h-130v-479q0 -61 -23 -101.5t-64.5 -61t-97.5 -20.5z" />
    <glyph glyph-name="uni0193" unicode="&#x193;" 
d="M359 727q0 56 22 91t57 51.5t72 16.5q26 0 46.5 -5t28.5 -10v-136q-8 3 -21 6.5t-28 3.5q-17 0 -27.5 -12t-10.5 -41v-12h-139v47zM320 -10q-103 0 -170.5 40.5t-100.5 119t-33 191.5q0 124 36.5 209.5t106 130t165.5 44.5q56 0 98.5 -13t75.5 -32l-45 -131
q-30 18 -57.5 25.5t-56.5 7.5q-55 0 -91.5 -26t-54 -78.5t-17.5 -130.5q0 -62 14 -110t41.5 -75.5t70.5 -27.5q12 0 26.5 2t25.5 6v136h-66v138h212v-384q-45 -23 -90 -32.5t-90 -9.5z" />
    <glyph glyph-name="Gammalatin" unicode="&#x194;" 
d="M264 -240q-86 0 -124 46.5t-38 121.5q0 35 8.5 67.5t25 69t39.5 80.5l-167 569h168l57 -258q6 -25 13 -60t13 -67.5t7 -49.5q2 18 7.5 50t12 67t11.5 61l57 257h168l-169 -573q25 -44 42 -80t26 -68t9 -67q0 -46 -17 -84t-53.5 -60t-95.5 -22zM266 -140q15 0 25 14.5
t10 44.5q0 15 -3.5 33.5t-11 40t-20.5 41.5q-14 -20 -21 -40.5t-10 -39t-3 -32.5q0 -32 10 -47t24 -15z" />
    <glyph glyph-name="uni0195" unicode="&#x195;" 
d="M351 -14q-49 0 -80.5 18t-46.5 50.5t-15 77.5v275q0 15 -5 21.5t-14 6.5q-7 0 -12 -4t-7.5 -11.5t-2.5 -22.5v-397h-125v760h126v-139q0 -34 -1.5 -59.5t-6.5 -55.5h6q10 27 30 42t51 15q38 0 62 -26t24 -93v-305q0 -12 4 -19t12 -7t12.5 6.5t4.5 19.5v414h125v-420
q0 -67 -34.5 -107t-106.5 -40z" />
    <glyph glyph-name="Iotalatin" unicode="&#x196;" 
d="M325 -10q-54 0 -97 18t-67.5 60t-24.5 114v532h161v-486q0 -35 10.5 -54t28.5 -26t37 -7q14 0 27 2.5t27 7t27 10.5v-140q-24 -15 -58 -23t-71 -8z" />
    <glyph glyph-name="uni0197" unicode="&#x197;" 
d="M81 304v137h368v-137h-368zM59 0v118l129 15v448l-129 15v118h411v-118l-125 -15v-448l125 -15v-118h-411z" />
    <glyph glyph-name="uni0198" unicode="&#x198;" 
d="M29 0v714h158v-333q8 18 18 40t19.5 40.5t13.5 26.5l45 89q27 53 49.5 85.5t49.5 48t66 15.5q30 0 49.5 -5.5t32.5 -11.5v-141q-8 4 -20 7.5t-25 3.5q-19 0 -32 -10.5t-26 -37.5l-70 -140l159 -391h-181l-98 265l-50 -53v-212h-158z" />
    <glyph glyph-name="uni0199" unicode="&#x199;" 
d="M36 571q0 64 19.5 107.5t57 65.5t90.5 22q27 0 50 -4.5t36 -9.5v-139q-10 4 -22 6.5t-25 2.5q-24 0 -36 -14t-12 -44v-108q0 -23 -1.5 -49t-3.5 -52.5t-5 -49.5h3q14 23 27 45t29 46l100 157h179l-168 -255l171 -298h-183l-99 197l-49 -35v-162h-158v571z" />
    <glyph glyph-name="uni019A" unicode="&#x19a;" 
d="M76 313v120h386v-120h-386zM36 0v116l156 18v495l-127 11v120h286v-626l142 -18v-116h-457z" />
    <glyph glyph-name="uni019B" unicode="&#x19b;" 
d="M109 487l-37 99l301 109l36 -99zM449 -10q-43 0 -73 15t-48 45.5t-29 76.5l-25 124q-4 15 -6.5 27t-5 23.5t-4.5 23.5h-4q-3 -20 -7.5 -38.5t-9.5 -34.5l-68 -252h-159l176 520l-14 49q-9 32 -24.5 51.5t-46.5 19.5q-11 0 -22.5 -1.5t-23.5 -5.5v126q14 4 34 6t38 2
q51 0 86 -18t60 -59t45 -110l105 -388q8 -27 17 -42.5t20.5 -21t25.5 -5.5q10 0 19 1.5t17 4.5v-129q-9 -2 -21.5 -4.5t-26 -4t-25.5 -1.5z" />
    <glyph glyph-name="uni019C" unicode="&#x19c;" 
d="M105 -10q-40 0 -59 23.5t-24.5 67.5t-5.5 103v530h131v-533q0 -20 1.5 -35t7 -23.5t17.5 -8.5q14 0 20 10t7.5 25.5t1.5 32.5v532h126v-531q0 -21 1.5 -37t7 -24t17.5 -8t18 8t8 23.5t2 36.5v532h131v-714h-114l-18 63h-6q-8 -27 -20 -43t-28 -23t-37 -7q-26 0 -42.5 9.5
t-26 27.5t-15.5 44h-5q-16 -37 -36.5 -59t-59.5 -22z" />
    <glyph glyph-name="uni019D" unicode="&#x19d;" 
d="M2 -256q-24 0 -43.5 4t-36.5 8v117q10 -3 23 -6.5t29 -3.5q20 0 32.5 11.5t17.5 39.5t5 76v236l146 2v-254q0 -84 -20.5 -134.5t-59 -73t-93.5 -22.5zM29 0v714h223l112 -569h6q-2 31 -5 65t-5 68.5t-3.5 66t-1.5 56.5v313h145v-714h-217l-118 573h-6q2 -43 5 -78.5
t5 -66t4 -58.5t2 -55v-315h-146z" />
    <glyph glyph-name="uni019E" unicode="&#x19e;" 
d="M336 -240v308h161v-308h-161zM38 0v553h128l19 -64h7q14 23 33 39.5t45 25.5t60 9q81 0 124 -50.5t43 -152.5v-360h-161v322q0 59 -15 82.5t-45 23.5q-42 0 -59.5 -35.5t-17.5 -112.5v-280h-161z" />
    <glyph glyph-name="uni019F" unicode="&#x19f;" 
d="M97 291v134h343v-134h-343zM264 -8q-64 0 -110.5 24t-77 70.5t-45.5 115t-15 157.5q0 116 26 197.5t80.5 125t141.5 43.5q65 0 112 -24t77.5 -71t45 -115.5t14.5 -156.5t-14.5 -156t-45 -115t-77.5 -71t-112 -24zM266 136q34 0 52 27t25 77t7 119q0 110 -17 165.5
t-67 55.5q-33 0 -51.5 -25.5t-26.5 -75t-8 -120.5q0 -70 8 -120t27 -76.5t51 -26.5z" />
    <glyph glyph-name="Ohorn" unicode="&#x1a0;" 
d="M264 -8q-64 0 -110.5 24t-77 70.5t-45.5 115t-15 157.5q0 116 26 197.5t80.5 125t141.5 43.5q65 0 112 -24t77.5 -71t45 -115.5t14.5 -156.5t-14.5 -156t-45 -115t-77.5 -71t-112 -24zM266 136q34 0 52 27t25 77t7 119q0 110 -17 165.5t-67 55.5q-33 0 -51.5 -25.5
t-26.5 -75t-8 -120.5q0 -70 8 -120t27 -76.5t51 -26.5zM404 674q27 15 39 31.5t12 41.5q0 18 -6.5 40.5t-24.5 53.5l113 60l11 -6q18 -39 24.5 -70.5t6.5 -56.5q0 -39 -13 -70t-40.5 -59t-72.5 -58z" />
    <glyph glyph-name="ohorn" unicode="&#x1a1;" horiz-adv-x="600" 
d="M266 -10q-65 0 -111.5 23t-75.5 63.5t-42.5 93t-13.5 110.5q0 79 25.5 143.5t78.5 102t136 37.5q75 0 130 -34t84.5 -98t29.5 -155q0 -56 -12.5 -107.5t-40 -92t-74 -63.5t-114.5 -23zM265 129q29 0 46.5 17t25 50.5t7.5 81.5q0 47 -8 79.5t-25.5 49t-45.5 16.5
q-42 0 -60.5 -37.5t-18.5 -107.5q0 -48 8 -81.5t25.5 -50.5t45.5 -17zM434 500q27 15 39 31.5t12 41.5q0 18 -6.5 40.5t-24.5 53.5l113 60l11 -6q18 -39 24.5 -70.5t6.5 -56.5q0 -39 -13 -70t-40.5 -59t-72.5 -58z" />
    <glyph glyph-name="uni01A2" unicode="&#x1a2;" horiz-adv-x="1060" 
d="M345 -10q-75 0 -131.5 25t-93.5 73t-55.5 116t-18.5 154q0 118 33 200t99.5 124.5t166.5 42.5q81 0 137.5 -29t92 -80t52 -117.5t16.5 -141.5q0 -86 -18.5 -154t-55 -115.5t-93 -72.5t-131.5 -25zM345 129q45 0 74 25.5t43 76.5t14 127q0 114 -31.5 172t-99.5 58
q-44 0 -73.5 -26t-44 -77t-14.5 -127q0 -75 14.5 -126t43.5 -77t74 -26zM828 452q0 74 -29.5 104.5t-91.5 30.5q-36 0 -69 -13t-56 -33l-54 84q48 48 107.5 73.5t126.5 25.5q66 0 117 -22.5t80 -75.5t29 -144v-482h-160v452z" />
    <glyph glyph-name="uni01A3" unicode="&#x1a3;" 
d="M370 393q0 21 -6.5 31.5t-19.5 10.5q-9 0 -15.5 -4.5t-10.5 -12.5q2 -12 4 -34t4 -49t2 -57q0 -87 -12.5 -151.5t-46.5 -100.5t-97 -36q-56 0 -90.5 36.5t-49.5 101.5t-15 150q0 145 34.5 215.5t122.5 70.5q47 0 73 -16.5t44 -54.5q8 20 21.5 36t33.5 25.5t47 9.5
q56 0 83.5 -40.5t27.5 -122.5v-641h-134v633zM172 116q9 0 13 11t6.5 45.5t2.5 105.5q0 72 -2.5 106.5t-7 44t-12.5 9.5q-7 0 -11.5 -10t-7 -44.5t-2.5 -107.5q0 -71 2.5 -105t7.5 -44.5t11 -10.5z" />
    <glyph glyph-name="uni01A4" unicode="&#x1a4;" 
d="M133 582q-15 -3 -23.5 -18t-8.5 -44q0 -17 2.5 -32.5t3.5 -24.5h-106q-2 8 -4.5 31t-2.5 44q0 54 15 93.5t50 61t91 21.5h162q102 0 151.5 -59t49.5 -169q0 -69 -21 -124.5t-66.5 -87t-118.5 -31.5h-16v-243h-158v582zM299 378q19 0 32.5 10.5t20 33.5t6.5 58
q0 56 -14 78t-43 22h-10v-202h8z" />
    <glyph glyph-name="uni01A5" unicode="&#x1a5;" 
d="M38 572q0 64 18 106.5t54.5 64.5t89.5 22q21 0 46.5 -4t37.5 -9v-131q-10 4 -22 6.5t-25 2.5q-20 0 -31 -11t-11 -36v-9q0 -24 -2.5 -45.5t-7.5 -48.5h7q15 28 34 46.5t45.5 27.5t58.5 9q47 0 80.5 -23t55 -63t31.5 -90.5t10 -106.5q0 -89 -23.5 -154.5t-65.5 -100.5
t-95 -35q-27 0 -50 7t-42 21.5t-36 37.5h-9q2 -15 5.5 -49t3.5 -61v-186h-157v812zM273 129q38 0 53.5 37.5t15.5 111.5q0 73 -15.5 109t-55.5 36q-34 0 -55 -29.5t-21 -100.5v-16q0 -82 20.5 -115t57.5 -33z" />
    <glyph glyph-name="uni01A6" unicode="&#x1a6;" 
d="M348 -97l-93 260h-49v-163h-157v714h157v-97h36q84 0 139 -23.5t82.5 -70.5t27.5 -116q0 -45 -10 -81.5t-32 -66t-57 -51.5l126 -305h-170zM239 302q45 0 70.5 22.5t25.5 69.5q0 42 -22 63t-72 21h-35v-176h33z" />
    <glyph glyph-name="uni01A7" unicode="&#x1a7;" 
d="M291 -10q-63 0 -110 14t-77.5 40.5t-46 66t-15.5 89.5q0 57 19.5 94t57.5 67t94 64q38 23 61 38t33 28.5t10 31.5t-8.5 31.5t-26 20.5t-44.5 7q-28 0 -62 -9.5t-77 -33.5l-48 134q46 25 94.5 38t104.5 13q76 0 127 -24t77 -68.5t26 -106.5q0 -53 -19 -91t-54 -68t-84 -60
q-40 -25 -66.5 -41t-39.5 -31.5t-13 -39.5q0 -17 8 -31t27.5 -22.5t53.5 -8.5q48 0 93.5 16.5t91.5 48.5v-162q-49 -25 -94 -35t-93 -10z" />
    <glyph glyph-name="uni01A8" unicode="&#x1a8;" 
d="M292 -10q-82 0 -135 21t-78 61.5t-25 97.5q0 42 14.5 69.5t45.5 49t81 44.5q37 17 60 26.5t34 18.5t11 21q0 14 -14.5 22.5t-48.5 8.5q-29 0 -62 -8t-73 -28l-50 126q50 23 97.5 33t96.5 10q71 0 119.5 -19t73.5 -55.5t25 -89.5q0 -37 -15 -67.5t-45 -54.5t-73 -43
q-41 -18 -67 -29.5t-38 -21.5t-12 -24q0 -16 16.5 -25t54.5 -9q42 0 91.5 11.5t90.5 32.5v-147q-40 -16 -83 -24t-92 -8z" />
    <glyph glyph-name="uni01A9" unicode="&#x1a9;" 
d="M49 0v129l173 245l-164 215v125h408v-134h-136q-28 0 -51 1t-41 3l159 -209l-173 -244q27 3 52 4t49 1h163v-136h-439z" />
    <glyph glyph-name="uni01AA" unicode="&#x1aa;" 
d="M356 -240q-53 0 -91 18t-58.5 60.5t-20.5 114.5v573h-8q-80 0 -114 36t-34 87q0 34 16.5 61.5t51 44t88.5 16.5q61 0 96 -24t50 -68t15 -103v-603q0 -39 16.5 -54t41.5 -15q24 0 41 5.5t39 14.5v-133q-25 -15 -57.5 -23t-71.5 -8zM177 616h9v25q0 17 -8.5 26t-21.5 9
t-20 -7.5t-7 -17.5q0 -19 11.5 -27t36.5 -8z" />
    <glyph glyph-name="uni01AB" unicode="&#x1ab;" 
d="M335 -240q-20 0 -45 4t-40 9v129q11 -4 22 -6.5t22 -2.5q25 0 41.5 14.5t16.5 46.5v85l146 51v-137q0 -94 -41.5 -143.5t-121.5 -49.5zM335 -10q-63 0 -106.5 22t-66 68t-22.5 114v223h-126v77l139 58l41 129h107v-128h194v-136h-194v-195q0 -40 13 -59t32.5 -24.5
t38.5 -5.5q22 0 50 4.5t63 16.5v-136q-37 -14 -80 -21t-83 -7z" />
    <glyph glyph-name="uni01AC" unicode="&#x1ac;" 
d="M208 0v565h-19q-25 0 -35 -14.5t-10 -35.5q0 -16 3 -28t6 -21h-126q-4 8 -8.5 25t-4.5 46q0 46 16.5 86t56.5 65.5t111 25.5h315v-143h-145v-571h-160z" />
    <glyph glyph-name="uni01AD" unicode="&#x1ad;" 
d="M335 -10q-63 0 -106.5 22t-66 68t-22.5 114v223h-126v77l126 59v19q0 95 43 144t129 49q30 0 53 -4.5t37 -9.5v-133q-10 3 -24 6t-30 3q-24 0 -35.5 -13.5t-11.5 -41.5v-20h194v-135h-194v-195q0 -40 13 -59t32.5 -24.5t38.5 -5.5q22 0 50 4.5t63 16.5v-136
q-37 -14 -80 -21t-83 -7z" />
    <glyph glyph-name="uni01AE" unicode="&#x1ae;" 
d="M371 -245q-99 0 -142.5 50t-43.5 164v602h-169v143h497v-143h-168v-597q0 -36 12.5 -55t46.5 -19q16 0 28.5 3t23.5 7v-143q-17 -5 -39 -8.5t-46 -3.5z" />
    <glyph glyph-name="Uhorn" unicode="&#x1af;" 
d="M264 -10q-81 0 -133.5 31t-77 93.5t-24.5 157.5v442h161v-428q0 -54 6 -87.5t22 -48t45 -14.5q32 0 48.5 15.5t22 49t5.5 86.5v427h161v-439q0 -94 -24 -157.5t-76 -95.5t-136 -32zM407 701q27 15 39 31.5t12 41.5q0 18 -6.5 40.5t-24.5 53.5l113 60l11 -6
q18 -39 24.5 -70.5t6.5 -56.5q0 -39 -13 -70t-40.5 -59t-72.5 -58z" />
    <glyph glyph-name="uhorn" unicode="&#x1b0;" horiz-adv-x="600" 
d="M197 -10q-79 0 -121.5 50.5t-42.5 152.5v360h161v-311q0 -56 15 -84.5t51 -28.5q30 0 45 16t20.5 49.5t5.5 84.5v274h161v-553h-128l-19 69h-10q-13 -26 -33 -43.5t-45.5 -26.5t-59.5 -9zM458 535q27 15 39 31.5t12 41.5q0 18 -6.5 40.5t-24.5 53.5l113 60l11 -6
q18 -39 24.5 -70.5t6.5 -56.5q0 -39 -13 -70t-40.5 -59t-72.5 -58z" />
    <glyph glyph-name="Upsilonlatin" unicode="&#x1b1;" 
d="M525 714v-132h-121q29 -23 53.5 -61.5t40 -93t15.5 -129.5q0 -97 -29 -166.5t-84.5 -106t-132.5 -36.5q-75 0 -131 35t-87 105t-31 175q0 67 13.5 120.5t38.5 92.5t59 65h-124v132h230v-147q-36 -33 -53.5 -91.5t-17.5 -147.5q0 -69 11 -115t33.5 -69t56.5 -23
q35 0 57 22.5t32.5 69t10.5 115.5q0 60 -7.5 106.5t-22.5 79t-38 53.5v147h228z" />
    <glyph glyph-name="uni01B2" unicode="&#x1b2;" 
d="M264 -10q-81 0 -133.5 31t-77 93.5t-24.5 157.5v442h161v-428q0 -54 6 -87.5t22 -48t45 -14.5q32 0 48.5 15.5t22 49t5.5 86.5v244q0 20 -9.5 28.5t-22.5 8.5q-11 0 -20.5 -3t-20.5 -8v144q20 11 45 17t56 6q68 0 100.5 -42.5t32.5 -113.5v-293q0 -94 -24 -157.5
t-76 -95.5t-136 -32z" />
    <glyph glyph-name="uni01B3" unicode="&#x1b3;" 
d="M186 0v277l-178 437h173l84 -268l38 142q20 70 53 103.5t98 33.5q27 0 49.5 -5.5t35.5 -12.5v-136q-7 4 -17.5 7t-28.5 3q-15 0 -27.5 -6t-23.5 -23t-22 -48l-79 -229v-275h-155z" />
    <glyph glyph-name="uni01B4" unicode="&#x1b4;" 
d="M87 -245q-18 0 -35.5 2t-35.5 6v130q11 -3 22.5 -4.5t22.5 -1.5q23 0 46.5 7t44.5 28t33 63l6 17l-192 551h176l65 -262q7 -26 11.5 -48t7.5 -43h4q2 13 5 28t6.5 31t6.5 32l31 132q9 38 24 69.5t43.5 51t78.5 19.5q26 0 44 -4.5t31 -11.5v-142q-7 2 -14.5 4t-16.5 2
q-16 0 -26.5 -8.5t-20 -32.5t-23.5 -73l-103 -341q-20 -72 -53 -116.5t-80 -64.5t-109 -20z" />
    <glyph glyph-name="uni01B5" unicode="&#x1b5;" 
d="M68 288v137h411v-137h-411zM49 0v115l262 458h-254v141h429v-115l-253 -456h255v-143h-439z" />
    <glyph glyph-name="uni01B6" unicode="&#x1b6;" 
d="M68 218v117h400v-117h-400zM48 0v100l231 318h-222v135h413v-113l-220 -304h232v-136h-434z" />
    <glyph glyph-name="uni01B7" unicode="&#x1b7;" 
d="M226 -10q-55 0 -104.5 9.5t-88.5 28.5v145q35 -20 83 -33.5t94 -13.5q45 0 72 11t39 32t12 50q0 31 -15 52t-46.5 31.5t-84.5 10.5h-59v107l139 159h-213v135h411v-109l-165 -181q66 -7 110 -35.5t65 -74t21 -103.5q0 -66 -28 -116t-87.5 -77.5t-154.5 -27.5z" />
    <glyph glyph-name="uni01B8" unicode="&#x1b8;" 
d="M304 -10q-94 0 -154 27.5t-88 77.5t-28 116q0 58 21 103.5t65 74t110 35.5l-165 181v109h411v-135h-213l139 -159v-107h-59q-52 0 -84.5 -10.5t-47 -31.5t-14.5 -52q0 -29 12 -50t39 -32t71 -11q47 0 95 13.5t83 33.5v-145q-39 -19 -88.5 -28.5t-104.5 -9.5z" />
    <glyph glyph-name="uni01B9" unicode="&#x1b9;" 
d="M318 -240q-88 0 -149.5 32t-94 91.5t-32.5 139.5q0 69 24 116t67.5 73.5t101.5 32.5l-171 207v101h412v-125h-226l152 -187v-107h-45q-56 0 -91 -13t-51 -39t-16 -66q0 -38 14.5 -65.5t44 -42t73.5 -14.5q47 0 89 12.5t75 27.5v-139q-29 -12 -71.5 -23.5t-105.5 -11.5z
" />
    <glyph glyph-name="uni01BA" unicode="&#x1ba;" 
d="M242 -240q-63 0 -110.5 18.5t-73.5 56.5t-26 95q0 49 19 86.5t64 60t120 24.5q20 1 36 4t28 8.5t18 15t6 22.5q0 20 -12.5 31.5t-38.5 16.5t-67 5h-71v106l123 108h-195v135h409v-110l-149 -131q38 -4 69.5 -15.5t55.5 -32t37 -49.5t13 -69t-11.5 -71.5t-36.5 -54
t-64.5 -35.5t-93.5 -15q-40 -1 -61.5 -6t-30 -14t-8.5 -19q0 -21 20 -28.5t56 -7.5q65 0 115 14.5t82 26.5v-133q-36 -17 -95.5 -30t-126.5 -13z" />
    <glyph glyph-name="uni01BB" unicode="&#x1bb;" 
d="M48 284v117h445v-117h-445zM40 0v120l139 170q49 58 77 96t39.5 66t11.5 55q0 34 -16.5 52t-49.5 18t-63 -18.5t-67 -60.5l-84 112q35 40 70.5 65.5t75 37t83.5 11.5q64 0 114.5 -24t79.5 -71t29 -116q0 -39 -12 -78t-42.5 -84t-83.5 -103l-88 -96v-5h234v-147h-447z" />
    <glyph glyph-name="uni01BC" unicode="&#x1bc;" 
d="M234 -10q-54 0 -99.5 10t-81.5 27v156q36 -18 81.5 -31.5t87.5 -13.5q36 0 61.5 11t39 32t13.5 53q0 48 -28 71.5t-86 23.5h-105v234h-95v151h462v-151h-201v-98h11q71 0 118.5 -26.5t71.5 -75.5t24 -120q0 -79 -29 -135.5t-89.5 -87t-155.5 -30.5z" />
    <glyph glyph-name="uni01BD" unicode="&#x1bd;" 
d="M224 -10q-60 0 -108 9t-78 21v146q20 -9 47.5 -17t59.5 -13t64 -5q41 0 64 6t32.5 18t9.5 29q0 24 -24 34.5t-77 10.5h-89v187h-88v137h436v-137h-192v-64h20q58 0 99 -17.5t63 -54t22 -93.5q0 -58 -27 -102.5t-84.5 -69.5t-149.5 -25z" />
    <glyph glyph-name="uni01BE" unicode="&#x1be;" 
d="M237 -10q-38 0 -71 4.5t-60 12.5t-48 18v147q20 -10 47 -20.5t59 -17.5t65 -7q30 0 48.5 5.5t26 15.5t7.5 24q0 13 -9 22.5t-28 18t-50 19.5t-50 27.5t-26.5 40.5t-7.5 57v60h-125v77l138 58l41 129h107v-128h194v-136h-194v-23q0 -16 4 -26.5t15.5 -18t32.5 -16.5
q46 -18 73.5 -39.5t39.5 -50t12 -69.5q0 -54 -25.5 -95t-79 -65t-136.5 -24z" />
    <glyph glyph-name="uni01BF" unicode="&#x1bf;" 
d="M54 -240v793h125l24 -69h8q14 30 32.5 47t41.5 24.5t51 7.5q53 0 90.5 -26.5t58 -80t20.5 -134.5q0 -76 -24.5 -136t-66.5 -102.5t-94.5 -66.5t-108.5 -29v-228h-157zM211 128q24 4 47.5 16.5t42 36t29.5 57.5t11 79q0 36 -6.5 59.5t-20 34.5t-33.5 11q-25 0 -40.5 -13.5
t-22.5 -42.5t-7 -75v-163z" />
    <glyph glyph-name="uni01C0" unicode="&#x1c0;" 
d="M200 0v760h129v-760h-129z" />
    <glyph glyph-name="uni01C1" unicode="&#x1c1;" 
d="M82 0v760h129v-760h-129zM318 0v760h129v-760h-129z" />
    <glyph glyph-name="uni01C2" unicode="&#x1c2;" 
d="M78 419v119h374v-119h-374zM78 195v119h374v-119h-374zM201 0v760h129v-760h-129z" />
    <glyph glyph-name="uni01C3" unicode="&#x1c3;" 
d="M199 245l-24 469h182l-23 -469h-135zM266 -11q-40 0 -65 22t-25 67q0 44 24 66.5t66 22.5q40 0 64.5 -22t24.5 -67t-25 -67t-64 -22z" />
    <glyph glyph-name="uni01C4" unicode="&#x1c4;" horiz-adv-x="1060" 
d="M719 784q-9 20 -27 47.5t-38 54.5t-34 45v13h97q18 -14 36.5 -33t39.5 -44q22 26 40.5 44.5t36.5 32.5h96v-13q-14 -19 -33 -45.5t-36.5 -53.5t-29.5 -48h-148zM65 0v714h207q89 0 150.5 -41.5t94 -117.5t32.5 -183q0 -117 -36.5 -200.5t-100 -127.5t-145.5 -44h-202z
M255 141q68 0 99.5 59t31.5 159q0 73 -14 120t-41 70.5t-68 23.5h-41v-432h33zM563 0v115l262 458h-254v141h429v-115l-253 -456h255v-143h-439z" />
    <glyph glyph-name="uni01C5" unicode="&#x1c5;" horiz-adv-x="1060" 
d="M29 0v714h207q89 0 150.5 -41.5t94 -117.5t32.5 -183q0 -117 -36.5 -200.5t-100 -127.5t-145.5 -44h-202zM219 141q68 0 99.5 59t31.5 159q0 73 -14 120t-41 70.5t-68 23.5h-41v-432h33zM578 0v100l231 318h-222v135h413v-113l-220 -304h232v-136h-434zM727 606
q-9 20 -27 47.5t-38 54.5t-34 45v13h97q18 -14 36.5 -33t39.5 -44q22 26 40.5 44.5t36.5 32.5h96v-13q-14 -19 -33 -45.5t-36.5 -53.5t-29.5 -48h-148z" />
    <glyph glyph-name="uni01C6" unicode="&#x1c6;" horiz-adv-x="1060" 
d="M205 -10q-47 0 -81.5 22t-57 60.5t-33 90.5t-10.5 112q0 85 21 150t62.5 101.5t102.5 36.5q26 0 50 -8t44 -25.5t35 -46.5h8q-3 19 -5.5 38t-4 38t-1.5 38v163h157v-760h-128l-18 72h-8q-14 -28 -34.5 -46.5t-45 -27t-53.5 -8.5zM262 129q38 0 58.5 31t20.5 99v15
q0 53 -7 86t-23 48t-45 15q-43 0 -62.5 -38.5t-19.5 -109.5q0 -75 19.5 -110.5t58.5 -35.5zM578 0v100l231 318h-222v135h413v-113l-220 -304h232v-136h-434zM719 606q-9 20 -27 47.5t-38 54.5t-34 45v13h97q18 -14 36.5 -33t39.5 -44q22 26 40.5 44.5t36.5 32.5h96v-13
q-14 -19 -33 -45.5t-36.5 -53.5t-29.5 -48h-148z" />
    <glyph glyph-name="uni01C7" unicode="&#x1c7;" horiz-adv-x="1060" 
d="M61 0v714h161v-570h262v-144h-423zM715 -9q-32 0 -67.5 4t-70.5 14v139q38 -10 68 -13.5t46 -3.5q45 0 75 16t45.5 50.5t15.5 89.5v427h158v-460q0 -81 -29 -140t-88.5 -91t-152.5 -32z" />
    <glyph glyph-name="uni01C8" unicode="&#x1c8;" horiz-adv-x="1060" 
d="M61 0v714h161v-570h262v-144h-423zM715 -245q-33 0 -77 5.5t-82 18.5v134q23 -6 48.5 -10.5t48 -6.5t34.5 -2q33 0 50 10t23.5 34t6.5 65v414l-154 12v124h313v-586q0 -107 -47 -159.5t-164 -52.5zM839 606q-46 0 -70.5 21.5t-24.5 63.5q0 41 23.5 62.5t71.5 21.5
t71 -21.5t23 -62.5q0 -40 -23 -62.5t-71 -22.5z" />
    <glyph glyph-name="uni01C9" unicode="&#x1c9;" horiz-adv-x="1060" 
d="M36 0v116l156 18v495l-127 11v120h286v-626l142 -18v-116h-457zM715 -245q-33 0 -77 5.5t-82 18.5v134q23 -6 48.5 -10.5t48 -6.5t34.5 -2q33 0 50 10t23.5 34t6.5 65v414l-154 12v124h313v-586q0 -107 -47 -159.5t-164 -52.5zM839 606q-46 0 -70.5 21.5t-24.5 63.5
q0 41 23.5 62.5t71.5 21.5t71 -21.5t23 -62.5q0 -40 -23 -62.5t-71 -22.5z" />
    <glyph glyph-name="uni01CA" unicode="&#x1ca;" horiz-adv-x="1060" 
d="M29 0v714h223l112 -569h6q-2 31 -5 65t-5 68.5t-3.5 66t-1.5 56.5v313h145v-714h-217l-118 573h-6q2 -43 5 -78.5t5 -66t4 -58.5t2 -55v-315h-146zM715 -9q-32 0 -67.5 4t-70.5 14v139q38 -10 68 -13.5t46 -3.5q45 0 75 16t45.5 50.5t15.5 89.5v427h158v-460
q0 -81 -29 -140t-88.5 -91t-152.5 -32z" />
    <glyph glyph-name="uni01CB" unicode="&#x1cb;" horiz-adv-x="1060" 
d="M29 0v714h223l112 -569h6q-2 31 -5 65t-5 68.5t-3.5 66t-1.5 56.5v313h145v-714h-217l-118 573h-6q2 -43 5 -78.5t5 -66t4 -58.5t2 -55v-315h-146zM715 -245q-33 0 -77 5.5t-82 18.5v134q23 -6 48.5 -10.5t48 -6.5t34.5 -2q33 0 50 10t23.5 34t6.5 65v414l-154 12v124
h313v-586q0 -107 -47 -159.5t-164 -52.5zM839 606q-46 0 -70.5 21.5t-24.5 63.5q0 41 23.5 62.5t71.5 21.5t71 -21.5t23 -62.5q0 -40 -23 -62.5t-71 -22.5z" />
    <glyph glyph-name="uni01CC" unicode="&#x1cc;" horiz-adv-x="1060" 
d="M38 0v553h128l19 -64h7q14 23 33 39.5t45 25.5t60 9q81 0 124 -50.5t43 -152.5v-360h-161v322q0 59 -15 82.5t-45 23.5q-42 0 -59.5 -35.5t-17.5 -112.5v-280h-161zM715 -245q-33 0 -77 5.5t-82 18.5v134q23 -6 48.5 -10.5t48 -6.5t34.5 -2q33 0 50 10t23.5 34t6.5 65
v414l-154 12v124h313v-586q0 -107 -47 -159.5t-164 -52.5zM839 606q-46 0 -70.5 21.5t-24.5 63.5q0 41 23.5 62.5t71.5 21.5t71 -21.5t23 -62.5q0 -40 -23 -62.5t-71 -22.5z" />
    <glyph glyph-name="uni01CD" unicode="&#x1cd;" 
d="M5 0l145 716h226l149 -716h-157l-76 434q-3 23 -8.5 52t-10 57.5t-7.5 49.5q-3 -21 -8 -49.5t-10 -57.5t-9 -52l-77 -434h-157zM140 153l7 136h243l5 -136h-255zM191 767q-9 20 -27 47.5t-38 54.5t-34 45v13h97q18 -14 36.5 -33t39.5 -44q22 26 40.5 44.5t36.5 32.5h96
v-13q-14 -19 -33 -45.5t-36.5 -53.5t-29.5 -48h-148z" />
    <glyph glyph-name="uni01CE" unicode="&#x1ce;" 
d="M200 -10q-79 0 -119.5 48t-40.5 126q0 64 24.5 103.5t69 59t103.5 21.5l96 3v13q0 33 -21.5 47.5t-60.5 14.5q-30 0 -61 -8.5t-62 -24.5l-52 120q45 25 93.5 37.5t102.5 12.5q106 0 159.5 -47.5t53.5 -140.5v-375h-120l-20 71h-3q-19 -30 -42.5 -48t-48.5 -25.5t-51 -7.5
zM250 127q23 0 41.5 9.5t30 29t11.5 47.5v33l-49 -2q-29 0 -50 -7.5t-32 -21t-11 -35.5q0 -28 16.5 -40.5t42.5 -12.5zM204 606q-9 20 -27 47.5t-38 54.5t-34 45v13h97q18 -14 36.5 -33t39.5 -44q22 26 40.5 44.5t36.5 32.5h96v-13q-14 -19 -33 -45.5t-36.5 -53.5t-29.5 -48
h-148z" />
    <glyph glyph-name="uni01CF" unicode="&#x1cf;" 
d="M59 0v118l129 15v448l-129 15v118h411v-118l-125 -15v-448l125 -15v-118h-411zM191 767q-9 20 -27 47.5t-38 54.5t-34 45v13h97q18 -14 36.5 -33t39.5 -44q22 26 40.5 44.5t36.5 32.5h96v-13q-14 -19 -33 -45.5t-36.5 -53.5t-29.5 -48h-148z" />
    <glyph glyph-name="uni01D0" unicode="&#x1d0;" 
d="M36 0v117l161 17v283l-126 13v123h285v-419l137 -17v-117h-457zM191 606q-9 20 -27 47.5t-38 54.5t-34 45v13h97q18 -14 36.5 -33t39.5 -44q22 26 40.5 44.5t36.5 32.5h96v-13q-14 -19 -33 -45.5t-36.5 -53.5t-29.5 -48h-148z" />
    <glyph glyph-name="uni01D1" unicode="&#x1d1;" 
d="M264 -8q-64 0 -110.5 24t-77 70.5t-45.5 115t-15 157.5q0 116 26 197.5t80.5 125t141.5 43.5q65 0 112 -24t77.5 -71t45 -115.5t14.5 -156.5t-14.5 -156t-45 -115t-77.5 -71t-112 -24zM266 136q34 0 52 27t25 77t7 119q0 110 -17 165.5t-67 55.5q-33 0 -51.5 -25.5
t-26.5 -75t-8 -120.5q0 -70 8 -120t27 -76.5t51 -26.5zM191 767q-9 20 -27 47.5t-38 54.5t-34 45v13h97q18 -14 36.5 -33t39.5 -44q22 26 40.5 44.5t36.5 32.5h96v-13q-14 -19 -33 -45.5t-36.5 -53.5t-29.5 -48h-148z" />
    <glyph glyph-name="uni01D2" unicode="&#x1d2;" 
d="M266 -10q-65 0 -111.5 23t-75.5 63.5t-42.5 93t-13.5 110.5q0 79 25.5 143.5t78.5 102t136 37.5q75 0 130 -34t84.5 -98t29.5 -155q0 -56 -12.5 -107.5t-40 -92t-74 -63.5t-114.5 -23zM265 129q29 0 46.5 17t25 50.5t7.5 81.5q0 47 -8 79.5t-25.5 49t-45.5 16.5
q-42 0 -60.5 -37.5t-18.5 -107.5q0 -48 8 -81.5t25.5 -50.5t45.5 -17zM191 606q-9 20 -27 47.5t-38 54.5t-34 45v13h97q18 -14 36.5 -33t39.5 -44q22 26 40.5 44.5t36.5 32.5h96v-13q-14 -19 -33 -45.5t-36.5 -53.5t-29.5 -48h-148z" />
    <glyph glyph-name="uni01D3" unicode="&#x1d3;" 
d="M264 -10q-81 0 -133.5 31t-77 93.5t-24.5 157.5v442h161v-428q0 -54 6 -87.5t22 -48t45 -14.5q32 0 48.5 15.5t22 49t5.5 86.5v427h161v-439q0 -94 -24 -157.5t-76 -95.5t-136 -32zM191 767q-9 20 -27 47.5t-38 54.5t-34 45v13h97q18 -14 36.5 -33t39.5 -44
q22 26 40.5 44.5t36.5 32.5h96v-13q-14 -19 -33 -45.5t-36.5 -53.5t-29.5 -48h-148z" />
    <glyph glyph-name="uni01D4" unicode="&#x1d4;" 
d="M197 -10q-79 0 -121.5 50.5t-42.5 152.5v360h161v-311q0 -56 15 -84.5t51 -28.5q30 0 45 16t20.5 49.5t5.5 84.5v274h161v-553h-128l-19 69h-10q-13 -26 -33 -43.5t-45.5 -26.5t-59.5 -9zM191 606q-9 20 -27 47.5t-38 54.5t-34 45v13h97q18 -14 36.5 -33t39.5 -44
q22 26 40.5 44.5t36.5 32.5h96v-13q-14 -19 -33 -45.5t-36.5 -53.5t-29.5 -48h-148z" />
    <glyph glyph-name="uni01D5" unicode="&#x1d5;" 
d="M264 -10q-81 0 -133.5 31t-77 93.5t-24.5 157.5v442h161v-428q0 -54 6 -87.5t22 -48t45 -14.5q32 0 48.5 15.5t22 49t5.5 86.5v427h161v-439q0 -94 -24 -157.5t-76 -95.5t-136 -32zM366 763q-31 0 -50.5 19t-19.5 54q0 37 19.5 56t50.5 19q33 0 52.5 -20t19.5 -55
t-19.5 -54t-52.5 -19zM162 763q-30 0 -50 18.5t-20 54.5q0 37 20 56t50 19q32 0 52 -20t20 -55t-20 -54t-52 -19zM117 988v105h296v-105h-296z" />
    <glyph glyph-name="uni01D6" unicode="&#x1d6;" 
d="M197 -10q-79 0 -121.5 50.5t-42.5 152.5v360h161v-311q0 -56 15 -84.5t51 -28.5q30 0 45 16t20.5 49.5t5.5 84.5v274h161v-553h-128l-19 69h-10q-13 -26 -33 -43.5t-45.5 -26.5t-59.5 -9zM366 602q-31 0 -50.5 19t-19.5 54q0 37 19.5 56t50.5 19q33 0 52.5 -20t19.5 -55
t-19.5 -54t-52.5 -19zM162 602q-30 0 -50 18.5t-20 54.5q0 37 20 56t50 19q32 0 52 -20t20 -55t-20 -54t-52 -19zM117 827v105h296v-105h-296z" />
    <glyph glyph-name="uni01D7" unicode="&#x1d7;" 
d="M264 -10q-81 0 -133.5 31t-77 93.5t-24.5 157.5v442h161v-428q0 -54 6 -87.5t22 -48t45 -14.5q32 0 48.5 15.5t22 49t5.5 86.5v427h161v-439q0 -94 -24 -157.5t-76 -95.5t-136 -32zM366 763q-31 0 -50.5 19t-19.5 54q0 37 19.5 56t50.5 19q33 0 52.5 -20t19.5 -55
t-19.5 -54t-52.5 -19zM162 763q-30 0 -50 18.5t-20 54.5q0 37 20 56t50 19q32 0 52 -20t20 -55t-20 -54t-52 -19zM195 991q17 26 32.5 51t29.5 49.5t25 46.5h172v-9q-15 -18 -41.5 -45.5t-55.5 -55.5t-54 -50h-108v13z" />
    <glyph glyph-name="uni01D8" unicode="&#x1d8;" 
d="M197 -10q-79 0 -121.5 50.5t-42.5 152.5v360h161v-311q0 -56 15 -84.5t51 -28.5q30 0 45 16t20.5 49.5t5.5 84.5v274h161v-553h-128l-19 69h-10q-13 -26 -33 -43.5t-45.5 -26.5t-59.5 -9zM366 602q-31 0 -50.5 19t-19.5 54q0 37 19.5 56t50.5 19q33 0 52.5 -20t19.5 -55
t-19.5 -54t-52.5 -19zM162 602q-30 0 -50 18.5t-20 54.5q0 37 20 56t50 19q32 0 52 -20t20 -55t-20 -54t-52 -19zM195 830q17 26 32.5 51t29.5 49.5t25 46.5h172v-9q-15 -18 -41.5 -45.5t-55.5 -55.5t-54 -50h-108v13z" />
    <glyph glyph-name="uni01D9" unicode="&#x1d9;" 
d="M264 -10q-81 0 -133.5 31t-77 93.5t-24.5 157.5v442h161v-428q0 -54 6 -87.5t22 -48t45 -14.5q32 0 48.5 15.5t22 49t5.5 86.5v427h161v-439q0 -94 -24 -157.5t-76 -95.5t-136 -32zM366 763q-31 0 -50.5 19t-19.5 54q0 37 19.5 56t50.5 19q33 0 52.5 -20t19.5 -55
t-19.5 -54t-52.5 -19zM162 763q-30 0 -50 18.5t-20 54.5q0 37 20 56t50 19q32 0 52 -20t20 -55t-20 -54t-52 -19zM191 978q-9 20 -27 47.5t-38 54.5t-34 45v13h97q18 -14 36.5 -33t39.5 -44q22 26 40.5 44.5t36.5 32.5h96v-13q-14 -19 -33 -45.5t-36.5 -53.5t-29.5 -48h-148
z" />
    <glyph glyph-name="uni01DA" unicode="&#x1da;" 
d="M197 -10q-79 0 -121.5 50.5t-42.5 152.5v360h161v-311q0 -56 15 -84.5t51 -28.5q30 0 45 16t20.5 49.5t5.5 84.5v274h161v-553h-128l-19 69h-10q-13 -26 -33 -43.5t-45.5 -26.5t-59.5 -9zM366 602q-31 0 -50.5 19t-19.5 54q0 37 19.5 56t50.5 19q33 0 52.5 -20t19.5 -55
t-19.5 -54t-52.5 -19zM162 602q-30 0 -50 18.5t-20 54.5q0 37 20 56t50 19q32 0 52 -20t20 -55t-20 -54t-52 -19zM191 817q-9 20 -27 47.5t-38 54.5t-34 45v13h97q18 -14 36.5 -33t39.5 -44q22 26 40.5 44.5t36.5 32.5h96v-13q-14 -19 -33 -45.5t-36.5 -53.5t-29.5 -48h-148
z" />
    <glyph glyph-name="uni01DB" unicode="&#x1db;" 
d="M264 -10q-81 0 -133.5 31t-77 93.5t-24.5 157.5v442h161v-428q0 -54 6 -87.5t22 -48t45 -14.5q32 0 48.5 15.5t22 49t5.5 86.5v427h161v-439q0 -94 -24 -157.5t-76 -95.5t-136 -32zM366 763q-31 0 -50.5 19t-19.5 54q0 37 19.5 56t50.5 19q33 0 52.5 -20t19.5 -55
t-19.5 -54t-52.5 -19zM162 763q-30 0 -50 18.5t-20 54.5q0 37 20 56t50 19q32 0 52 -20t20 -55t-20 -54t-52 -19zM276 978q-14 12 -34.5 31.5t-43 42t-42 43.5t-30.5 34v9h172q10 -20 26.5 -49t33.5 -55.5t27 -42.5v-13h-109z" />
    <glyph glyph-name="uni01DC" unicode="&#x1dc;" 
d="M197 -10q-79 0 -121.5 50.5t-42.5 152.5v360h161v-311q0 -56 15 -84.5t51 -28.5q30 0 45 16t20.5 49.5t5.5 84.5v274h161v-553h-128l-19 69h-10q-13 -26 -33 -43.5t-45.5 -26.5t-59.5 -9zM366 602q-31 0 -50.5 19t-19.5 54q0 37 19.5 56t50.5 19q33 0 52.5 -20t19.5 -55
t-19.5 -54t-52.5 -19zM162 602q-30 0 -50 18.5t-20 54.5q0 37 20 56t50 19q32 0 52 -20t20 -55t-20 -54t-52 -19zM276 817q-14 12 -34.5 31.5t-43 42t-42 43.5t-30.5 34v9h172q10 -20 26.5 -49t33.5 -55.5t27 -42.5v-13h-109z" />
    <glyph glyph-name="uni01DD" unicode="&#x1dd;" 
d="M235 563q87 0 146 -33t89 -96.5t30 -155.5q0 -86 -27.5 -151t-82 -101t-135.5 -36q-69 0 -119.5 29t-78 87t-27.5 145v81h311q-1 34 -19 55.5t-46.5 31t-62.5 9.5q-47 0 -87 -11t-70 -30v137q35 19 80 29t99 10zM181 222q1 -34 10 -56.5t26 -33t41 -10.5q40 0 60.5 26
t21.5 74h-159z" />
    <glyph glyph-name="uni01DE" unicode="&#x1de;" 
d="M5 0l145 716h226l149 -716h-157l-76 434q-3 23 -8.5 52t-10 57.5t-7.5 49.5q-3 -21 -8 -49.5t-10 -57.5t-9 -52l-77 -434h-157zM140 153l7 136h243l5 -136h-255zM366 763q-31 0 -50.5 19t-19.5 54q0 37 19.5 56t50.5 19q33 0 52.5 -20t19.5 -55t-19.5 -54t-52.5 -19z
M162 763q-30 0 -50 18.5t-20 54.5q0 37 20 56t50 19q32 0 52 -20t20 -55t-20 -54t-52 -19zM117 988v105h296v-105h-296z" />
    <glyph glyph-name="uni01DF" unicode="&#x1df;" 
d="M200 -10q-79 0 -119.5 48t-40.5 126q0 64 24.5 103.5t69 59t103.5 21.5l96 3v13q0 33 -21.5 47.5t-60.5 14.5q-30 0 -61 -8.5t-62 -24.5l-52 120q45 25 93.5 37.5t102.5 12.5q106 0 159.5 -47.5t53.5 -140.5v-375h-120l-20 71h-3q-19 -30 -42.5 -48t-48.5 -25.5t-51 -7.5
zM250 127q23 0 41.5 9.5t30 29t11.5 47.5v33l-49 -2q-29 0 -50 -7.5t-32 -21t-11 -35.5q0 -28 16.5 -40.5t42.5 -12.5zM378 602q-31 0 -50.5 19t-19.5 54q0 37 19.5 56t50.5 19q33 0 52.5 -20t19.5 -55t-19.5 -54t-52.5 -19zM174 602q-30 0 -50 18.5t-20 54.5q0 37 20 56
t50 19q32 0 52 -20t20 -55t-20 -54t-52 -19zM130 827v105h296v-105h-296z" />
    <glyph glyph-name="uni01E0" unicode="&#x1e0;" 
d="M5 0l145 716h226l149 -716h-157l-76 434q-3 23 -8.5 52t-10 57.5t-7.5 49.5q-3 -21 -8 -49.5t-10 -57.5t-9 -52l-77 -434h-157zM140 153l7 136h243l5 -136h-255zM266 767q-46 0 -70 21.5t-24 63.5q0 40 23.5 62t70.5 22q48 0 70 -22t22 -62t-21.5 -62.5t-70.5 -22.5z
M117 971v105h296v-105h-296z" />
    <glyph glyph-name="uni01E1" unicode="&#x1e1;" 
d="M200 -10q-79 0 -119.5 48t-40.5 126q0 64 24.5 103.5t69 59t103.5 21.5l96 3v13q0 33 -21.5 47.5t-60.5 14.5q-30 0 -61 -8.5t-62 -24.5l-52 120q45 25 93.5 37.5t102.5 12.5q106 0 159.5 -47.5t53.5 -140.5v-375h-120l-20 71h-3q-19 -30 -42.5 -48t-48.5 -25.5t-51 -7.5
zM250 127q23 0 41.5 9.5t30 29t11.5 47.5v33l-49 -2q-29 0 -50 -7.5t-32 -21t-11 -35.5q0 -28 16.5 -40.5t42.5 -12.5zM279 606q-46 0 -70 21.5t-24 63.5q0 40 23.5 62t70.5 22q48 0 70 -22t22 -62t-21.5 -62.5t-70.5 -22.5zM130 810v105h296v-105h-296z" />
    <glyph glyph-name="uni01E2" unicode="&#x1e2;" 
d="M5 0l139 714h372v-143h-105v-131h86v-142h-86v-155h105v-143h-244v577h-21l-98 -577h-148zM153 150l24 142h122l3 -142h-149zM144 777v105h296v-105h-296z" />
    <glyph glyph-name="uni01E3" unicode="&#x1e3;" 
d="M144 -10q-67 0 -103 47.5t-36 126.5q0 57 17.5 94t51.5 56.5t81 22.5l50 3v30q0 37 -17 50t-42 13q-18 0 -36.5 -5t-36.5 -15l-49 108q34 21 69 31.5t70 10.5q34 0 63 -12.5t50 -36.5q25 25 49 37t52 12q58 0 90.5 -35.5t45 -97.5t12.5 -141v-58h-185q1 -35 11.5 -59
t30 -36.5t45.5 -12.5q21 0 38.5 8.5t37.5 26.5v-129q-19 -19 -45.5 -29t-58.5 -10q-44 0 -76 19.5t-58 60.5q-25 -41 -52 -60.5t-69 -19.5zM170 122q14 0 21.5 9.5t10.5 28t3 44.5v36h-21q-21 0 -34 -17t-13 -48q0 -25 8.5 -39t24.5 -14zM404 335q0 36 -3.5 56t-10.5 28.5
t-18 8.5q-16 0 -23.5 -21t-8.5 -72h64zM117 616v105h296v-105h-296z" />
    <glyph glyph-name="uni01E4" unicode="&#x1e4;" 
d="M320 -10q-103 0 -170.5 40.5t-100.5 119t-33 191.5q0 124 36.5 209.5t106 130t165.5 44.5q56 0 98.5 -13t75.5 -32l-45 -131q-30 18 -57.5 25.5t-56.5 7.5q-55 0 -91.5 -26t-54 -78.5t-17.5 -130.5q0 -63 14 -111t41.5 -76t70.5 -28q12 0 26.5 2t25.5 6v174h-66v127h212
v-409q-45 -23 -90 -32.5t-90 -9.5zM288 169v115h242v-115h-242z" />
    <glyph glyph-name="uni01E5" unicode="&#x1e5;" 
d="M244 -240q-59 0 -103 9.5t-80 25.5v124q44 -20 86.5 -29t82.5 -9t63 9.5t32 34.5h-129v91h138v41q0 16 1 37t3 36h-4q-20 -34 -54.5 -54.5t-81.5 -20.5q-82 0 -128 64.5t-46 186.5q0 124 48 190.5t132 66.5q44 0 76.5 -19t53.5 -58h5l14 67h139v-537h49v-91h-54
q-10 -55 -39.5 -91.5t-80 -55t-123.5 -18.5zM267 194q19 0 33 7t22.5 20t12 31.5t3.5 41.5v22q0 37 -7 60.5t-22 34.5t-40 11q-26 0 -43 -13.5t-25 -39.5t-8 -64q0 -59 17.5 -85t56.5 -26z" />
    <glyph glyph-name="Gcaron" unicode="&#x1e6;" 
d="M320 -10q-103 0 -170.5 40.5t-100.5 119t-33 191.5q0 124 36.5 209.5t106 130t165.5 44.5q56 0 98.5 -13t75.5 -32l-45 -131q-30 18 -57.5 25.5t-56.5 7.5q-55 0 -91.5 -26t-54 -78.5t-17.5 -130.5q0 -62 14 -110t41.5 -75.5t70.5 -27.5q12 0 26.5 2t25.5 6v136h-66v138
h212v-384q-45 -23 -90 -32.5t-90 -9.5zM226 767q-9 20 -27 47.5t-38 54.5t-34 45v13h97q18 -14 36.5 -33t39.5 -44q22 26 40.5 44.5t36.5 32.5h96v-13q-14 -19 -33 -45.5t-36.5 -53.5t-29.5 -48h-148z" />
    <glyph glyph-name="gcaron" unicode="&#x1e7;" 
d="M223 -245q-48 0 -88 9t-83 30v141q48 -24 88.5 -33t73.5 -9q58 0 89.5 23.5t31.5 75.5v13v32t1 29h-5q-24 -44 -54 -60t-68 -16q-89 0 -137.5 76t-48.5 208q0 136 50 212.5t136 76.5q40 0 69.5 -18t55.5 -62h8l21 70h129v-533q0 -85 -28 -144.5t-87 -90t-154 -30.5z
M266 129q19 0 32.5 7t22.5 22t13.5 40t4.5 60v16q0 54 -6 86.5t-21.5 47.5t-42.5 15q-43 0 -61 -38.5t-18 -113.5q0 -68 16.5 -105t59.5 -37zM191 606q-9 20 -27 47.5t-38 54.5t-34 45v13h97q18 -14 36.5 -33t39.5 -44q22 26 40.5 44.5t36.5 32.5h96v-13q-14 -19 -33 -45.5
t-36.5 -53.5t-29.5 -48h-148z" />
    <glyph glyph-name="uni01E8" unicode="&#x1e8;" 
d="M29 0v714h158v-333q12 27 25.5 54t25.5 53l107 226h174l-162 -323l159 -391h-181l-98 265l-50 -44v-221h-158zM191 767q-9 20 -27 47.5t-38 54.5t-34 45v13h97q18 -14 36.5 -33t39.5 -44q22 26 40.5 44.5t36.5 32.5h96v-13q-14 -19 -33 -45.5t-36.5 -53.5t-29.5 -48h-148
z" />
    <glyph glyph-name="uni01E9" unicode="&#x1e9;" 
d="M36 0v760h158v-304q0 -23 -1.5 -49t-3.5 -52.5t-5 -49.5h3q14 23 27 45t29 46l100 157h179l-168 -255l171 -298h-183l-99 197l-49 -35v-162h-158zM221 813q-9 20 -27 47.5t-38 54.5t-34 45v13h97q18 -14 36.5 -33t39.5 -44q22 26 40.5 44.5t36.5 32.5h96v-13
q-14 -19 -33 -45.5t-36.5 -53.5t-29.5 -48h-148z" />
    <glyph glyph-name="uni01EA" unicode="&#x1ea;" 
d="M264 -8q-64 0 -110.5 24t-77 70.5t-45.5 115t-15 157.5q0 116 26 197.5t80.5 125t141.5 43.5q65 0 112 -24t77.5 -71t45 -115.5t14.5 -156.5t-14.5 -156t-45 -115t-77.5 -71t-112 -24zM266 136q34 0 52 27t25 77t7 119q0 110 -17 165.5t-67 55.5q-33 0 -51.5 -25.5
t-26.5 -75t-8 -120.5q0 -70 8 -120t27 -76.5t51 -26.5zM291 -240q-60 0 -92 29t-32 79q0 23 9 48.5t29.5 51t53.5 49.5l75 -17q-31 -34 -42 -56t-11 -45q0 -17 10.5 -28.5t30.5 -11.5q13 0 23 2.5t17 6.5v-94q-12 -5 -30 -9.5t-41 -4.5z" />
    <glyph glyph-name="uni01EB" unicode="&#x1eb;" 
d="M266 -10q-65 0 -111.5 23t-75.5 63.5t-42.5 93t-13.5 110.5q0 79 25.5 143.5t78.5 102t136 37.5q75 0 130 -34t84.5 -98t29.5 -155q0 -56 -12.5 -107.5t-40 -92t-74 -63.5t-114.5 -23zM265 129q29 0 46.5 17t25 50.5t7.5 81.5q0 47 -8 79.5t-25.5 49t-45.5 16.5
q-42 0 -60.5 -37.5t-18.5 -107.5q0 -48 8 -81.5t25.5 -50.5t45.5 -17zM291 -240q-60 0 -92 29t-32 79q0 23 9 48.5t29.5 51t53.5 49.5l75 -17q-31 -34 -42 -56t-11 -45q0 -17 10.5 -28.5t30.5 -11.5q13 0 23 2.5t17 6.5v-94q-12 -5 -30 -9.5t-41 -4.5z" />
    <glyph glyph-name="uni01EC" unicode="&#x1ec;" 
d="M264 -8q-64 0 -110.5 24t-77 70.5t-45.5 115t-15 157.5q0 116 26 197.5t80.5 125t141.5 43.5q65 0 112 -24t77.5 -71t45 -115.5t14.5 -156.5t-14.5 -156t-45 -115t-77.5 -71t-112 -24zM266 136q34 0 52 27t25 77t7 119q0 110 -17 165.5t-67 55.5q-33 0 -51.5 -25.5
t-26.5 -75t-8 -120.5q0 -70 8 -120t27 -76.5t51 -26.5zM291 -240q-60 0 -92 29t-32 79q0 23 9 48.5t29.5 51t53.5 49.5l75 -17q-31 -34 -42 -56t-11 -45q0 -17 10.5 -28.5t30.5 -11.5q13 0 23 2.5t17 6.5v-94q-12 -5 -30 -9.5t-41 -4.5zM117 777v105h296v-105h-296z" />
    <glyph glyph-name="uni01ED" unicode="&#x1ed;" 
d="M266 -10q-65 0 -111.5 23t-75.5 63.5t-42.5 93t-13.5 110.5q0 79 25.5 143.5t78.5 102t136 37.5q75 0 130 -34t84.5 -98t29.5 -155q0 -56 -12.5 -107.5t-40 -92t-74 -63.5t-114.5 -23zM265 129q29 0 46.5 17t25 50.5t7.5 81.5q0 47 -8 79.5t-25.5 49t-45.5 16.5
q-42 0 -60.5 -37.5t-18.5 -107.5q0 -48 8 -81.5t25.5 -50.5t45.5 -17zM291 -240q-60 0 -92 29t-32 79q0 23 9 48.5t29.5 51t53.5 49.5l75 -17q-31 -34 -42 -56t-11 -45q0 -17 10.5 -28.5t30.5 -11.5q13 0 23 2.5t17 6.5v-94q-12 -5 -30 -9.5t-41 -4.5zM117 616v105h296v-105
h-296z" />
    <glyph glyph-name="uni01EE" unicode="&#x1ee;" 
d="M226 -10q-55 0 -104.5 9.5t-88.5 28.5v145q35 -20 83 -33.5t94 -13.5q45 0 72 11t39 32t12 50q0 31 -15 52t-46.5 31.5t-84.5 10.5h-59v107l139 159h-213v135h411v-109l-165 -181q66 -7 110 -35.5t65 -74t21 -103.5q0 -66 -28 -116t-87.5 -77.5t-154.5 -27.5zM191 767
q-9 20 -27 47.5t-38 54.5t-34 45v13h97q18 -14 36.5 -33t39.5 -44q22 26 40.5 44.5t36.5 32.5h96v-13q-14 -19 -33 -45.5t-36.5 -53.5t-29.5 -48h-148z" />
    <glyph glyph-name="uni01EF" unicode="&#x1ef;" 
d="M212 -240q-62 0 -105 11.5t-72 23.5v139q33 -15 75 -27.5t89 -12.5q44 0 73.5 14.5t44 42t14.5 65.5q0 40 -16 66t-50.5 39t-91.5 13h-45v107l152 187h-226v125h412v-101l-171 -207q58 -6 101.5 -32.5t67.5 -73.5t24 -116q0 -80 -32.5 -139.5t-93.5 -91.5t-150 -32z
M185 631q-9 20 -27 47.5t-38 54.5t-34 45v13h97q18 -14 36.5 -33t39.5 -44q22 26 40.5 44.5t36.5 32.5h96v-13q-14 -19 -33 -45.5t-36.5 -53.5t-29.5 -48h-148z" />
    <glyph glyph-name="uni01F0" unicode="&#x1f0;" 
d="M185 -245q-33 0 -77 5.5t-82 18.5v134q23 -6 48.5 -10.5t48 -6.5t34.5 -2q33 0 50 10t23.5 34t6.5 65v414l-154 12v124h313v-586q0 -107 -47 -159.5t-164 -52.5zM241 606q-9 20 -27 47.5t-38 54.5t-34 45v13h97q18 -14 36.5 -33t39.5 -44q22 26 40.5 44.5t36.5 32.5h96
v-13q-14 -19 -33 -45.5t-36.5 -53.5t-29.5 -48h-148z" />
    <glyph glyph-name="uni01F1" unicode="&#x1f1;" horiz-adv-x="1060" 
d="M65 0v714h207q89 0 150.5 -41.5t94 -117.5t32.5 -183q0 -117 -36.5 -200.5t-100 -127.5t-145.5 -44h-202zM255 141q68 0 99.5 59t31.5 159q0 73 -14 120t-41 70.5t-68 23.5h-41v-432h33zM563 0v115l262 458h-254v141h429v-115l-253 -456h255v-143h-439z" />
    <glyph glyph-name="uni01F2" unicode="&#x1f2;" horiz-adv-x="1060" 
d="M29 0v714h207q89 0 150.5 -41.5t94 -117.5t32.5 -183q0 -117 -36.5 -200.5t-100 -127.5t-145.5 -44h-202zM219 141q68 0 99.5 59t31.5 159q0 73 -14 120t-41 70.5t-68 23.5h-41v-432h33zM578 0v100l231 318h-222v135h413v-113l-220 -304h232v-136h-434z" />
    <glyph glyph-name="uni01F3" unicode="&#x1f3;" horiz-adv-x="1060" 
d="M205 -10q-47 0 -81.5 22t-57 60.5t-33 90.5t-10.5 112q0 85 21 150t62.5 101.5t102.5 36.5q26 0 50 -8t44 -25.5t35 -46.5h8q-3 19 -5.5 38t-4 38t-1.5 38v163h157v-760h-128l-18 72h-8q-14 -28 -34.5 -46.5t-45 -27t-53.5 -8.5zM262 129q38 0 58.5 31t20.5 99v15
q0 53 -7 86t-23 48t-45 15q-43 0 -62.5 -38.5t-19.5 -109.5q0 -75 19.5 -110.5t58.5 -35.5zM578 0v100l231 318h-222v135h413v-113l-220 -304h232v-136h-434z" />
    <glyph glyph-name="uni01F4" unicode="&#x1f4;" 
d="M320 -10q-103 0 -170.5 40.5t-100.5 119t-33 191.5q0 124 36.5 209.5t106 130t165.5 44.5q56 0 98.5 -13t75.5 -32l-45 -131q-30 18 -57.5 25.5t-56.5 7.5q-55 0 -91.5 -26t-54 -78.5t-17.5 -130.5q0 -62 14 -110t41.5 -75.5t70.5 -27.5q12 0 26.5 2t25.5 6v136h-66v138
h212v-384q-45 -23 -90 -32.5t-90 -9.5zM230 780q17 26 32.5 51t29.5 49.5t25 46.5h172v-9q-15 -18 -41.5 -45.5t-55.5 -55.5t-54 -50h-108v13z" />
    <glyph glyph-name="uni01F5" unicode="&#x1f5;" 
d="M223 -245q-48 0 -88 9t-83 30v141q48 -24 88.5 -33t73.5 -9q58 0 89.5 23.5t31.5 75.5v13v32t1 29h-5q-24 -44 -54 -60t-68 -16q-89 0 -137.5 76t-48.5 208q0 136 50 212.5t136 76.5q40 0 69.5 -18t55.5 -62h8l21 70h129v-533q0 -85 -28 -144.5t-87 -90t-154 -30.5z
M266 129q19 0 32.5 7t22.5 22t13.5 40t4.5 60v16q0 54 -6 86.5t-21.5 47.5t-42.5 15q-43 0 -61 -38.5t-18 -113.5q0 -68 16.5 -105t59.5 -37zM195 619q17 26 32.5 51t29.5 49.5t25 46.5h172v-9q-15 -18 -41.5 -45.5t-55.5 -55.5t-54 -50h-108v13z" />
    <glyph glyph-name="uni01F6" unicode="&#x1f6;" 
d="M354 -10q-52 0 -85 20.5t-48 59t-15 90.5v144h-36v-304h-133v714h133v-274h36v274h133v-566q0 -11 3.5 -17t11.5 -6q9 0 12.5 6t3.5 17v405h132v-393q0 -52 -17 -90.5t-49.5 -59t-81.5 -20.5z" />
    <glyph glyph-name="uni01F7" unicode="&#x1f7;" 
d="M56 -240v954h130l19 -76h3q11 26 27.5 45t40.5 30t56 11q59 0 95.5 -30.5t54 -91.5t17.5 -151q0 -81 -21.5 -152t-60.5 -129t-91 -101t-113 -68v-241h-157zM213 158q24 16 46 41.5t39.5 62t28 84.5t10.5 109q0 45 -6 74t-19.5 43.5t-35.5 14.5q-21 0 -35.5 -15.5
t-21 -50.5t-6.5 -90v-273z" />
    <glyph glyph-name="uni01F8" unicode="&#x1f8;" 
d="M29 0v714h223l112 -569h6q-2 31 -5 65t-5 68.5t-3.5 66t-1.5 56.5v313h145v-714h-217l-118 573h-6q2 -43 5 -78.5t5 -66t4 -58.5t2 -55v-315h-146zM281 767q-14 12 -34.5 31.5t-43 42t-42 43.5t-30.5 34v9h172q10 -20 26.5 -49t33.5 -55.5t27 -42.5v-13h-109z" />
    <glyph glyph-name="uni01F9" unicode="&#x1f9;" 
d="M38 0v553h128l19 -64h7q14 23 33 39.5t45 25.5t60 9q81 0 124 -50.5t43 -152.5v-360h-161v322q0 59 -15 82.5t-45 23.5q-42 0 -59.5 -35.5t-17.5 -112.5v-280h-161zM287 606q-14 12 -34.5 31.5t-43 42t-42 43.5t-30.5 34v9h172q10 -20 26.5 -49t33.5 -55.5t27 -42.5v-13
h-109z" />
    <glyph glyph-name="Aringacute" unicode="&#x1fa;" 
d="M5 0l145 716h226l149 -716h-157l-76 434q-3 23 -8.5 52t-10 57.5t-7.5 49.5q-3 -21 -8 -49.5t-10 -57.5t-9 -52l-77 -434h-157zM140 153l7 136h243l5 -136h-255zM266 651q-60 0 -96 35t-36 92q0 56 36 91t96 35q56 0 92 -35.5t36 -90.5t-35 -91t-93 -36zM264 732
q21 0 34 12.5t13 33.5q0 20 -13 33t-34 13q-20 0 -33 -12.5t-13 -33.5t12.5 -33.5t33.5 -12.5zM195 948q17 26 32.5 51t29.5 49.5t25 46.5h172v-9q-15 -18 -41.5 -45.5t-55.5 -55.5t-54 -50h-108v13z" />
    <glyph glyph-name="aringacute" unicode="&#x1fb;" 
d="M200 -10q-79 0 -119.5 48t-40.5 126q0 64 24.5 103.5t69 59t103.5 21.5l96 3v13q0 33 -21.5 47.5t-60.5 14.5q-30 0 -61 -8.5t-62 -24.5l-52 120q45 25 93.5 37.5t102.5 12.5q106 0 159.5 -47.5t53.5 -140.5v-375h-120l-20 71h-3q-19 -30 -42.5 -48t-48.5 -25.5t-51 -7.5
zM250 127q23 0 41.5 9.5t30 29t11.5 47.5v33l-49 -2q-29 0 -50 -7.5t-32 -21t-11 -35.5q0 -28 16.5 -40.5t42.5 -12.5zM279 598q-60 0 -96 35t-36 92q0 56 36 91t96 35q56 0 92 -35.5t36 -90.5t-35 -91t-93 -36zM277 679q21 0 34 12.5t13 33.5q0 20 -13 33t-34 13
q-20 0 -33 -12.5t-13 -33.5t12.5 -33.5t33.5 -12.5zM208 917q17 26 32.5 51t29.5 49.5t25 46.5h172v-9q-15 -18 -41.5 -45.5t-55.5 -55.5t-54 -50h-108v13z" />
    <glyph glyph-name="AEacute" unicode="&#x1fc;" 
d="M5 0l139 714h372v-143h-105v-131h86v-142h-86v-155h105v-143h-244v577h-21l-98 -577h-148zM153 150l24 142h122l3 -142h-149zM222 780q17 26 32.5 51t29.5 49.5t25 46.5h172v-9q-15 -18 -41.5 -45.5t-55.5 -55.5t-54 -50h-108v13z" />
    <glyph glyph-name="aeacute" unicode="&#x1fd;" 
d="M144 -10q-67 0 -103 47.5t-36 126.5q0 57 17.5 94t51.5 56.5t81 22.5l50 3v30q0 37 -17 50t-42 13q-18 0 -36.5 -5t-36.5 -15l-49 108q34 21 69 31.5t70 10.5q34 0 63 -12.5t50 -36.5q25 25 49 37t52 12q58 0 90.5 -35.5t45 -97.5t12.5 -141v-58h-185q1 -35 11.5 -59
t30 -36.5t45.5 -12.5q21 0 38.5 8.5t37.5 26.5v-129q-19 -19 -45.5 -29t-58.5 -10q-44 0 -76 19.5t-58 60.5q-25 -41 -52 -60.5t-69 -19.5zM170 122q14 0 21.5 9.5t10.5 28t3 44.5v36h-21q-21 0 -34 -17t-13 -48q0 -25 8.5 -39t24.5 -14zM404 335q0 36 -3.5 56t-10.5 28.5
t-18 8.5q-16 0 -23.5 -21t-8.5 -72h64zM195 619q17 26 32.5 51t29.5 49.5t25 46.5h172v-9q-15 -18 -41.5 -45.5t-55.5 -55.5t-54 -50h-108v13z" />
    <glyph glyph-name="Oslashacute" unicode="&#x1fe;" 
d="M100 -46l-81 43l417 763l79 -42zM264 -8q-64 0 -110.5 24t-77 70.5t-45.5 115t-15 157.5q0 116 26 197.5t80.5 125t141.5 43.5q65 0 112 -24t77.5 -71t45 -115.5t14.5 -156.5t-14.5 -156t-45 -115t-77.5 -71t-112 -24zM266 136q34 0 52 27t25 77t7 119q0 110 -17 165.5
t-67 55.5q-33 0 -51.5 -25.5t-26.5 -75t-8 -120.5q0 -70 8 -120t27 -76.5t51 -26.5zM195 780q17 26 32.5 51t29.5 49.5t25 46.5h172v-9q-15 -18 -41.5 -45.5t-55.5 -55.5t-54 -50h-108v13z" />
    <glyph glyph-name="oslashacute" unicode="&#x1ff;" 
d="M134 -54l-73 38l332 611l73 -39zM266 -10q-65 0 -111.5 23t-75.5 63.5t-42.5 93t-13.5 110.5q0 79 25.5 143.5t78.5 102t136 37.5q75 0 130 -34t84.5 -98t29.5 -155q0 -56 -12.5 -107.5t-40 -92t-74 -63.5t-114.5 -23zM265 129q29 0 46.5 17t25 50.5t7.5 81.5
q0 47 -8 79.5t-25.5 49t-45.5 16.5q-42 0 -60.5 -37.5t-18.5 -107.5q0 -48 8 -81.5t25.5 -50.5t45.5 -17zM195 619q17 26 32.5 51t29.5 49.5t25 46.5h172v-9q-15 -18 -41.5 -45.5t-55.5 -55.5t-54 -50h-108v13z" />
    <glyph glyph-name="uni0200" unicode="&#x200;" 
d="M5 0l145 716h226l149 -716h-157l-76 434q-3 23 -8.5 52t-10 57.5t-7.5 49.5q-3 -21 -8 -49.5t-10 -57.5t-9 -52l-77 -434h-157zM140 153l7 136h243l5 -136h-255zM355 767q-21 17 -43.5 37t-42.5 40.5t-35.5 39.5t-22.5 33v10h152l17.5 -37.5t25.5 -50t32 -58.5v-14h-83z
M163 767q-16 14 -37 34t-42.5 42t-37 41.5t-22.5 32.5v10h153q7 -15 18 -37.5t25 -50t31 -58.5v-14h-88z" />
    <glyph glyph-name="uni0201" unicode="&#x201;" 
d="M200 -10q-79 0 -119.5 48t-40.5 126q0 64 24.5 103.5t69 59t103.5 21.5l96 3v13q0 33 -21.5 47.5t-60.5 14.5q-30 0 -61 -8.5t-62 -24.5l-52 120q45 25 93.5 37.5t102.5 12.5q106 0 159.5 -47.5t53.5 -140.5v-375h-120l-20 71h-3q-19 -30 -42.5 -48t-48.5 -25.5t-51 -7.5
zM250 127q23 0 41.5 9.5t30 29t11.5 47.5v33l-49 -2q-29 0 -50 -7.5t-32 -21t-11 -35.5q0 -28 16.5 -40.5t42.5 -12.5zM367 606q-21 17 -43.5 37t-42.5 40.5t-35.5 39.5t-22.5 33v10h152l17.5 -37.5t25.5 -50t32 -58.5v-14h-83zM175 606q-16 14 -37 34t-42.5 42t-37 41.5
t-22.5 32.5v10h153q7 -15 18 -37.5t25 -50t31 -58.5v-14h-88z" />
    <glyph glyph-name="uni0202" unicode="&#x202;" 
d="M5 0l145 716h226l149 -716h-157l-76 434q-3 23 -8.5 52t-10 57.5t-7.5 49.5q-3 -21 -8 -49.5t-10 -57.5t-9 -52l-77 -434h-157zM140 153l7 136h243l5 -136h-255zM264 936q72 0 116 -45.5t45 -126.5h-91q-4 38 -22 53.5t-48 15.5q-20 0 -35 -7t-23 -22t-11 -40h-91
q1 84 45.5 128t114.5 44z" />
    <glyph glyph-name="uni0203" unicode="&#x203;" 
d="M200 -10q-79 0 -119.5 48t-40.5 126q0 64 24.5 103.5t69 59t103.5 21.5l96 3v13q0 33 -21.5 47.5t-60.5 14.5q-30 0 -61 -8.5t-62 -24.5l-52 120q45 25 93.5 37.5t102.5 12.5q106 0 159.5 -47.5t53.5 -140.5v-375h-120l-20 71h-3q-19 -30 -42.5 -48t-48.5 -25.5t-51 -7.5
zM250 127q23 0 41.5 9.5t30 29t11.5 47.5v33l-49 -2q-29 0 -50 -7.5t-32 -21t-11 -35.5q0 -28 16.5 -40.5t42.5 -12.5zM276 775q72 0 116 -45.5t45 -126.5h-91q-3 38 -21 53.5t-49 15.5q-20 0 -34.5 -7t-23 -22t-11.5 -40h-90q0 84 45 128t114 44z" />
    <glyph glyph-name="uni0204" unicode="&#x204;" 
d="M49 0v714h435v-144h-275v-135h260v-143h-260v-149h275v-143h-435zM358 767q-21 17 -43.5 37t-42.5 40.5t-35.5 39.5t-22.5 33v10h152l17.5 -37.5t25.5 -50t32 -58.5v-14h-83zM166 767q-16 14 -37 34t-42.5 42t-37 41.5t-22.5 32.5v10h153q7 -15 18 -37.5t25 -50t31 -58.5
v-14h-88z" />
    <glyph glyph-name="uni0205" unicode="&#x205;" 
d="M295 -10q-87 0 -146 33t-89.5 96.5t-30.5 155.5q0 87 28 152t82.5 100.5t135.5 35.5q69 0 119.5 -29t78 -87t27.5 -145v-81h-311q1 -33 19 -54.5t46.5 -31.5t61.5 -10q49 0 88.5 11t69.5 30v-137q-34 -18 -79.5 -28.5t-99.5 -10.5zM349 331q-1 35 -10 57t-26 32.5
t-41 10.5q-40 0 -60.5 -26t-22.5 -74h160zM364 606q-21 17 -43.5 37t-42.5 40.5t-35.5 39.5t-22.5 33v10h152l17.5 -37.5t25.5 -50t32 -58.5v-14h-83zM172 606q-16 14 -37 34t-42.5 42t-37 41.5t-22.5 32.5v10h153q7 -15 18 -37.5t25 -50t31 -58.5v-14h-88z" />
    <glyph glyph-name="uni0206" unicode="&#x206;" 
d="M49 0v714h435v-144h-275v-135h260v-143h-260v-149h275v-143h-435zM267 936q72 0 116 -45.5t45 -126.5h-91q-3 38 -21 53.5t-49 15.5q-20 0 -34.5 -7t-23 -22t-11.5 -40h-90q0 84 45 128t114 44z" />
    <glyph glyph-name="uni0207" unicode="&#x207;" 
d="M295 -10q-87 0 -146 33t-89.5 96.5t-30.5 155.5q0 87 28 152t82.5 100.5t135.5 35.5q69 0 119.5 -29t78 -87t27.5 -145v-81h-311q1 -33 19 -54.5t46.5 -31.5t61.5 -10q49 0 88.5 11t69.5 30v-137q-34 -18 -79.5 -28.5t-99.5 -10.5zM349 331q-1 35 -10 57t-26 32.5
t-41 10.5q-40 0 -60.5 -26t-22.5 -74h160zM273 775q72 0 116 -45.5t45 -126.5h-91q-3 38 -21.5 53.5t-48.5 15.5q-20 0 -34.5 -7t-23 -22t-11.5 -40h-91q1 84 45.5 128t114.5 44z" />
    <glyph glyph-name="uni0208" unicode="&#x208;" 
d="M59 0v118l129 15v448l-129 15v118h411v-118l-125 -15v-448l125 -15v-118h-411zM355 767q-21 17 -43.5 37t-42.5 40.5t-35.5 39.5t-22.5 33v10h152l17.5 -37.5t25.5 -50t32 -58.5v-14h-83zM163 767q-16 14 -37 34t-42.5 42t-37 41.5t-22.5 32.5v10h153q7 -15 18 -37.5
t25 -50t31 -58.5v-14h-88z" />
    <glyph glyph-name="uni0209" unicode="&#x209;" 
d="M36 0v117l161 17v283l-126 13v123h285v-419l137 -17v-117h-457zM355 606q-21 17 -43.5 37t-42.5 40.5t-35.5 39.5t-22.5 33v10h152l17.5 -37.5t25.5 -50t32 -58.5v-14h-83zM163 606q-16 14 -37 34t-42.5 42t-37 41.5t-22.5 32.5v10h153q7 -15 18 -37.5t25 -50t31 -58.5
v-14h-88z" />
    <glyph glyph-name="uni020A" unicode="&#x20a;" 
d="M59 0v118l129 15v448l-129 15v118h411v-118l-125 -15v-448l125 -15v-118h-411zM264 936q72 0 116 -45.5t45 -126.5h-91q-4 38 -22 53.5t-48 15.5q-20 0 -35 -7t-23 -22t-11 -40h-91q1 84 45.5 128t114.5 44z" />
    <glyph glyph-name="uni020B" unicode="&#x20b;" 
d="M36 0v117l161 17v283l-126 13v123h285v-419l137 -17v-117h-457zM264 775q72 0 116 -45.5t45 -126.5h-91q-4 38 -22 53.5t-48 15.5q-20 0 -35 -7t-23 -22t-11 -40h-91q1 84 45.5 128t114.5 44z" />
    <glyph glyph-name="uni020C" unicode="&#x20c;" 
d="M264 -8q-64 0 -110.5 24t-77 70.5t-45.5 115t-15 157.5q0 116 26 197.5t80.5 125t141.5 43.5q65 0 112 -24t77.5 -71t45 -115.5t14.5 -156.5t-14.5 -156t-45 -115t-77.5 -71t-112 -24zM266 136q34 0 52 27t25 77t7 119q0 110 -17 165.5t-67 55.5q-33 0 -51.5 -25.5
t-26.5 -75t-8 -120.5q0 -70 8 -120t27 -76.5t51 -26.5zM355 767q-21 17 -43.5 37t-42.5 40.5t-35.5 39.5t-22.5 33v10h152l17.5 -37.5t25.5 -50t32 -58.5v-14h-83zM163 767q-16 14 -37 34t-42.5 42t-37 41.5t-22.5 32.5v10h153q7 -15 18 -37.5t25 -50t31 -58.5v-14h-88z" />
    <glyph glyph-name="uni020D" unicode="&#x20d;" 
d="M266 -10q-65 0 -111.5 23t-75.5 63.5t-42.5 93t-13.5 110.5q0 79 25.5 143.5t78.5 102t136 37.5q75 0 130 -34t84.5 -98t29.5 -155q0 -56 -12.5 -107.5t-40 -92t-74 -63.5t-114.5 -23zM265 129q29 0 46.5 17t25 50.5t7.5 81.5q0 47 -8 79.5t-25.5 49t-45.5 16.5
q-42 0 -60.5 -37.5t-18.5 -107.5q0 -48 8 -81.5t25.5 -50.5t45.5 -17zM355 606q-21 17 -43.5 37t-42.5 40.5t-35.5 39.5t-22.5 33v10h152l17.5 -37.5t25.5 -50t32 -58.5v-14h-83zM163 606q-16 14 -37 34t-42.5 42t-37 41.5t-22.5 32.5v10h153q7 -15 18 -37.5t25 -50
t31 -58.5v-14h-88z" />
    <glyph glyph-name="uni020E" unicode="&#x20e;" 
d="M264 -8q-64 0 -110.5 24t-77 70.5t-45.5 115t-15 157.5q0 116 26 197.5t80.5 125t141.5 43.5q65 0 112 -24t77.5 -71t45 -115.5t14.5 -156.5t-14.5 -156t-45 -115t-77.5 -71t-112 -24zM266 136q34 0 52 27t25 77t7 119q0 110 -17 165.5t-67 55.5q-33 0 -51.5 -25.5
t-26.5 -75t-8 -120.5q0 -70 8 -120t27 -76.5t51 -26.5zM264 936q72 0 116 -45.5t45 -126.5h-91q-4 38 -22 53.5t-48 15.5q-20 0 -35 -7t-23 -22t-11 -40h-91q1 84 45.5 128t114.5 44z" />
    <glyph glyph-name="uni020F" unicode="&#x20f;" 
d="M266 -10q-65 0 -111.5 23t-75.5 63.5t-42.5 93t-13.5 110.5q0 79 25.5 143.5t78.5 102t136 37.5q75 0 130 -34t84.5 -98t29.5 -155q0 -56 -12.5 -107.5t-40 -92t-74 -63.5t-114.5 -23zM265 129q29 0 46.5 17t25 50.5t7.5 81.5q0 47 -8 79.5t-25.5 49t-45.5 16.5
q-42 0 -60.5 -37.5t-18.5 -107.5q0 -48 8 -81.5t25.5 -50.5t45.5 -17zM264 775q72 0 116 -45.5t45 -126.5h-91q-4 38 -22 53.5t-48 15.5q-20 0 -35 -7t-23 -22t-11 -40h-91q1 84 45.5 128t114.5 44z" />
    <glyph glyph-name="uni0210" unicode="&#x210;" 
d="M49 0v714h193q84 0 139 -23.5t82.5 -70t27.5 -116.5q0 -45 -10 -81.5t-32 -65.5t-57 -52l133 -305h-175l-95 260h-49v-260h-157zM239 399q31 0 52 10t32.5 30.5t11.5 51.5q0 42 -22 63t-72 21h-35v-176h33zM355 767q-21 17 -43.5 37t-42.5 40.5t-35.5 39.5t-22.5 33v10
h152l17.5 -37.5t25.5 -50t32 -58.5v-14h-83zM163 767q-16 14 -37 34t-42.5 42t-37 41.5t-22.5 32.5v10h153q7 -15 18 -37.5t25 -50t31 -58.5v-14h-88z" />
    <glyph glyph-name="uni0211" unicode="&#x211;" 
d="M26 0v117l120 17v283l-105 13v123h217l18 -91h8q14 43 49 72t90 29q16 0 41 -3.5t55 -15.5l-40 -162q-16 8 -38.5 12t-38.5 4q-34 0 -58 -15t-36.5 -43.5t-12.5 -71.5v-134l139 -17v-117h-408zM374 606q-21 17 -43.5 37t-42.5 40.5t-35.5 39.5t-22.5 33v10h152
l17.5 -37.5t25.5 -50t32 -58.5v-14h-83zM182 606q-16 14 -37 34t-42.5 42t-37 41.5t-22.5 32.5v10h153q7 -15 18 -37.5t25 -50t31 -58.5v-14h-88z" />
    <glyph glyph-name="uni0212" unicode="&#x212;" 
d="M49 0v714h193q84 0 139 -23.5t82.5 -70t27.5 -116.5q0 -45 -10 -81.5t-32 -65.5t-57 -52l133 -305h-175l-95 260h-49v-260h-157zM239 399q31 0 52 10t32.5 30.5t11.5 51.5q0 42 -22 63t-72 21h-35v-176h33zM264 936q72 0 116 -45.5t45 -126.5h-91q-4 38 -22 53.5
t-48 15.5q-20 0 -35 -7t-23 -22t-11 -40h-91q1 84 45.5 128t114.5 44z" />
    <glyph glyph-name="uni0213" unicode="&#x213;" 
d="M26 0v117l120 17v283l-105 13v123h217l18 -91h8q14 43 49 72t90 29q16 0 41 -3.5t55 -15.5l-40 -162q-16 8 -38.5 12t-38.5 4q-34 0 -58 -15t-36.5 -43.5t-12.5 -71.5v-134l139 -17v-117h-408zM283 775q71 0 115.5 -45.5t45.5 -126.5h-92q-3 38 -21 53.5t-48 15.5
q-20 0 -35 -7t-23 -22t-11 -40h-91q1 84 45.5 128t114.5 44z" />
    <glyph glyph-name="uni0214" unicode="&#x214;" 
d="M264 -10q-81 0 -133.5 31t-77 93.5t-24.5 157.5v442h161v-428q0 -54 6 -87.5t22 -48t45 -14.5q32 0 48.5 15.5t22 49t5.5 86.5v427h161v-439q0 -94 -24 -157.5t-76 -95.5t-136 -32zM355 767q-21 17 -43.5 37t-42.5 40.5t-35.5 39.5t-22.5 33v10h152l17.5 -37.5t25.5 -50
t32 -58.5v-14h-83zM163 767q-16 14 -37 34t-42.5 42t-37 41.5t-22.5 32.5v10h153q7 -15 18 -37.5t25 -50t31 -58.5v-14h-88z" />
    <glyph glyph-name="uni0215" unicode="&#x215;" 
d="M197 -10q-79 0 -121.5 50.5t-42.5 152.5v360h161v-311q0 -56 15 -84.5t51 -28.5q30 0 45 16t20.5 49.5t5.5 84.5v274h161v-553h-128l-19 69h-10q-13 -26 -33 -43.5t-45.5 -26.5t-59.5 -9zM355 606q-21 17 -43.5 37t-42.5 40.5t-35.5 39.5t-22.5 33v10h152l17.5 -37.5
t25.5 -50t32 -58.5v-14h-83zM163 606q-16 14 -37 34t-42.5 42t-37 41.5t-22.5 32.5v10h153q7 -15 18 -37.5t25 -50t31 -58.5v-14h-88z" />
    <glyph glyph-name="uni0216" unicode="&#x216;" 
d="M264 -10q-81 0 -133.5 31t-77 93.5t-24.5 157.5v442h161v-428q0 -54 6 -87.5t22 -48t45 -14.5q32 0 48.5 15.5t22 49t5.5 86.5v427h161v-439q0 -94 -24 -157.5t-76 -95.5t-136 -32zM264 936q72 0 116 -45.5t45 -126.5h-91q-4 38 -22 53.5t-48 15.5q-20 0 -35 -7t-23 -22
t-11 -40h-91q1 84 45.5 128t114.5 44z" />
    <glyph glyph-name="uni0217" unicode="&#x217;" 
d="M197 -10q-79 0 -121.5 50.5t-42.5 152.5v360h161v-311q0 -56 15 -84.5t51 -28.5q30 0 45 16t20.5 49.5t5.5 84.5v274h161v-553h-128l-19 69h-10q-13 -26 -33 -43.5t-45.5 -26.5t-59.5 -9zM264 775q72 0 116 -45.5t45 -126.5h-91q-4 38 -22 53.5t-48 15.5q-20 0 -35 -7
t-23 -22t-11 -40h-91q1 84 45.5 128t114.5 44z" />
    <glyph glyph-name="uni0218" unicode="&#x218;" 
d="M239 -10q-48 0 -93 10t-94 35v162q46 -32 91.5 -48.5t93.5 -16.5q34 0 53.5 8.5t27.5 22.5t8 31q0 24 -13 39.5t-39 31.5t-67 41q-48 30 -83.5 60t-54.5 68t-19 91q0 62 26 106.5t77 68.5t127 24q57 0 105 -13t94 -38l-48 -134q-42 24 -76.5 33.5t-62.5 9.5
q-27 0 -44.5 -7t-26 -20.5t-8.5 -31.5t10 -31.5t33 -28.5t61 -38q56 -34 94 -64t57.5 -67t19.5 -94q0 -50 -15.5 -89.5t-46 -66t-77.5 -40.5t-110 -14zM168 -211q5 18 9.5 45.5t8.5 56t4 48.5h147v-9q-9 -26 -19.5 -51.5t-23 -51t-27.5 -48.5h-99v10z" />
    <glyph glyph-name="uni0219" unicode="&#x219;" 
d="M238 -10q-49 0 -92 8t-83 24v147q41 -21 90.5 -32.5t91.5 -11.5q38 0 54.5 9t16.5 25q0 14 -12 24t-37.5 21.5t-67.5 29.5q-43 19 -73 43t-45 54.5t-15 67.5q0 53 25 89.5t74 55.5t119 19q49 0 96.5 -10t97.5 -33l-50 -126q-39 20 -72.5 28t-62.5 8q-33 0 -48 -8.5
t-15 -22.5q0 -12 11 -21t34.5 -18.5t59.5 -26.5q50 -23 81 -44.5t45.5 -49t14.5 -69.5q0 -57 -25 -97.5t-77.5 -61.5t-135.5 -21zM179 -211q5 18 9.5 45.5t8.5 56t4 48.5h147v-9q-9 -26 -19.5 -51.5t-23 -51t-27.5 -48.5h-99v10z" />
    <glyph glyph-name="uni021A" unicode="&#x21a;" 
d="M185 0v571h-169v143h497v-143h-168v-571h-160zM168 -211q5 18 9.5 45.5t8.5 56t4 48.5h147v-9q-9 -26 -19.5 -51.5t-23 -51t-27.5 -48.5h-99v10z" />
    <glyph glyph-name="uni021B" unicode="&#x21b;" 
d="M335 -10q-63 0 -106.5 22t-66 68t-22.5 114v223h-126v77l139 58l41 129h107v-128h194v-136h-194v-195q0 -40 13 -59t32.5 -24.5t38.5 -5.5q22 0 50 4.5t63 16.5v-136q-37 -14 -80 -21t-83 -7zM223 -211q5 18 9.5 45.5t8.5 56t4 48.5h147v-9q-9 -26 -19.5 -51.5t-23 -51
t-27.5 -48.5h-99v10z" />
    <glyph glyph-name="uni021C" unicode="&#x21c;" 
d="M48 -24q91 24 147 48.5t85 51.5t39.5 56.5t10.5 64.5q0 37 -10.5 62t-28.5 42q-27 -10 -57.5 -20t-65.5 -19l-31 134q69 19 107.5 37.5t53.5 40t15 48.5q0 25 -10 39.5t-28 20.5t-39 6q-31 0 -69 -16t-65 -39l-63 118q47 38 100.5 55.5t120.5 17.5q70 0 117.5 -24t72 -68
t24.5 -103q0 -50 -17.5 -89.5t-52.5 -70.5q26 -18 46.5 -43t32.5 -58.5t12 -77.5q0 -94 -47.5 -163.5t-146 -120t-253.5 -86.5v156z" />
    <glyph glyph-name="uni021D" unicode="&#x21d;" 
d="M22 -92q88 14 147 29.5t92.5 34t48 42t14.5 53.5q0 29 -12 51.5t-37 41.5q-30 -9 -60.5 -17t-64.5 -15l-32 124q73 15 117 28.5t64 33t20 47.5q0 18 -8 32t-26 22t-47 8q-45 0 -82.5 -10t-72.5 -24l-52 124q49 23 99.5 35.5t114.5 12.5q72 0 123.5 -22t79.5 -64.5
t28 -102.5q0 -47 -19.5 -84t-59.5 -65q28 -16 48 -39.5t30.5 -53t10.5 -68.5q0 -71 -33 -122t-94.5 -86t-146.5 -57.5t-190 -36.5v148z" />
    <glyph glyph-name="uni021E" unicode="&#x21e;" 
d="M29 0v714h161v-273h150v273h160v-714h-160v298h-150v-298h-161zM191 767q-9 20 -27 47.5t-38 54.5t-34 45v13h97q18 -14 36.5 -33t39.5 -44q22 26 40.5 44.5t36.5 32.5h96v-13q-14 -19 -33 -45.5t-36.5 -53.5t-29.5 -48h-148z" />
    <glyph glyph-name="uni021F" unicode="&#x21f;" 
d="M38 0v760h161v-132q0 -36 -3 -72.5t-9 -71.5h9q14 25 33 43t44.5 27t58.5 9q80 0 122.5 -53.5t42.5 -149.5v-360h-161v306q0 53 -10.5 83t-52.5 30q-28 0 -44 -16.5t-23 -50t-7 -85.5v-267h-161zM44 813q-9 20 -27 47.5t-38 54.5t-34 45v13h97q18 -14 36.5 -33t39.5 -44
q22 26 40.5 44.5t36.5 32.5h96v-13q-14 -19 -33 -45.5t-36.5 -53.5t-29.5 -48h-148z" />
    <glyph glyph-name="uni0220" unicode="&#x220;" 
d="M331 511q0 34 -13 53t-47 19q-22 0 -36.5 -10t-21.5 -30t-7 -50v-493h-158v714h137l16 -68h4q14 24 33.5 42t45.5 27.5t58 9.5q44 0 76.5 -17t51 -54.5t18.5 -97.5v-796h-157v751z" />
    <glyph glyph-name="uni0221" unicode="&#x221;" 
d="M281 -101q2 34 5 64t5 59q-12 8 -25.5 21.5t-18.5 25.5h-5q-9 -25 -21.5 -43t-31 -27t-44.5 -9q-39 0 -67 26.5t-43 89.5t-15 172q0 107 14.5 169.5t42 89t64.5 26.5q25 0 41.5 -11t26.5 -32h4q-2 32 -2.5 49.5t-0.5 40.5v150h125v-517q0 -12 0.5 -22.5t1.5 -20.5
q11 16 23.5 26t27.5 14.5t32 4.5q47 0 72.5 -32.5t25.5 -85.5q0 -34 -12.5 -64.5t-39 -49.5t-70.5 -19q-3 0 -10 0.5t-12 1.5q-3 -25 -4.5 -52t-2.5 -50zM179 111q10 0 17 11.5t10.5 44.5t3.5 98v32q0 64 -3.5 95t-10 41t-16.5 10q-9 0 -17 -11t-12 -46t-4 -106
q0 -70 3.5 -106.5t10.5 -49.5t18 -13zM401 85q14 0 21.5 9t7.5 28q0 20 -5.5 27t-12.5 7t-12.5 -8t-8.5 -23.5t-5 -37.5q2 -1 6.5 -1.5t8.5 -0.5z" />
    <glyph glyph-name="uni0222" unicode="&#x222;" 
d="M265 -10q-57 0 -100 15.5t-73 46.5t-45.5 77.5t-15.5 107.5q0 49 11.5 86t32 62.5t47.5 39.5q-33 23 -48 59t-15 89v141h150v-137q0 -35 6.5 -56t19 -30t29.5 -9q19 0 31 9t18 30t6 57v136h150v-137q0 -35 -6.5 -63t-21 -49.5t-36.5 -37.5q29 -14 50 -40t31.5 -63.5
t10.5 -87.5q0 -61 -14.5 -107.5t-44 -77t-73 -46t-100.5 -15.5zM265 126q38 0 57 27t19 89q0 57 -19.5 83.5t-56.5 26.5q-38 0 -58 -27t-20 -83q0 -61 20 -88.5t58 -27.5z" />
    <glyph glyph-name="uni0223" unicode="&#x223;" 
d="M264 -10q-78 0 -131 36t-80.5 96t-27.5 134q0 44 10 81t30.5 66.5t53.5 50.5q-26 17 -41 42t-21.5 58.5t-6.5 75.5v130h165v-137q0 -36 4.5 -58t15.5 -32t30 -10q20 0 30.5 10.5t14.5 33t4 54.5v139h165v-134q0 -38 -7 -70.5t-23 -57t-42 -42.5q32 -20 53.5 -49
t32.5 -66.5t11 -85.5q0 -53 -14 -101t-44 -85t-75 -58t-107 -21zM265 130q26 0 41.5 14.5t23 44t7.5 72.5q0 65 -16.5 97t-55.5 32q-25 0 -41 -14.5t-24 -43t-8 -73.5q0 -42 8 -71t24 -43.5t41 -14.5z" />
    <glyph glyph-name="uni0224" unicode="&#x224;" 
d="M317 -256q-29 0 -52.5 3t-40.5 8v125q14 -4 26 -6.5t25 -2.5q27 0 45 8.5t27.5 28.5t9.5 54v38h-9v143h152v-191q0 -64 -21 -110.5t-61.5 -72t-100.5 -25.5zM49 0v115l262 458h-254v141h429v-115l-253 -456h255v-143h-439z" />
    <glyph glyph-name="uni0225" unicode="&#x225;" 
d="M329 -250q-30 0 -53 3t-41 8v117q15 -4 27 -6.5t25 -2.5q25 0 42 9.5t26 32.5t9 62v27h-8v136h148v-178q0 -64 -20 -110.5t-58.5 -72t-96.5 -25.5zM48 0v100l231 318h-222v135h413v-113l-220 -304h232v-136h-434z" />
    <glyph glyph-name="uni0226" unicode="&#x226;" 
d="M5 0l145 716h226l149 -716h-157l-76 434q-3 23 -8.5 52t-10 57.5t-7.5 49.5q-3 -21 -8 -49.5t-10 -57.5t-9 -52l-77 -434h-157zM140 153l7 136h243l5 -136h-255zM266 767q-46 0 -70 21.5t-24 63.5q0 40 23.5 62t70.5 22q48 0 70 -22t22 -62t-21.5 -62.5t-70.5 -22.5z" />
    <glyph glyph-name="uni0227" unicode="&#x227;" 
d="M200 -10q-79 0 -119.5 48t-40.5 126q0 64 24.5 103.5t69 59t103.5 21.5l96 3v13q0 33 -21.5 47.5t-60.5 14.5q-30 0 -61 -8.5t-62 -24.5l-52 120q45 25 93.5 37.5t102.5 12.5q106 0 159.5 -47.5t53.5 -140.5v-375h-120l-20 71h-3q-19 -30 -42.5 -48t-48.5 -25.5t-51 -7.5
zM250 127q23 0 41.5 9.5t30 29t11.5 47.5v33l-49 -2q-29 0 -50 -7.5t-32 -21t-11 -35.5q0 -28 16.5 -40.5t42.5 -12.5zM279 606q-46 0 -70 21.5t-24 63.5q0 40 23.5 62t70.5 22q48 0 70 -22t22 -62t-21.5 -62.5t-70.5 -22.5z" />
    <glyph glyph-name="uni0228" unicode="&#x228;" 
d="M49 0v714h435v-144h-275v-135h260v-143h-260v-149h275v-143h-435zM250 -240q-18 0 -39.5 2.5t-38.5 6.5v85q15 -4 28.5 -6t23.5 -2q22 0 33 8t11 23q0 19 -18 29.5t-51 13.5l34 81h79l-15 -37q42 -8 64.5 -31t22.5 -64q0 -49 -34 -79t-100 -30z" />
    <glyph glyph-name="uni0229" unicode="&#x229;" 
d="M295 -10q-87 0 -146 33t-89.5 96.5t-30.5 155.5q0 87 28 152t82.5 100.5t135.5 35.5q69 0 119.5 -29t78 -87t27.5 -145v-81h-311q1 -33 19 -54.5t46.5 -31.5t61.5 -10q49 0 88.5 11t69.5 30v-137q-34 -18 -79.5 -28.5t-99.5 -10.5zM349 331q-1 35 -10 57t-26 32.5
t-41 10.5q-40 0 -60.5 -26t-22.5 -74h160zM256 -240q-18 0 -39.5 2.5t-38.5 6.5v85q15 -4 28.5 -6t23.5 -2q22 0 33 8t11 23q0 19 -18 29.5t-51 13.5l34 81h79l-15 -37q42 -8 64.5 -31t22.5 -64q0 -49 -34 -79t-100 -30z" />
    <glyph glyph-name="uni022A" unicode="&#x22a;" 
d="M264 -8q-64 0 -110.5 24t-77 70.5t-45.5 115t-15 157.5q0 116 26 197.5t80.5 125t141.5 43.5q65 0 112 -24t77.5 -71t45 -115.5t14.5 -156.5t-14.5 -156t-45 -115t-77.5 -71t-112 -24zM266 136q34 0 52 27t25 77t7 119q0 110 -17 165.5t-67 55.5q-33 0 -51.5 -25.5
t-26.5 -75t-8 -120.5q0 -70 8 -120t27 -76.5t51 -26.5zM366 763q-31 0 -50.5 19t-19.5 54q0 37 19.5 56t50.5 19q33 0 52.5 -20t19.5 -55t-19.5 -54t-52.5 -19zM162 763q-30 0 -50 18.5t-20 54.5q0 37 20 56t50 19q32 0 52 -20t20 -55t-20 -54t-52 -19zM117 988v105h296
v-105h-296z" />
    <glyph glyph-name="uni022B" unicode="&#x22b;" 
d="M266 -10q-65 0 -111.5 23t-75.5 63.5t-42.5 93t-13.5 110.5q0 79 25.5 143.5t78.5 102t136 37.5q75 0 130 -34t84.5 -98t29.5 -155q0 -56 -12.5 -107.5t-40 -92t-74 -63.5t-114.5 -23zM265 129q29 0 46.5 17t25 50.5t7.5 81.5q0 47 -8 79.5t-25.5 49t-45.5 16.5
q-42 0 -60.5 -37.5t-18.5 -107.5q0 -48 8 -81.5t25.5 -50.5t45.5 -17zM366 602q-31 0 -50.5 19t-19.5 54q0 37 19.5 56t50.5 19q33 0 52.5 -20t19.5 -55t-19.5 -54t-52.5 -19zM162 602q-30 0 -50 18.5t-20 54.5q0 37 20 56t50 19q32 0 52 -20t20 -55t-20 -54t-52 -19z
M117 827v105h296v-105h-296z" />
    <glyph glyph-name="uni022C" unicode="&#x22c;" 
d="M264 -8q-64 0 -110.5 24t-77 70.5t-45.5 115t-15 157.5q0 116 26 197.5t80.5 125t141.5 43.5q65 0 112 -24t77.5 -71t45 -115.5t14.5 -156.5t-14.5 -156t-45 -115t-77.5 -71t-112 -24zM266 136q34 0 52 27t25 77t7 119q0 110 -17 165.5t-67 55.5q-33 0 -51.5 -25.5
t-26.5 -75t-8 -120.5q0 -70 8 -120t27 -76.5t51 -26.5zM88 770q0 27 4.5 55t15.5 51.5t28.5 37.5t45.5 14q22 0 41.5 -7t36.5 -16.5t34 -17t33 -7.5q17 0 24 12t11 37h80q-2 -80 -29 -119t-68 -39q-22 0 -41.5 7.5t-37.5 17t-34.5 16.5t-31.5 7q-13 0 -21 -10.5t-10 -38.5
h-81zM117 993v105h296v-105h-296z" />
    <glyph glyph-name="uni022D" unicode="&#x22d;" 
d="M266 -10q-65 0 -111.5 23t-75.5 63.5t-42.5 93t-13.5 110.5q0 79 25.5 143.5t78.5 102t136 37.5q75 0 130 -34t84.5 -98t29.5 -155q0 -56 -12.5 -107.5t-40 -92t-74 -63.5t-114.5 -23zM265 129q29 0 46.5 17t25 50.5t7.5 81.5q0 47 -8 79.5t-25.5 49t-45.5 16.5
q-42 0 -60.5 -37.5t-18.5 -107.5q0 -48 8 -81.5t25.5 -50.5t45.5 -17zM88 609q0 27 4.5 55t15.5 51.5t28.5 37.5t45.5 14q22 0 41.5 -7t36.5 -16.5t34 -17t33 -7.5q17 0 24 12t11 37h80q-2 -80 -29 -119t-68 -39q-22 0 -41.5 7.5t-37.5 17t-34.5 16.5t-31.5 7
q-13 0 -21 -10.5t-10 -38.5h-81zM117 832v105h296v-105h-296z" />
    <glyph glyph-name="uni022E" unicode="&#x22e;" 
d="M264 -8q-64 0 -110.5 24t-77 70.5t-45.5 115t-15 157.5q0 116 26 197.5t80.5 125t141.5 43.5q65 0 112 -24t77.5 -71t45 -115.5t14.5 -156.5t-14.5 -156t-45 -115t-77.5 -71t-112 -24zM266 136q34 0 52 27t25 77t7 119q0 110 -17 165.5t-67 55.5q-33 0 -51.5 -25.5
t-26.5 -75t-8 -120.5q0 -70 8 -120t27 -76.5t51 -26.5zM266 767q-46 0 -70 21.5t-24 63.5q0 40 23.5 62t70.5 22q48 0 70 -22t22 -62t-21.5 -62.5t-70.5 -22.5z" />
    <glyph glyph-name="uni022F" unicode="&#x22f;" 
d="M266 -10q-65 0 -111.5 23t-75.5 63.5t-42.5 93t-13.5 110.5q0 79 25.5 143.5t78.5 102t136 37.5q75 0 130 -34t84.5 -98t29.5 -155q0 -56 -12.5 -107.5t-40 -92t-74 -63.5t-114.5 -23zM265 129q29 0 46.5 17t25 50.5t7.5 81.5q0 47 -8 79.5t-25.5 49t-45.5 16.5
q-42 0 -60.5 -37.5t-18.5 -107.5q0 -48 8 -81.5t25.5 -50.5t45.5 -17zM266 606q-46 0 -70 21.5t-24 63.5q0 40 23.5 62t70.5 22q48 0 70 -22t22 -62t-21.5 -62.5t-70.5 -22.5z" />
    <glyph glyph-name="uni0230" unicode="&#x230;" 
d="M264 -8q-64 0 -110.5 24t-77 70.5t-45.5 115t-15 157.5q0 116 26 197.5t80.5 125t141.5 43.5q65 0 112 -24t77.5 -71t45 -115.5t14.5 -156.5t-14.5 -156t-45 -115t-77.5 -71t-112 -24zM266 136q34 0 52 27t25 77t7 119q0 110 -17 165.5t-67 55.5q-33 0 -51.5 -25.5
t-26.5 -75t-8 -120.5q0 -70 8 -120t27 -76.5t51 -26.5zM266 767q-46 0 -70 21.5t-24 63.5q0 40 23.5 62t70.5 22q48 0 70 -22t22 -62t-21.5 -62.5t-70.5 -22.5zM117 971v105h296v-105h-296z" />
    <glyph glyph-name="uni0231" unicode="&#x231;" 
d="M266 -10q-65 0 -111.5 23t-75.5 63.5t-42.5 93t-13.5 110.5q0 79 25.5 143.5t78.5 102t136 37.5q75 0 130 -34t84.5 -98t29.5 -155q0 -56 -12.5 -107.5t-40 -92t-74 -63.5t-114.5 -23zM265 129q29 0 46.5 17t25 50.5t7.5 81.5q0 47 -8 79.5t-25.5 49t-45.5 16.5
q-42 0 -60.5 -37.5t-18.5 -107.5q0 -48 8 -81.5t25.5 -50.5t45.5 -17zM266 606q-46 0 -70 21.5t-24 63.5q0 40 23.5 62t70.5 22q48 0 70 -22t22 -62t-21.5 -62.5t-70.5 -22.5zM117 810v105h296v-105h-296z" />
    <glyph glyph-name="uni0232" unicode="&#x232;" 
d="M186 0v276l-178 438h173l85 -266l84 266h172l-180 -437v-277h-156zM117 777v105h296v-105h-296z" />
    <glyph glyph-name="uni0233" unicode="&#x233;" 
d="M100 -245q-18 0 -35.5 2t-35.5 6v130q11 -3 22.5 -4.5t22.5 -1.5q23 0 46.5 7t44.5 28t33 63l6 17l-198 551h177l70 -262q8 -27 12 -48.5t7 -42.5h4q2 13 4.5 28t6 31t6.5 32l58 262h172l-181 -597q-21 -72 -54 -116.5t-79.5 -64.5t-108.5 -20zM117 616v105h296v-105
h-296z" />
    <glyph glyph-name="uni0234" unicode="&#x234;" 
d="M60 12q6 14 16.5 31.5t23 33.5t23.5 27q-6 14 -9.5 40t-3.5 64v552h159v-509q10 6 33 12t53 6q66 0 104 -34.5t38 -94.5q0 -63 -44.5 -106.5t-130.5 -43.5q-37 0 -62.5 5.5t-42 14t-27.5 16.5q-12 -12 -23.5 -32.5t-17.5 -34.5zM325 100q22 0 35.5 9.5t13.5 25.5
q0 15 -11.5 23.5t-33.5 8.5q-21 0 -35 -7t-23 -17q3 -19 16 -31t38 -12z" />
    <glyph glyph-name="uni0235" unicode="&#x235;" 
d="M189 2q3 28 9.5 56t15.5 53.5t18 43.5q-1 8 -1 17v19v183q0 35 -6.5 47.5t-21.5 12.5q-12 0 -19.5 -6t-10 -19.5t-2.5 -36.5v-372h-143v554h112l13 -63h6q9 22 22 38.5t32.5 25.5t47.5 9q34 0 58.5 -14.5t38 -46.5t13.5 -87v-144q7 2 15 3t20 1q51 0 81.5 -35t30.5 -106
q0 -66 -32 -105.5t-97 -39.5q-39 0 -62 11.5t-36 22.5q-3 -8 -6.5 -21.5t-4.5 -24.5zM388 90q8 0 12.5 10.5t4.5 32.5q0 26 -5 34.5t-14 8.5q-6 0 -10 -3.5t-6 -8.5q0 -44 4.5 -59t13.5 -15z" />
    <glyph glyph-name="uni0236" unicode="&#x236;" 
d="M85 13q9 24 25 53t30 46q-2 9 -4.5 21.5t-3.5 30t-1 37.5v216h-126v77l140 59l40 128h107v-129h194v-135h-194v-166q16 8 36 12.5t44 4.5q69 0 104 -34.5t35 -95.5q0 -63 -41.5 -105.5t-134.5 -42.5q-52 0 -85.5 13.5t-49.5 26.5q-7 -10 -16.5 -27.5t-14.5 -31.5z
M352 100q17 0 28 8.5t11 24.5q0 15 -9.5 24t-27.5 9q-14 0 -28 -6.5t-22 -15.5q3 -22 16 -33t32 -11z" />
    <glyph glyph-name="uni0237" unicode="&#x237;" 
d="M185 -245q-33 0 -77 5.5t-82 18.5v134q23 -6 48.5 -10.5t48 -6.5t34.5 -2q33 0 50 10t23.5 34t6.5 65v414l-154 12v124h313v-586q0 -107 -47 -159.5t-164 -52.5z" />
    <glyph glyph-name="uni0238" unicode="&#x238;" 
d="M161 -10q-57 0 -88.5 36t-44 101t-12.5 151q0 104 14 165.5t41.5 89t66.5 27.5q23 0 39.5 -11t25.5 -30h4q-2 30 -2.5 40t-0.5 26v175h118v-175v-26t-2 -40h4q10 18 27 29.5t43 11.5q37 0 63.5 -27.5t40 -89t13.5 -165.5q0 -86 -13.5 -151t-45 -101t-89.5 -36
q-34 0 -59.5 18t-39.5 48q-15 -30 -41 -48t-62 -18zM171 121q13 0 20.5 13.5t10 48.5t2.5 99q0 44 -1.5 71.5t-6 43t-10 22t-14.5 6.5t-16 -12t-11 -43.5t-4 -89.5q0 -63 4 -97t11 -48t15 -14zM355 121q10 0 16.5 13t10 47t3.5 99q0 58 -3.5 89.5t-10 43.5t-17.5 12
q-10 0 -17.5 -11.5t-11 -42t-3.5 -89.5q0 -50 2 -81t6 -48.5t10 -24.5t15 -7z" />
    <glyph glyph-name="uni0239" unicode="&#x239;" 
d="M369 563q57 0 88.5 -36t44 -100.5t12.5 -151.5q0 -103 -14 -165t-41 -89.5t-67 -27.5q-23 0 -39.5 11t-26.5 30h-4q2 -30 2.5 -40t0.5 -26v-175h-117v175q0 16 0.5 26t1.5 40h-4q-10 -18 -27 -29.5t-43 -11.5q-37 0 -63 27.5t-40 89.5t-14 165q0 87 13 151.5t45.5 100.5
t89.5 36q34 0 59.5 -18t39.5 -48q15 30 41 48t62 18zM359 432q-12 0 -20 -13.5t-11 -48.5t-3 -99q0 -44 2 -71.5t6.5 -43t10.5 -22t14 -6.5q10 0 17 12t10 43.5t3 89.5q0 63 -3.5 97t-10 48t-15.5 14zM175 432q-9 0 -16 -13t-10.5 -47t-3.5 -99q0 -58 3.5 -89.5t10.5 -43.5
t17 -12q11 0 18 11.5t10.5 42.5t3.5 89q0 50 -2 81t-6 48.5t-10 24.5t-15 7z" />
    <glyph glyph-name="uni023A" unicode="&#x23a;" 
d="M199 -75l140 835h77l-141 -835h-76zM5 0l145 716h226l149 -716h-157l-76 434q-3 23 -8.5 52t-10 57.5t-7.5 49.5q-3 -21 -8 -49.5t-10 -57.5t-9 -52l-77 -434h-157zM140 153l7 136h243l5 -136h-255z" />
    <glyph glyph-name="uni023B" unicode="&#x23b;" 
d="M210 -75l140 835h76l-140 -835h-76zM309 -10q-91 0 -152.5 42t-92.5 121.5t-31 190.5q0 87 20 158t58 120.5t92.5 76t124.5 26.5q55 0 97.5 -12t83.5 -36l-45 -134q-30 21 -61 29t-58 8q-39 0 -67.5 -16t-46.5 -46t-27 -72.5t-9 -95.5q0 -73 16 -121t47.5 -71.5
t77.5 -23.5q38 0 76 13t72 33v-150q-38 -20 -84 -30t-91 -10z" />
    <glyph glyph-name="uni023C" unicode="&#x23c;" 
d="M131 -208l280 968h97l-280 -968h-97zM309 -10q-78 0 -136 30.5t-91 94t-33 159.5q0 82 27 147.5t85 103.5t150 38q47 0 93 -10.5t83 -31.5l-48 -128q-29 15 -56.5 22.5t-56.5 7.5q-39 0 -64 -17t-37.5 -49t-12.5 -78q0 -54 15 -87t42 -48t62 -15q29 0 66 10.5t71 39.5
v-150q-34 -21 -76.5 -30t-82.5 -9z" />
    <glyph glyph-name="uni023D" unicode="&#x23d;" 
d="M0 302v131h365v-131h-365zM61 0v714h161v-570h262v-144h-423z" />
    <glyph glyph-name="uni023E" unicode="&#x23e;" 
d="M58 -75l331 835h70l-331 -835h-70zM185 0v571h-169v143h497v-143h-168v-571h-160z" />
    <glyph glyph-name="uni023F" unicode="&#x23f;" 
d="M338 -240q-57 0 -90 20t-51.5 55t-32.5 78q-10 32 -19.5 51.5t-21.5 30.5t-30 18l171 -19q12 -6 19.5 -18t14.5 -28q9 -20 18.5 -33.5t22.5 -20t31 -6.5q14 0 26 3t20 7v-123q-14 -6 -33 -10.5t-45 -4.5zM238 -10q-49 0 -92 8t-83 24v147q41 -21 90.5 -32.5t91.5 -11.5
q38 0 54.5 9t16.5 25q0 14 -12 24t-37.5 21.5t-67.5 29.5q-43 19 -73 43t-45 54.5t-15 67.5q0 53 25 89.5t74 55.5t119 19q49 0 96.5 -10t97.5 -33l-50 -126q-39 20 -72.5 28t-62.5 8q-33 0 -48 -8.5t-15 -22.5q0 -12 11 -21t34.5 -18.5t59.5 -26.5q50 -23 81 -44.5
t45.5 -49t14.5 -69.5q0 -57 -25 -97.5t-77.5 -61.5t-135.5 -21z" />
    <glyph glyph-name="uni0240" unicode="&#x240;" 
d="M392 -240q-47 0 -77.5 13t-49 35t-30.5 49.5t-23 55.5q-10 29 -21 48.5t-28 29t-46 9.5h-69v100l231 318h-222v135h413v-113l-231 -318q37 -10 56.5 -29t31 -43.5t21.5 -53.5q13 -37 24.5 -59.5t26.5 -32t37 -9.5q11 0 22 2.5t23 5.5v-129q-17 -7 -40.5 -10.5t-48.5 -3.5
z" />
    <glyph glyph-name="Glottalstopcased" unicode="&#x241;" 
d="M145 314q47 17 80 33.5t53.5 35.5t30 42t9.5 51q0 32 -11 54t-34.5 34t-58.5 12q-48 0 -86 -15.5t-62 -33.5l-57 133q39 25 98.5 44.5t130.5 19.5q84 0 141 -28t87 -80t30 -124q0 -43 -10.5 -79.5t-32.5 -67.5t-55.5 -56t-80.5 -46v-243h-172v314z" />
    <glyph glyph-name="glottalstopcased" unicode="&#x242;" 
d="M155 161q59 27 90.5 55t44 59.5t12.5 66.5q0 39 -22.5 61t-55.5 22q-30 0 -59 -10t-58 -32l-52 118q47 32 94.5 45t98.5 13q68 0 115.5 -26t72 -73t24.5 -110q0 -40 -9 -74t-27.5 -64t-48 -57t-70.5 -53v-102h-150v161z" />
    <glyph glyph-name="uni0243" unicode="&#x243;" 
d="M0 173v96h267v-96h-267zM49 0v714h211q116 0 173.5 -43.5t57.5 -132.5q0 -64 -27 -105.5t-67 -53.5v-5q35 -10 58.5 -31.5t35.5 -53.5t12 -74q0 -68 -28.5 -116t-79.5 -73.5t-121 -25.5h-225zM264 137q46 0 66 22.5t20 61.5q0 27 -9 46t-29 29t-51 10h-59v-169h62z
M256 430q39 0 61.5 20.5t22.5 55.5q0 36 -22.5 53.5t-64.5 17.5h-51v-147h54z" />
    <glyph glyph-name="uni0244" unicode="&#x244;" 
d="M0 319v136h530v-136h-530zM264 -10q-81 0 -133.5 31t-77 93.5t-24.5 157.5v442h161v-428q0 -54 6 -87.5t22 -48t45 -14.5q32 0 48.5 15.5t22 49t5.5 86.5v427h161v-439q0 -94 -24 -157.5t-76 -95.5t-136 -32z" />
    <glyph glyph-name="uni0245" unicode="&#x245;" 
d="M5 0l167 714h186l167 -714h-171l-67 386q-5 32 -9.5 59t-7.5 51t-5 45q-2 -21 -5.5 -45t-7 -51t-9.5 -59l-67 -386h-171z" />
    <glyph glyph-name="uni0246" unicode="&#x246;" 
d="M220 -75l140 835h76l-140 -835h-76zM49 0v714h435v-144h-275v-135h260v-143h-260v-149h275v-143h-435z" />
    <glyph glyph-name="uni0247" unicode="&#x247;" 
d="M65 -208l280 968h97l-280 -968h-97zM295 -10q-87 0 -146 33t-89.5 96.5t-30.5 155.5q0 87 28 152t82.5 100.5t135.5 35.5q69 0 119.5 -29t78 -87t27.5 -145v-81h-311q1 -33 19 -54.5t46.5 -31.5t61.5 -10q49 0 88.5 11t69.5 30v-137q-34 -18 -79.5 -28.5t-99.5 -10.5z
M349 331q-1 35 -10 57t-26 32.5t-41 10.5q-40 0 -60.5 -26t-22.5 -74h160z" />
    <glyph glyph-name="uni0248" unicode="&#x248;" 
d="M103 -219q-33 0 -68 4.5t-70 13.5v138q38 -10 67.5 -13t46.5 -3q63 0 96.5 36.5t33.5 119.5v637h158v-670q0 -81 -28.5 -140t-86.5 -91t-149 -32zM78 291v136h402v-136h-402z" />
    <glyph glyph-name="uni0249" unicode="&#x249;" 
d="M105 183v118h396v-118h-396zM185 -245q-33 0 -77 5.5t-82 18.5v134q23 -6 48.5 -10.5t48 -6.5t34.5 -2q33 0 50 10t23.5 34t6.5 65v414l-154 12v124h313v-586q0 -107 -47 -159.5t-164 -52.5zM309 606q-46 0 -70.5 21.5t-24.5 63.5q0 41 23.5 62.5t71.5 21.5t71 -21.5
t23 -62.5q0 -40 -23 -62.5t-71 -22.5z" />
    <glyph glyph-name="uni024A" unicode="&#x24a;" 
d="M500 -240q-76 0 -120 43.5t-44 145.5v39q0 36 1.5 58.5t3.5 46.5l159 30v-166q0 -33 9.5 -46t30.5 -13q12 0 23 3.5t21 7.5v-133q-11 -5 -34.5 -10.5t-49.5 -5.5zM210 -10q-55 0 -99 34.5t-69.5 115t-25.5 217.5q0 103 15.5 173.5t43 113.5t64.5 62.5t80 19.5
q34 0 57.5 -9.5t38.5 -26t25 -38.5h8l20 62h132v-714h-126l-30 68h-9q-8 -16 -18.5 -30t-25.5 -25t-34.5 -17t-46.5 -6zM266 135q30 0 47.5 22.5t25.5 70t8 121.5v29q0 71 -8.5 116t-25.5 65.5t-46 20.5q-45 0 -65.5 -53.5t-20.5 -168.5q0 -86 10 -134.5t29 -68.5t46 -20z
" />
    <glyph glyph-name="uni024B" unicode="&#x24b;" 
d="M480 -240q-54 0 -85.5 24t-45.5 65t-14 92v21q0 20 1.5 38.5t4 36t5.5 35.5h-8q-20 -42 -57 -62t-80 -20q-46 0 -80 23.5t-55.5 63t-32 90.5t-10.5 107q0 63 12.5 116t36.5 91.5t58.5 60t78.5 21.5q34 0 69 -17t60 -62h8l20 69h126v-604q0 -22 10 -32t28 -10q14 0 22.5 2
t18.5 6v-138q-13 -7 -37.5 -12t-53.5 -5zM265 129q41 0 58.5 31t17.5 98v16q0 78 -16.5 113.5t-58.5 35.5q-40 0 -58 -37.5t-18 -111.5t17 -109.5t58 -35.5z" />
    <glyph glyph-name="uni024C" unicode="&#x24c;" 
d="M0 260v139h223v-139h-223zM49 0v714h193q84 0 139 -23.5t82.5 -70t27.5 -116.5q0 -45 -10 -81.5t-32 -65.5t-57 -52l133 -305h-175l-95 260h-49v-260h-157zM239 399q31 0 52 10t32.5 30.5t11.5 51.5q0 42 -22 63t-72 21h-35v-176h33z" />
    <glyph glyph-name="uni024D" unicode="&#x24d;" 
d="M52 206v118h367v-118h-367zM26 0v117l120 17v283l-105 13v123h217l18 -91h8q14 43 49 72t90 29q16 0 41 -3.5t55 -15.5l-40 -162q-16 8 -38.5 12t-38.5 4q-34 0 -58 -15t-36.5 -43.5t-12.5 -71.5v-134l139 -17v-117h-408z" />
    <glyph glyph-name="uni024E" unicode="&#x24e;" 
d="M0 543v100h530v-100h-530zM186 0v276l-178 438h173l85 -266l84 266h172l-180 -437v-277h-156z" />
    <glyph glyph-name="uni024F" unicode="&#x24f;" 
d="M6 299v100h519v-100h-519zM100 -245q-18 0 -35.5 2t-35.5 6v130q11 -3 22.5 -4.5t22.5 -1.5q23 0 46.5 7t44.5 28t33 63l6 17l-198 551h177l70 -262q8 -27 12 -48.5t7 -42.5h4q2 13 4.5 28t6 31t6.5 32l58 262h172l-181 -597q-21 -72 -54 -116.5t-79.5 -64.5t-108.5 -20z
" />
    <glyph glyph-name="uni0250" unicode="&#x250;" 
d="M330 563q78 0 119 -47.5t41 -126.5q0 -63 -24.5 -103t-69 -59.5t-103.5 -21.5l-96 -3v-13q0 -32 21.5 -47t60.5 -15q30 0 61 8.5t62 24.5l52 -120q-44 -25 -92.5 -37.5t-103.5 -12.5q-106 0 -160 47.5t-54 140.5v375h121l20 -71h3q20 31 42.5 48.5t48.5 25t51 7.5z
M280 426q-22 0 -41 -9.5t-30.5 -28.5t-11.5 -48v-33l49 2q29 1 50 8t32 21t11 35q0 28 -16.5 40.5t-42.5 12.5z" />
    <glyph glyph-name="uni0251" unicode="&#x251;" 
d="M196 -10q-55 0 -94 33t-59 96t-20 152q0 142 49 216t132 74q28 0 48 -8t34.5 -24t24.5 -39h5l19 63h127v-372q0 -32 10 -46.5t27 -14.5q7 0 14 1.5t12 3.5v-123q-5 -4 -25.5 -8t-45.5 -4q-46 0 -77.5 20t-48.5 63h-6q-14 -26 -32.5 -44.5t-41 -28.5t-52.5 -10zM245 117
q34 0 53 37t19 112v12q0 51 -8.5 85t-24 50.5t-38.5 16.5q-35 0 -52.5 -38.5t-17.5 -118.5q0 -54 8 -88.5t23.5 -51t37.5 -16.5z" />
    <glyph glyph-name="uni0252" unicode="&#x252;" 
d="M334 563q55 0 93.5 -33t59 -95.5t20.5 -152.5q0 -141 -49 -215.5t-132 -74.5q-27 0 -47.5 8.5t-35 24t-24.5 38.5h-5l-19 -63h-127v372q0 33 -10 47t-27 14q-7 0 -14 -1.5t-12 -3.5v123q6 4 26.5 8t44.5 4q47 0 78 -20t48 -63h6q15 26 33 44.5t40.5 28.5t52.5 10z
M285 436q-34 0 -53 -37t-19 -112v-12q0 -51 8.5 -85t24.5 -50.5t38 -16.5q35 0 52.5 38.5t17.5 118.5q0 55 -8 89t-23.5 50.5t-37.5 16.5z" />
    <glyph glyph-name="uni0253" unicode="&#x253;" 
d="M321 -10q-34 0 -66.5 15t-59.5 51h-10l-21 -56h-126v575q0 63 18.5 105t55 64t87.5 22q25 0 49 -4t36 -9v-133q-9 3 -20.5 6t-24.5 3q-22 0 -33 -11t-11 -40v-11q0 -20 -2 -40.5t-5 -43.5h6q22 42 57.5 61t74.5 19q47 0 81.5 -23t56.5 -62.5t32.5 -90.5t10.5 -108
q0 -63 -13 -116.5t-37 -92t-58 -59.5t-78 -21zM267 129q39 0 57 37t18 112t-18 110t-56 35q-39 0 -57.5 -35.5t-18.5 -110.5q0 -77 18.5 -112.5t56.5 -35.5z" />
    <glyph glyph-name="uni0254" unicode="&#x254;" 
d="M221 -10q-40 0 -82.5 9t-76.5 30v150q35 -29 72 -39.5t65 -10.5q36 0 62.5 15t41 48t14.5 87q0 46 -11.5 78t-37 49t-64.5 17q-29 0 -56 -7.5t-57 -22.5l-48 128q38 21 83.5 31.5t92.5 10.5q93 0 150.5 -38t84 -103.5t26.5 -147.5q0 -96 -32.5 -159.5t-90.5 -94
t-136 -30.5z" />
    <glyph glyph-name="uni0255" unicode="&#x255;" 
d="M26 -4q12 34 26.5 64.5t29.5 54.5q-15 30 -24 69t-9 90q0 86 28.5 151t86 101.5t145.5 36.5q57 0 100.5 -11.5t74.5 -30.5l-45 -129q-24 15 -50 23t-57 8q-39 0 -66 -16t-40.5 -48t-13.5 -78q0 -10 0.5 -18t1.5 -14q16 11 49.5 23.5t77.5 12.5q80 0 119.5 -36t39.5 -102
q0 -50 -23.5 -85.5t-67 -53.5t-104.5 -18q-45 0 -81.5 10.5t-58.5 24.5q-8 -14 -15.5 -33.5t-12.5 -37.5zM318 107q21 0 36 10t15 26q0 18 -13 26.5t-37 8.5q-27 0 -46 -10t-29 -23q10 -18 27 -28t47 -10z" />
    <glyph glyph-name="uni0256" unicode="&#x256;" 
d="M482 -240q-51 0 -83 20t-48 61.5t-16 105.5v27q0 23 1.5 43.5t3.5 40.5h-5q-15 -22 -33 -37t-41.5 -23t-59.5 -8q-81 0 -129.5 73.5t-48.5 214.5q0 91 23 154t64 97t93 34q36 0 61 -10t42.5 -28t29.5 -42h5q-3 28 -4.5 55.5t-1.5 53.5v168h157v-808q0 -24 10 -36t29 -12
q17 0 31.5 4.5t31.5 12.5v-133q-22 -14 -51 -21t-61 -7zM260 128q41 0 60.5 32.5t19.5 104.5v27q0 68 -17.5 99.5t-57.5 31.5q-41 0 -61.5 -37t-20.5 -110q0 -77 20.5 -112.5t56.5 -35.5z" />
    <glyph glyph-name="uni0257" unicode="&#x257;" 
d="M209 -10q-49 0 -84 22t-57.5 60.5t-33.5 90.5t-11 112q0 85 21 150t62.5 101.5t102.5 36.5q26 0 50 -8t44 -25.5t35 -46.5h8q-1 19 -1 38v38v38v12q0 77 37.5 121t109.5 44q24 0 44 -3.5t31 -7.5v-139q-7 3 -15 5t-18 2q-21 0 -31.5 -12t-10.5 -41v-578h-128l-13 72h-8
q-14 -28 -34.5 -46.5t-46 -27t-53.5 -8.5zM262 129q38 0 58.5 31t20.5 99v15q0 53 -7 85.5t-23 48t-44 15.5q-44 0 -63.5 -38.5t-19.5 -109.5q0 -75 19.5 -110.5t58.5 -35.5z" />
    <glyph glyph-name="uni0258" unicode="&#x258;" 
d="M235 -10q-54 0 -99 10.5t-80 28.5v137q30 -19 70 -30t87 -11q34 0 62.5 10t46.5 31.5t19 54.5h-311v81q0 87 27.5 145t78 87t119.5 29q81 0 135.5 -35.5t82 -100.5t27.5 -152q0 -92 -30 -155.5t-89 -96.5t-146 -33zM181 331h159q-1 48 -21.5 74t-60.5 26q-24 0 -41 -10.5
t-26 -32.5t-10 -57z" />
    <glyph glyph-name="uni0259" unicode="&#x259;" 
d="M235 563q87 0 146 -33t89 -96.5t30 -155.5q0 -86 -27.5 -151t-82 -101t-135.5 -36q-69 0 -119.5 29t-78 87t-27.5 145v81h311q-1 34 -19 55.5t-46.5 31t-62.5 9.5q-47 0 -87 -11t-70 -30v137q35 19 80 29t99 10zM181 222q1 -34 10 -56.5t26 -33t41 -10.5q40 0 60.5 26
t21.5 74h-159z" />
    <glyph glyph-name="uni025A" unicode="&#x25a;" 
d="M180 -10q-82 0 -119 58.5t-37 197.5l194 77q-2 40 -11 67.5t-26.5 41.5t-44.5 14q-28 0 -51 -8.5t-40 -19.5v113q21 12 52 21.5t73 9.5q80 0 123 -50.5t54 -144.5l72 29l8 -56q6 -41 12 -61.5t14.5 -27t18.5 -6.5t19.5 5t16.5 11l24 -66q-14 -15 -33 -26t-43 -11
q-34 0 -59 21.5t-37 85.5l-9 -4q-1 -92 -20 -152.5t-56.5 -89.5t-94.5 -29zM184 108q13 0 20.5 10t10.5 33.5t3 64.5l-63 -26q0 -29 3 -47t10 -26.5t16 -8.5z" />
    <glyph glyph-name="uni025B" unicode="&#x25b;" 
d="M295 -10q-130 0 -186 45t-56 117q0 43 17 70.5t43.5 42.5t53.5 21v5q-20 8 -40.5 23t-33.5 39.5t-13 58.5q0 47 27.5 80t77.5 50.5t114 17.5q47 0 90 -10t88 -32l-49 -114q-31 17 -58 25.5t-62 8.5q-39 0 -60.5 -11t-21.5 -36q0 -29 29.5 -40.5t85.5 -11.5h46v-110h-56
q-68 0 -95 -15t-27 -42q0 -18 11 -30.5t34 -19.5t59 -7q42 0 82 10t78 32v-129q-39 -21 -81.5 -29.5t-96.5 -8.5z" />
    <glyph glyph-name="uni025C" unicode="&#x25c;" 
d="M245 -10q-57 0 -99.5 8.5t-82.5 27.5v130q34 -18 75.5 -29.5t84.5 -11.5q32 0 53.5 6.5t32 19t10.5 30.5q0 27 -25 42.5t-86 15.5h-56v110h48q33 0 56 5t36 18t13 33q0 22 -18.5 33t-53.5 11q-29 0 -59 -8.5t-61 -25.5l-50 113q48 23 95 32.5t97 9.5q60 0 103.5 -16.5
t68 -48.5t24.5 -79q0 -44 -25.5 -77.5t-66.5 -47.5v-5q36 -5 61.5 -23t39 -45t13.5 -61q0 -50 -25.5 -87.5t-76.5 -58.5t-126 -21z" />
    <glyph glyph-name="uni025D" unicode="&#x25d;" 
d="M477 254q-34 0 -58 22t-37 85l-26 -11l-3 106l88 35l7 -55q6 -41 12 -61.5t14.5 -27t18.5 -6.5t20 5t16 11l25 -66q-15 -15 -33.5 -26t-43.5 -11zM178 -10q-57 0 -99.5 8.5t-82.5 27.5v130q34 -18 75.5 -29.5t84.5 -11.5q33 0 54.5 6.5t32 19t10.5 30.5q0 27 -25.5 42.5
t-86.5 15.5h-56v110h48q34 0 57 5t35.5 18t12.5 33q0 22 -18.5 33t-52.5 11q-29 0 -59 -8.5t-62 -25.5l-49 113q48 23 95 32.5t97 9.5q59 0 103 -16.5t68 -48.5t24 -79q0 -44 -25.5 -77.5t-66.5 -47.5v-5q36 -5 62 -23t39.5 -45t13.5 -61q0 -50 -26 -87.5t-77 -58.5
t-126 -21z" />
    <glyph glyph-name="uni025E" unicode="&#x25e;" 
d="M281 -10q-85 0 -141.5 33.5t-85 97.5t-28.5 154q0 95 31 159t89 96.5t140 32.5q98 0 150.5 -39.5t52.5 -109.5q0 -50 -25 -81t-64 -42v-5q31 -6 54.5 -20.5t37.5 -40t14 -64.5q0 -52 -26.5 -90.5t-76.5 -59.5t-122 -21zM283 119q30 0 48.5 14t18.5 41q0 25 -15.5 37
t-40.5 12h-36v119h31q21 0 37 10.5t16 35.5t-17.5 38t-44.5 13q-32 0 -55 -17.5t-34.5 -52.5t-11.5 -89t12 -90t35.5 -53.5t56.5 -17.5z" />
    <glyph glyph-name="uni025F" unicode="&#x25f;" 
d="M185 -245q-33 0 -77 5.5t-82 18.5v134q23 -6 48.5 -10.5t48 -6.5t34.5 -2q33 0 50 10t23.5 34t6.5 65v414l-154 12v124h313v-586q0 -107 -47 -159.5t-164 -52.5zM163 210v118h296v-118h-296z" />
    <glyph glyph-name="uni0260" unicode="&#x260;" 
d="M223 -245q-48 0 -88 9t-83 30v141q48 -24 88 -33t76 -9q56 0 87.5 23.5t31.5 75.5v16q0 17 0.5 30.5t1.5 27.5h-5q-20 -40 -51 -58t-72 -18q-89 0 -137.5 76t-48.5 208q0 136 50.5 212.5t136.5 76.5q40 0 70.5 -19t53.5 -61h6q-3 19 -4 37t-1 33v31q0 90 41 140t121 50
q24 0 50.5 -4.5t38.5 -9.5v-137q-10 4 -22.5 7t-25.5 3q-22 0 -34 -14t-12 -43v-556q0 -85 -28 -144.5t-87 -90t-154 -30.5zM266 129q19 0 32.5 7t22.5 22t13.5 40t4.5 60v16q0 54 -6 86.5t-21.5 47.5t-42.5 15q-43 0 -61 -38.5t-18 -113.5q0 -68 16.5 -105t59.5 -37z" />
    <glyph glyph-name="uni0261" unicode="&#x261;" 
d="M223 -245q-48 0 -88 9t-83 30v141q48 -24 88.5 -33t73.5 -9q58 0 89.5 23.5t31.5 75.5v13v32t1 29h-5q-24 -44 -54 -60t-68 -16q-89 0 -137.5 76t-48.5 208q0 136 50 212.5t136 76.5q40 0 69.5 -18t55.5 -62h8l21 70h129v-533q0 -85 -28 -144.5t-87 -90t-154 -30.5z
M266 129q19 0 32.5 7t22.5 22t13.5 40t4.5 60v16q0 54 -6 86.5t-21.5 47.5t-42.5 15q-43 0 -61 -38.5t-18 -113.5q0 -68 16.5 -105t59.5 -37z" />
    <glyph glyph-name="uni0262" unicode="&#x262;" 
d="M293 -9q-76 0 -130.5 30t-83.5 92.5t-29 157.5q0 84 27.5 149t83.5 102.5t140 37.5q49 0 90 -9.5t75 -28.5l-43 -110q-28 16 -54 22.5t-55 6.5q-38 0 -64.5 -20.5t-40.5 -58.5t-14 -91q0 -76 25.5 -115.5t75.5 -39.5q9 0 19.5 1t20.5 2v87h-72v109h207v-283
q-33 -17 -81 -29t-97 -12z" />
    <glyph glyph-name="uni0263" unicode="&#x263;" 
d="M255 -240q-74 0 -113 43t-39 114q0 32 7 63.5t20 66t32 77.5l-162 429h186l55 -202q3 -13 7 -33.5t7 -41.5t4 -37h4q1 17 3.5 36t7.5 39t10 37l58 202h186l-178 -442q29 -56 43.5 -105t14.5 -91q0 -66 -40 -110.5t-113 -44.5zM256 -131q11 0 15.5 12t4.5 37q0 14 -3 42
t-17 59q-14 -29 -17.5 -57.5t-3.5 -41.5q0 -26 5 -38.5t16 -12.5z" />
    <glyph glyph-name="uni0264" unicode="&#x264;" 
d="M266 -11q-72 0 -111 37t-39 102q0 42 15.5 79t37.5 68l-46 83q-22 39 -40.5 53.5t-39.5 14.5q-7 0 -14.5 -1.5t-14.5 -3.5v122q12 6 31.5 10t39.5 4q47 0 74.5 -19t48.5 -56l29 -52q5 -8 10 -17.5t10 -20t9 -19.5h3q6 14 13.5 28.5t14.5 27.5l28 52q24 44 51.5 60
t64.5 16q25 0 44.5 -4t30.5 -10v-122q-8 2 -12 2.5t-12 0.5q-30 0 -46 -14.5t-39 -50.5l-50 -82q26 -34 44 -71t18 -81q0 -64 -41 -100t-112 -36zM267 84q13 0 19.5 10.5t6.5 29.5q0 17 -6 35.5t-20 40.5q-14 -22 -19 -40.5t-5 -34.5q0 -20 6 -30.5t18 -10.5z" />
    <glyph glyph-name="uni0265" unicode="&#x265;" 
d="M492 553v-760h-161v132q0 37 3 73t9 71h-10q-12 -25 -31.5 -42.5t-45 -27t-58.5 -9.5q-79 0 -122 53.5t-43 149.5v360h161v-306q0 -53 10.5 -83t52.5 -30q28 0 44.5 16.5t23 50t6.5 85.5v267h161z" />
    <glyph glyph-name="uni0266" unicode="&#x266;" 
d="M38 578q0 89 42 137.5t125 48.5q21 0 47.5 -3.5t38.5 -8.5v-129q-10 4 -21.5 6.5t-24.5 2.5q-22 0 -34 -13.5t-12 -42.5v-7q0 -13 -2.5 -34t-8.5 -51h8q14 25 33 43t44.5 27t58.5 9q80 0 122.5 -53.5t42.5 -149.5v-360h-161v306q0 53 -10.5 83t-52.5 30q-28 0 -44 -16.5
t-23 -50t-7 -85.5v-267h-161v578z" />
    <glyph glyph-name="uni0267" unicode="&#x267;" 
d="M334 -240q-31 0 -58.5 6.5t-47.5 16.5v129q14 -5 27 -9t31 -4q22 0 36 13.5t14 49.5v344q0 53 -10.5 83t-52.5 30q-28 0 -44 -16.5t-23 -50t-7 -85.5v-267h-161v578q0 89 42 137.5t125 48.5q21 0 47.5 -3.5t38.5 -8.5v-129q-10 4 -21.5 6.5t-24.5 2.5q-22 0 -34 -13.5
t-12 -42.5v-7q0 -13 -2.5 -34t-8.5 -51h8q14 25 33 43t44.5 27t58.5 9q80 0 122.5 -53.5t42.5 -149.5v-409q0 -62 -16 -105t-52 -64.5t-95 -21.5z" />
    <glyph glyph-name="uni0268" unicode="&#x268;" 
d="M36 0v117l161 17v80h-119v118h119v85l-126 13v123h285v-221h118v-118h-118v-80l137 -17v-117h-457zM277 606q-46 0 -70 21.5t-24 63.5q0 40 23.5 62t70.5 22q48 0 70 -22t22 -62t-21.5 -62.5t-70.5 -22.5z" />
    <glyph glyph-name="uni0269" unicode="&#x269;" 
d="M341 -10q-56 0 -95 17.5t-59 57t-20 104.5v384h154v-371q0 -23 8 -36.5t22.5 -19.5t33.5 -6q22 0 39.5 5t36.5 15v-122q-23 -13 -52.5 -20.5t-67.5 -7.5z" />
    <glyph glyph-name="iotaserifed" unicode="&#x26a;" 
d="M67 0v116l122 15v291l-122 15v116h396v-116l-120 -15v-291l120 -15v-116h-396z" />
    <glyph glyph-name="uni026B" unicode="&#x26b;" 
d="M56 286q0 45 11 83t34.5 60.5t59.5 22.5q22 0 50 -7.5t56.5 -17t53 -17t40.5 -7.5q17 0 24.5 12.5t9.5 38.5h92q0 -65 -15.5 -101.5t-40 -51t-51.5 -14.5q-22 0 -50.5 7t-57.5 16.5t-53 17t-37 7.5q-16 0 -24.5 -13t-8.5 -36h-93zM36 0v116l156 18v495l-127 11v120h286
v-626l142 -18v-116h-457z" />
    <glyph glyph-name="uni026C" unicode="&#x26c;" 
d="M161 274q-45 0 -72 18t-39 47t-12 61q0 56 30 88.5t81 32.5q12 0 23 -2.5t20 -9.5l159 -137h86v-98h-276zM169 372h23v19q0 18 -4.5 26.5t-11 11.5t-12.5 3q-12 0 -19.5 -8t-7.5 -22q0 -18 9.5 -24t22.5 -6zM36 0v116l156 18v495l-127 11v120h286v-626l142 -18v-116h-457
z" />
    <glyph glyph-name="uni026D" unicode="&#x26d;" 
d="M368 -240q-60 0 -99.5 22.5t-58 68t-18.5 114.5v664l-127 11v120h286v-779q0 -37 14 -57.5t51 -20.5q19 0 33.5 4.5t26.5 9.5v-135q-17 -8 -44 -15t-64 -7z" />
    <glyph glyph-name="uni026E" unicode="&#x26e;" 
d="M271 -240q-46 0 -75.5 8.5t-48.5 15.5v140q20 -9 43.5 -17.5t60.5 -8.5q33 0 57 13t37.5 40t13.5 68q0 42 -14 66.5t-40.5 35t-63.5 10.5h-29v111l108 181h-140v-423h-144v760h144v-207h307v-102l-126 -208q41 -6 74 -29t52.5 -68t19.5 -118q0 -85 -29.5 -145t-83 -91.5
t-123.5 -31.5z" />
    <glyph glyph-name="uni026F" unicode="&#x26f;" 
d="M513 553v-553h-110l-19 63h-5q-9 -26 -21.5 -42.5t-30 -23.5t-40.5 -7q-40 0 -57 22.5t-24 61.5h-5q-15 -38 -37 -61t-61 -23q-40 0 -58.5 24.5t-23.5 71.5t-5 111v356h131v-378q0 -22 2.5 -35t8 -18.5t14.5 -5.5q13 0 19 7.5t8.5 21t2.5 31.5v377h126v-376
q0 -22 2 -35.5t7 -19.5t14 -6q14 0 20.5 7.5t9 21t2.5 32.5v376h130z" />
    <glyph glyph-name="uni0270" unicode="&#x270;" 
d="M382 -240v304h-4q-9 -26 -21 -42.5t-29 -24t-41 -7.5q-40 0 -56.5 21.5t-24.5 60.5h-5q-16 -37 -37.5 -59.5t-59.5 -22.5q-41 0 -59.5 25t-23.5 72t-5 110v356h131v-356q0 -22 1.5 -40.5t6.5 -29.5t17 -11q14 0 20 12t8 30.5t2 38.5v356h126v-355q0 -24 1 -42.5t6 -29
t18 -10.5q14 0 20 12.5t7.5 31.5t1.5 38v355h131v-793h-131z" />
    <glyph glyph-name="uni0271" unicode="&#x271;" 
d="M363 -240q-28 0 -49 4.5t-37 10.5v112q12 -4 23.5 -7.5t27.5 -3.5q26 0 40.5 16t14.5 56v430q0 22 -2.5 35t-7.5 18.5t-15 5.5q-13 0 -19 -7t-8.5 -21t-2.5 -32v-377h-126v376q0 23 -1.5 36t-7 19t-14.5 6q-14 0 -20.5 -7.5t-9 -21t-2.5 -32.5v-376h-131v553h111l18 -63
h6q9 27 21.5 43t30 23t40.5 7q40 0 57 -22.5t24 -61.5h5q15 38 37 61t61 23q40 0 58.5 -24.5t23 -71t4.5 -111.5v-400q0 -46 -9.5 -82.5t-29 -61.5t-47.5 -38.5t-64 -13.5z" />
    <glyph glyph-name="uni0272" unicode="&#x272;" 
d="M41 -240q-21 0 -38.5 3.5t-29.5 8.5v130q5 -2 11.5 -4t14.5 -2q19 0 29 11t10 33v613h128l19 -64h7q14 23 33 39.5t45 25.5t60 9q81 0 124 -50.5t43 -152.5v-360h-161v322q0 57 -15 81.5t-46 24.5q-42 0 -59 -35.5t-17 -112.5v-333q0 -61 -15.5 -103t-50.5 -63t-92 -21z
" />
    <glyph glyph-name="uni0273" unicode="&#x273;" 
d="M492 -240q-58 0 -92.5 20.5t-49 62t-14.5 105.5v374q0 57 -15 81.5t-46 24.5q-42 0 -59 -35.5t-17 -112.5v-280h-161v553h128l19 -64h7q14 23 33 39.5t45 25.5t60 9q81 0 124 -50.5t43 -152.5v-417q0 -22 10 -33.5t31 -11.5q10 0 19.5 2.5t18.5 5.5v-132q-15 -6 -37 -10
t-47 -4z" />
    <glyph glyph-name="uni0274" unicode="&#x274;" 
d="M43 0v553h170l144 -355q-2 31 -3.5 60t-2.5 57.5t-1 56.5v181h137v-553h-168l-147 353q3 -34 5 -62.5t2.5 -53.5t0.5 -51v-186h-137z" />
    <glyph glyph-name="uni0275" unicode="&#x275;" 
d="M94 214v120h343v-120h-343zM266 -10q-65 0 -111.5 23t-75.5 63.5t-42.5 93t-13.5 110.5q0 79 25.5 143.5t78.5 102t136 37.5q75 0 130 -34t84.5 -98t29.5 -155q0 -56 -12.5 -107.5t-40 -92t-74 -63.5t-114.5 -23zM265 129q29 0 46.5 17t25 50.5t7.5 81.5q0 47 -8 79.5
t-25.5 49t-45.5 16.5q-42 0 -60.5 -37.5t-18.5 -107.5q0 -48 8 -81.5t25.5 -50.5t45.5 -17z" />
    <glyph glyph-name="uni0276" unicode="&#x276;" 
d="M183 -10q-59 0 -95 34t-52.5 98t-16.5 153q0 94 17.5 158t54.5 97t96 33q37 0 60.5 -12.5t37.5 -38.5v41h224v-123h-113v-92h103v-124h-103v-91h113v-123h-224v38q-9 -14 -23 -25t-34 -17t-45 -6zM215 122q22 0 34 16.5t16 51.5t4 89q0 82 -10 117t-43 35
q-30 0 -44 -33.5t-14 -122.5q0 -84 13.5 -118.5t43.5 -34.5z" />
    <glyph glyph-name="uni0277" unicode="&#x277;" 
d="M154 -10q-65 0 -102 61t-37 187q0 103 29 175t85.5 110t137.5 38q90 0 144.5 -38.5t79 -110.5t24.5 -174q0 -63 -9 -109.5t-26.5 -77.5t-44 -46t-62.5 -15q-35 0 -56.5 13.5t-32.5 35t-17 43.5h-3q-11 -36 -34 -64t-76 -28zM180 127q9 0 13.5 11t4.5 44v147h135v-147
q0 -34 3 -44.5t13 -10.5q7 0 13 10.5t9 35t3 67.5q0 60 -9 105t-33 70.5t-69 25.5q-42 0 -65 -25t-32.5 -69.5t-9.5 -103.5q0 -66 6.5 -91t17.5 -25z" />
    <glyph glyph-name="uni0278" unicode="&#x278;" 
d="M203 -2q-84 10 -136 82t-52 200q0 117 47 189.5t139 81.5v209h129v-209q60 -6 101 -42.5t62 -97t21 -139.5t-21 -138t-62 -94t-101 -42v-238h-127v238zM201 427q-22 -3 -37 -45t-15 -108q0 -43 6.5 -77.5t18.5 -54.5t27 -21v306zM330 121q16 1 27.5 21.5t17.5 55t6 78.5
q0 65 -13.5 106.5t-37.5 44.5v-306z" />
    <glyph glyph-name="uni0279" unicode="&#x279;" 
d="M503 553v-117l-119 -17v-283l105 -13v-123h-217l-18 91h-8q-14 -43 -48.5 -72t-90.5 -29q-15 0 -40.5 3.5t-55.5 15.5l40 162q16 -7 38.5 -11.5t38.5 -4.5q34 0 58 15t36.5 44t12.5 71v134l-139 17v117h407z" />
    <glyph glyph-name="uni027A" unicode="&#x27a;" 
d="M107 -10q-15 0 -40.5 3.5t-55.5 15.5l40 162q16 -7 38.5 -11.5t38.5 -4.5q34 0 58 15t36.5 44t12.5 71v475h149v-624l105 -13v-123h-217l-18 91h-8q-14 -43 -48.5 -72t-90.5 -29z" />
    <glyph glyph-name="uni027B" unicode="&#x27b;" 
d="M411 -240q-56 0 -93.5 20.5t-55.5 62.5t-18 107v40q0 29 2 51.5t6 44.5h-6q-9 -24 -26.5 -45.5t-45 -35.5t-68.5 -14q-25 0 -48.5 6.5t-34.5 12.5l40 161q9 -4 27.5 -9.5t38.5 -5.5q38 0 63.5 13.5t38.5 42t13 75.5v132l-136 17v117h407v-117l-117 -17v-448
q0 -34 13.5 -52t42.5 -18q18 0 31 4t23 8v-134q-17 -7 -40 -13t-57 -6z" />
    </font>
</defs>
</svg>
